<svg width="155" height="42" viewBox="0 0 155 42" fill="none" xmlns="http://www.w3.org/2000/svg">
<path d="M144 16V42C144 42 155 41.3029 155 38.2126V16.0091L144 16Z" fill="#A99D34"/>
<path d="M18.6481 32.9416C22.873 35.052 27.8654 36.1921 32.9841 36.2153C59.1544 36.362 134.267 36.5454 139.381 36.7655C148.045 37.1323 154.99 37.5798 154.99 38.0933V6.81309C154.99 5.00612 154.007 3.27315 152.257 1.99543C150.507 0.717709 148.134 -0.000106812 145.659 -0.000106812H33.0343C27.8469 -0.000152588 22.7725 1.10645 18.4347 3.18368L6.72837 8.79379C4.68114 9.77491 2.99642 11.1091 1.82304 12.6786C0.649654 14.2481 0.0237515 16.0044 0.000662831 17.7925C-0.0224259 19.5805 0.558008 21.3452 1.69065 22.9305C2.8233 24.5159 4.47329 25.8731 6.49481 26.8822L18.6481 32.9416Z" fill="#F1DA11"/>
<path d="M70.0939 14.2609C70.2678 14.2145 70.4446 14.1826 70.6243 14.1652C70.804 14.1478 70.9808 14.1391 71.1547 14.1391C71.5431 14.1391 71.9431 14.1971 72.3547 14.313C72.7721 14.4232 73.1895 14.5884 73.6069 14.8087L72.6417 17.3565C72.3634 17.2348 72.0996 17.142 71.8504 17.0783C71.6011 17.0087 71.3663 16.9739 71.146 16.9739C70.9953 16.9739 70.8243 16.9913 70.633 17.0261C70.4475 17.0435 70.2475 17.0986 70.033 17.1913C69.8185 17.2783 69.604 17.3913 69.3895 17.5304C69.1808 17.6696 68.9779 17.8319 68.7808 18.0174C68.5837 18.1971 68.4069 18.3884 68.2504 18.5913C68.0996 18.7942 67.975 19.0058 67.8765 19.2261C67.7779 19.4406 67.7228 19.6493 67.7112 19.8522C67.6996 20.0145 67.746 20.1478 67.8504 20.2522C67.9547 20.3507 68.0939 20.4377 68.2678 20.513C68.4417 20.5826 68.6388 20.6464 68.8591 20.7043C69.0794 20.7565 69.3025 20.8174 69.5286 20.887L69.7808 20.9478C70.1518 21.0348 70.5199 21.1333 70.8852 21.2435C71.2562 21.3536 71.5895 21.5101 71.8852 21.713C72.1808 21.9101 72.4185 22.171 72.5982 22.4957C72.7837 22.8203 72.8765 23.2406 72.8765 23.7565C72.8765 23.8609 72.8707 23.9681 72.8591 24.0783C72.8533 24.1942 72.8388 24.313 72.8156 24.4348C72.7576 24.7478 72.6533 25.0522 72.5025 25.3478C72.3518 25.6493 72.1605 25.9333 71.9286 26.2C71.7025 26.4725 71.4388 26.7246 71.1373 26.9565C70.8417 27.1942 70.517 27.4058 70.1634 27.5913C69.4968 27.9217 68.7344 28.1768 67.8765 28.3565C67.0185 28.542 66.0968 28.6348 65.1112 28.6348C63.9286 28.6348 62.8852 28.4609 61.9808 28.113C61.0765 27.771 60.3257 27.2696 59.7286 26.6087C59.2765 26.0696 58.9431 25.4783 58.7286 24.8348C58.5199 24.1913 58.4156 23.5188 58.4156 22.8174C58.4156 22.6667 58.4214 22.5159 58.433 22.3652C58.4446 22.2145 58.4562 22.0725 58.4678 21.9391C58.491 21.5217 58.5373 21.113 58.6069 20.713C58.6765 20.3072 58.7547 19.9275 58.8417 19.5739C58.9344 19.2145 59.033 18.8841 59.1373 18.5826C59.2417 18.2754 59.3373 18.0087 59.4243 17.7826C59.5112 17.5507 59.5837 17.3681 59.6417 17.2348C59.7054 17.0957 59.7431 17.0116 59.7547 16.9826L61.9373 17.8957C61.7924 18.2377 61.6533 18.5739 61.5199 18.9043C61.3924 19.229 61.2765 19.5652 61.1721 19.913C61.0736 20.2551 60.9895 20.6174 60.9199 21C60.8562 21.3826 60.8156 21.8 60.7982 22.2522C60.7924 22.3159 60.7866 22.3855 60.7808 22.4609C60.775 22.5362 60.7721 22.6029 60.7721 22.6609C60.7721 23.0261 60.8272 23.3855 60.9373 23.7391C61.0533 24.0928 61.2417 24.4116 61.5025 24.6957C61.6591 24.8754 61.862 25.0319 62.1112 25.1652C62.3663 25.3043 62.6533 25.4203 62.9721 25.513C63.291 25.6116 63.633 25.6841 63.9982 25.7304C64.3634 25.7826 64.7344 25.8087 65.1112 25.8087C65.8475 25.8087 66.5344 25.7565 67.1721 25.6522C67.8156 25.5536 68.3808 25.4203 68.8678 25.2522C69.3547 25.0899 69.746 24.8986 70.0417 24.6783C70.3431 24.4638 70.517 24.2435 70.5634 24.0174C70.5518 24.0174 70.517 24.0116 70.4591 24C70.4011 23.9884 70.3257 23.971 70.233 23.9478C70.146 23.9304 70.0446 23.9072 69.9286 23.8783C69.8185 23.8551 69.7025 23.829 69.5808 23.8L69.1112 23.6957C68.5953 23.5681 68.1083 23.4203 67.6504 23.2522C67.1982 23.0899 66.8011 22.8725 66.4591 22.6C66.1228 22.3333 65.8533 21.9971 65.6504 21.5913C65.4533 21.1797 65.3547 20.6609 65.3547 20.0348C65.3837 19.3681 65.5228 18.7188 65.7721 18.087C66.0214 17.4551 66.3576 16.8783 66.7808 16.3565C67.204 15.8348 67.6968 15.3913 68.2591 15.0261C68.8272 14.6551 69.4417 14.4 70.1025 14.2609H70.0939ZM74.9433 18.4609C75.1868 18.6174 75.4709 18.7739 75.7955 18.9304C76.126 19.087 76.4622 19.2319 76.8042 19.3652C77.152 19.4928 77.4883 19.5971 77.8129 19.6783C78.1375 19.7594 78.4187 19.8 78.6564 19.8C78.7433 19.8 78.8564 19.7971 78.9955 19.7913C79.1346 19.7797 79.2796 19.7623 79.4303 19.7391C79.5868 19.7101 79.7433 19.6754 79.8999 19.6348C80.0564 19.5884 80.1984 19.5304 80.326 19.4609C80.4593 19.3913 80.5665 19.3101 80.6477 19.2174C80.7288 19.1188 80.7723 19.0029 80.7781 18.8696C80.7839 18.6435 80.7144 18.3884 80.5694 18.1043C80.4303 17.8203 80.239 17.5246 79.9955 17.2174C79.7578 16.9043 79.4796 16.5913 79.1607 16.2783C78.8477 15.9594 78.5231 15.6551 78.1868 15.3652C77.8506 15.0696 77.5144 14.7971 77.1781 14.5478C76.8419 14.2928 76.5317 14.0754 76.2477 13.8957L77.7868 11.6087C78.3491 12.0029 78.9057 12.4435 79.4564 12.9304C80.0129 13.4174 80.526 13.9362 80.9955 14.487C81.4651 15.0319 81.8709 15.5971 82.2129 16.1826C82.5549 16.7681 82.8013 17.3536 82.952 17.9391C82.9984 18.1072 83.0303 18.2783 83.0477 18.4522C83.0651 18.6203 83.0738 18.7826 83.0738 18.9391C83.0738 19.4783 82.9694 19.9739 82.7607 20.4261C82.552 20.8725 82.2593 21.2609 81.8825 21.5913C81.5115 21.9159 81.0651 22.1681 80.5433 22.3478C80.0216 22.5275 79.4477 22.6174 78.8216 22.6174C78.7752 22.6174 78.7288 22.6145 78.6825 22.6087C78.6361 22.6087 78.5897 22.6087 78.5433 22.6087C78.1433 22.6087 77.7317 22.5652 77.3086 22.4783C76.8912 22.3971 76.4767 22.287 76.0651 22.1478C75.6593 22.0087 75.2622 21.8464 74.8738 21.6609C74.4912 21.4754 74.1346 21.2812 73.8042 21.0783L74.9433 18.4609ZM87.8872 16.8696C87.7654 16.8464 87.6263 16.8899 87.4698 17C87.319 17.1043 87.1741 17.2493 87.035 17.4348C86.9017 17.6145 86.7886 17.8145 86.6959 18.0348C86.6089 18.2551 86.5654 18.4667 86.5654 18.6696C86.5654 18.8609 86.6205 19.0203 86.7306 19.1478C86.8408 19.2754 86.9799 19.3797 87.148 19.4609C87.3219 19.542 87.5103 19.6029 87.7132 19.6435C87.9219 19.6841 88.1219 19.713 88.3132 19.7304H88.3046C88.4553 19.742 88.6263 19.7507 88.8176 19.7565C89.0147 19.7565 89.206 19.7565 89.3915 19.7565C89.4495 19.7565 89.493 19.7594 89.5219 19.7652C89.5567 19.7652 89.5857 19.7652 89.6089 19.7652C89.6321 19.7652 89.6553 19.7652 89.6785 19.7652C89.7075 19.7652 89.748 19.7623 89.8002 19.7565C89.7132 19.3971 89.6089 19.0551 89.4872 18.7304C89.3712 18.4 89.235 18.1043 89.0785 17.8435C88.9219 17.5826 88.7451 17.3681 88.548 17.2C88.3509 17.0261 88.1306 16.9159 87.8872 16.8696ZM83.6263 25.9739C84.4437 25.8116 85.1886 25.6058 85.8611 25.3565C86.5335 25.113 87.1219 24.8377 87.6263 24.5304C88.1364 24.229 88.5567 23.9072 88.8872 23.5652C89.2234 23.2232 89.4611 22.8754 89.6002 22.5217C89.3509 22.5217 89.0872 22.5159 88.8089 22.5043C88.5306 22.4986 88.3017 22.4899 88.1219 22.4783C87.4495 22.4203 86.835 22.2696 86.2785 22.0261C85.7219 21.7884 85.2785 21.4638 84.948 21.0522C84.7046 20.7391 84.5306 20.4 84.4263 20.0348C84.3277 19.6696 84.2785 19.2841 84.2785 18.8783C84.2785 18.5652 84.3075 18.2522 84.3654 17.9391C84.4234 17.6203 84.5046 17.313 84.6089 17.0174C84.7132 16.7159 84.835 16.4319 84.9741 16.1652C85.119 15.8986 85.2727 15.6551 85.435 15.4348C85.7828 15 86.1625 14.6725 86.5741 14.4522C86.9915 14.2261 87.4292 14.113 87.8872 14.113C88.8669 14.113 89.7509 14.542 90.5393 15.4C90.8176 15.713 91.0669 16.0638 91.2872 16.4522C91.5075 16.8406 91.693 17.2551 91.8437 17.6957C92.0002 18.1304 92.119 18.5884 92.2002 19.0696C92.2814 19.5449 92.3219 20.029 92.3219 20.5217C92.3219 20.6725 92.3161 20.8232 92.3046 20.9739C92.2988 21.1246 92.2901 21.2667 92.2785 21.4C92.2089 22.0783 92.0553 22.713 91.8176 23.3043C91.5857 23.9014 91.2843 24.4493 90.9132 24.9478C90.548 25.4522 90.1219 25.9072 89.635 26.313C89.148 26.7246 88.6176 27.0841 88.0437 27.3913C87.4756 27.7043 86.8727 27.9652 86.235 28.1739C85.5973 28.3826 84.9422 28.5391 84.2698 28.6435L83.6263 25.9739ZM99.6887 22.5217C99.5611 22.5217 99.3814 22.513 99.1495 22.4957C98.9176 22.4783 98.6684 22.4145 98.4017 22.3043C98.2742 23.0232 98.0336 23.7043 97.68 24.3478C97.3321 24.9971 96.9002 25.6029 96.3843 26.1652C95.8684 26.7333 95.28 27.2551 94.6191 27.7304C93.9582 28.2058 93.2539 28.6319 92.506 29.0087L90.9147 26.8087C91.3263 26.6 91.7408 26.371 92.1582 26.1217C92.5756 25.8783 92.9727 25.6174 93.3495 25.3391C93.7321 25.0667 94.0858 24.7797 94.4104 24.4783C94.7408 24.1826 95.0278 23.8754 95.2713 23.5565C95.5147 23.2377 95.706 22.9101 95.8452 22.5739C95.9843 22.2435 96.0539 21.9072 96.0539 21.5652C96.0539 21.5478 96.051 21.5217 96.0452 21.487C96.0452 21.4522 96.0452 21.4174 96.0452 21.3826C96.0452 21.3478 96.0423 21.3217 96.0365 21.3043C96.0365 21.287 96.0365 21.2899 96.0365 21.313V21.3217C95.9959 20.9855 95.9379 20.6638 95.8626 20.3565C95.7872 20.0493 95.6916 19.7362 95.5756 19.4174C95.4655 19.0986 95.335 18.7652 95.1843 18.4174C95.0336 18.0638 94.8655 17.6783 94.68 17.2609L97.193 16.1652C97.4249 16.8609 97.6423 17.4406 97.8452 17.9043C98.0481 18.3681 98.2452 18.7391 98.4365 19.0174C98.6336 19.2957 98.8307 19.4928 99.0278 19.6087C99.2249 19.7188 99.4336 19.7739 99.6539 19.7739H99.6974C99.8887 19.7739 100.068 19.8116 100.236 19.887C100.405 19.9623 100.55 20.0638 100.671 20.1913C100.799 20.313 100.897 20.458 100.967 20.6261C101.042 20.7942 101.08 20.971 101.08 21.1565C101.08 21.3478 101.042 21.5275 100.967 21.6957C100.897 21.8638 100.799 22.0087 100.671 22.1304C100.55 22.2522 100.405 22.3478 100.236 22.4174C100.068 22.487 99.8858 22.5217 99.6887 22.5217ZM95.8365 10.9304L97.7669 12.8609L95.8365 14.7913L93.906 12.8609L95.8365 10.9304ZM98.2176 21.1478C98.2176 20.9565 98.2552 20.7768 98.3306 20.6087C98.4002 20.4406 98.4958 20.2957 98.6176 20.1739C98.7393 20.0464 98.8842 19.9478 99.0523 19.8783C99.2205 19.8087 99.4002 19.7739 99.5915 19.7739H100.487H100.878C101.093 19.7739 101.316 19.7652 101.548 19.7478C101.786 19.7304 102.006 19.6957 102.209 19.6435C102.418 19.5913 102.6 19.5188 102.757 19.4261C102.919 19.3333 103.035 19.2087 103.105 19.0522C103.151 18.9478 103.174 18.7913 103.174 18.5826C103.174 18.4435 103.134 18.2348 103.052 17.9565C102.971 17.6783 102.864 17.371 102.731 17.0348C102.597 16.6928 102.447 16.3362 102.278 15.9652C102.11 15.5942 101.939 15.2435 101.765 14.913L104.252 13.6783C104.415 14.0435 104.574 14.4319 104.731 14.8435C104.893 15.2551 105.038 15.6725 105.165 16.0957C105.293 16.5188 105.394 16.942 105.47 17.3652C105.551 17.7826 105.591 18.1826 105.591 18.5652C105.591 19.1507 105.487 19.687 105.278 20.1739C105.035 20.7188 104.702 21.171 104.278 21.5304C103.855 21.8841 103.348 22.1449 102.757 22.313C102.409 22.4116 102.076 22.4696 101.757 22.487C101.438 22.5101 101.139 22.5217 100.861 22.5217H99.6697H99.5915C99.4002 22.5217 99.2205 22.487 99.0523 22.4174C98.8842 22.3478 98.7393 22.2493 98.6176 22.1217C98.4958 22 98.4002 21.8551 98.3306 21.687C98.2552 21.5188 98.2176 21.3391 98.2176 21.1478ZM102.165 23.313L104.096 25.2435L102.165 27.1739L100.235 25.2435L102.165 23.313Z" fill="#303030"/>
</svg>
