<svg width="70" height="70" viewBox="0 0 70 70" fill="none" xmlns="http://www.w3.org/2000/svg">
<rect x="0.5" y="0.5" width="69" height="69" rx="9.5" fill="white" stroke="#636363" stroke-dasharray="2 2"/>
<path d="M27 33.9999C26.1716 33.9999 25.5 34.6715 25.5 35.4999C25.5 36.3283 26.1716 36.9999 27 36.9999V33.9999ZM34.8319 36.9999C35.6604 36.9999 36.332 36.3283 36.332 35.4999C36.332 34.6715 35.6604 33.9999 34.8319 33.9999V36.9999ZM34.8311 34.0003C34.0027 34.0003 33.3311 34.6718 33.3311 35.5003C33.3311 36.3287 34.0027 37.0003 34.8311 37.0003V34.0003ZM42.6631 37.0003C43.4915 37.0003 44.1631 36.3287 44.1631 35.5003C44.1631 34.6718 43.4915 34.0003 42.6631 34.0003V37.0003ZM36.3317 35.5C36.3317 34.6716 35.6602 34 34.8317 34C34.0033 34 33.3317 34.6716 33.3317 35.5H36.3317ZM33.3317 44C33.3317 44.8284 34.0033 45.5 34.8317 45.5C35.6602 45.5 36.3317 44.8284 36.3317 44H33.3317ZM33.3317 35.5C33.3317 36.3284 34.0033 37 34.8317 37C35.6602 37 36.3317 36.3284 36.3317 35.5H33.3317ZM36.3317 27C36.3317 26.1716 35.6602 25.5 34.8317 25.5C34.0033 25.5 33.3317 26.1716 33.3317 27H36.3317ZM27 36.9999H34.8319V33.9999H27V36.9999ZM34.8311 37.0003H42.6631V34.0003H34.8311V37.0003ZM33.3317 35.5V44H36.3317V35.5H33.3317ZM36.3317 35.5V27H33.3317V35.5H36.3317Z" fill="#B7B7B7"/>
</svg>
