<svg width="999" height="855" viewBox="0 0 999 855" fill="none" xmlns="http://www.w3.org/2000/svg">
<path fill-rule="evenodd" clip-rule="evenodd" d="M267.3 249.625C270.377 248.802 278.492 238.493 281.311 235.293C287.998 227.704 295.422 221.075 302.24 213.707C303.668 212.165 303.832 211.523 305.26 209.979L319.438 195.14C320.896 193.486 321.151 192.756 322.805 191.085L364.086 146.662C370.289 140.395 373.559 134.932 384.075 134.932C394.115 134.932 398.881 145.647 405.198 150.925L420.68 165.811C422.353 167.465 423.084 167.719 424.74 169.177L480.326 222.912C480.428 223.006 480.577 223.14 480.679 223.234C481.63 224.111 481.806 224.242 482.736 225.226C482.869 225.37 483.239 225.796 483.375 225.935L556.2 296.176C561.926 300.542 566.061 306.341 571.561 311.181C573.217 312.639 573.948 312.893 575.62 314.547C577.014 315.927 577.922 316.875 579.319 318.272L632.425 369.764C632.47 369.807 633.251 370.576 633.443 370.771C633.539 370.871 633.678 371.015 633.773 371.115L641.085 377.974C650.756 386.894 661.912 399.254 671.462 407.658L691.041 425.87C692.546 427.264 693.609 428.454 695.081 429.928L721.776 455.871C723.684 457.466 724.317 457.765 726.139 459.607L772.219 504.627C777.783 509.264 782.04 514.792 787.562 519.652C794.169 525.468 800.357 532.267 807.102 537.903L826.372 556.422C829.109 559.192 831.381 561.435 834.132 564.185L857.414 586.117C862.7 590.769 867.367 596.644 872.757 601.142L876.651 604.67C878.148 606.152 879.679 607.264 880.201 609.219H999C998.382 607.512 996.036 605.925 994.444 604.328C987.034 596.896 966.421 577.541 961.486 571.153C957.45 565.929 850.305 458.91 847.632 456.24L563.794 169.846C543.199 149.262 522.215 129.101 502.019 108.128L430.819 36.2627C422.469 27.9176 398.865 0 390.825 0H390.491H388.225C382.866 0.0263301 380.172 0.418184 375.399 4.8215C364.56 14.8223 347.483 32.863 336.656 43.6847C331.646 48.692 269.097 110.219 267.853 112.547C266.031 115.959 267.3 150.874 267.3 157.87C267.3 188.455 267.3 219.04 267.3 249.625Z" fill="#A1DA19"/>
<path fill-rule="evenodd" clip-rule="evenodd" d="M191.053 854.795C187.867 852.839 186.291 853.22 184.224 850.111C181.238 845.619 182.463 824.509 182.463 817.014V161.244C182.463 153.371 182.489 145.495 182.458 137.624C182.415 126.189 183.708 127.228 191.018 122.788C175.495 122.788 159.972 122.788 144.45 122.788C122.599 122.788 125.463 122.941 119.333 144.91C117.726 150.667 115.369 157.031 113.484 162.676C103.689 191.999 82.2598 229.595 62.2505 252.473C60.4383 254.544 58.713 256.475 56.9876 258.682C52.7407 264.115 39.8513 277.949 33.9488 282.882C31.5914 284.851 30.1262 286.965 27.7767 288.856C18.6789 296.176 10.2858 302.879 0 308.32V435.155C5.67026 433.836 33.8558 413.857 39.6515 408.67L60.9185 389.448C74.7681 375.606 92.242 354.618 103.009 338.413C104.462 336.227 107.001 331.81 108.675 330.583V823.086C108.675 829.14 107.784 846.176 110.015 850.082C110.955 851.725 113.283 853.525 115.301 854.243C115.967 854.48 117.81 854.662 120.497 854.795H191.053Z" fill="#044A6E"/>
<path fill-rule="evenodd" clip-rule="evenodd" d="M191.053 854.795C199.594 854.795 208.135 854.795 216.675 854.795H229.773C232.978 854.377 235.557 853.195 237.737 850.209C241.134 845.555 239.625 833.937 239.625 826.459V152.473C239.625 145.35 240.984 132.335 238.016 127.769C233.831 121.334 227.194 122.788 217.35 122.788C208.573 122.788 199.796 122.788 191.018 122.788C183.708 127.228 182.415 126.189 182.458 137.624C182.489 145.495 182.463 153.371 182.463 161.244V817.014C182.463 824.509 181.238 845.62 184.224 850.111C186.291 853.22 187.867 852.839 191.053 854.795Z" fill="#A1DA19"/>
<path fill-rule="evenodd" clip-rule="evenodd" d="M270 389.279C270 397.863 268.748 402.773 272.026 402.773H318.6C318.6 381.238 320.165 363.742 330.78 345.457C340.608 328.53 353.883 313.583 371.697 304.718C398.254 291.503 428.02 291.229 454.516 304.706L468.745 314.098C477.797 321.185 485.524 329.536 491.539 339.215C508.042 365.767 513.226 405.418 499.95 434.931C497.168 441.119 493.421 448.945 489.752 454.423C481.326 467.001 468.7 478.399 455.404 485.534C450.192 488.33 444.478 490.771 438.618 492.369C423.262 496.553 419.538 495.876 404.325 495.876V638.904C404.325 640.428 410.333 646.948 412.425 648.349C416.158 647.353 419.104 642.164 421.362 639.739L435.549 623.56C446.453 611.327 462.728 589.755 472.789 576.45C484.906 560.431 496.339 543.341 507.057 526.366L524.802 495.527C527.723 490.106 530.427 485.074 533.029 479.461C541.807 460.53 555.526 425.097 555.526 405.471C555.526 387.286 556.345 372.086 550.725 354.273C546.823 341.907 546.947 341.38 541.742 328.844C537.114 317.702 523.335 296.608 514.188 287.568L501.009 275.103C494.942 269.685 482.202 261.526 474.976 257.943C470.702 255.825 467.937 254.651 463.335 252.713C454.86 249.143 445.976 246.556 436.637 244.99C419.424 242.102 405.937 241.602 388.965 245.066C376.835 247.543 360.231 252.172 349.78 258.526C345.875 260.898 342.531 262.444 338.714 265.004C325.226 274.051 327.486 273.806 318.991 280.373C311.264 286.347 300.501 300.662 294.968 308.988C286.351 321.955 277.355 342.444 274.098 358.293C272.148 367.789 270 378.058 270 389.279Z" fill="#044A6E"/>
<path fill-rule="evenodd" clip-rule="evenodd" d="M365.175 792.726C365.175 798.071 364.119 802.548 362.48 806.225C358.016 816.242 345.816 826.459 334.126 826.459C325.835 826.459 322.732 826.871 314.757 822.878C312.721 821.858 311.362 821.117 309.721 819.816C308.375 818.749 306.386 817.316 305.251 816.189C289.903 800.914 293.123 772.063 315.501 761.967C322.951 758.607 326.58 758.318 334.126 758.318V729.983H330.749C297.666 729.983 267.3 757.166 267.3 790.028C267.3 809.709 271.968 822.692 285.356 836.073C290.778 841.492 295.292 845.171 302.392 848.731C309.77 852.43 317.455 854.306 325.283 854.795H333.957C338.701 854.513 343.477 853.791 348.249 852.721C357.652 850.612 369.959 842.592 376.833 835.413C387.943 823.811 394.2 808.392 394.2 791.377V664.54H365.175V792.726Z" fill="#044A6E"/>
<path fill-rule="evenodd" clip-rule="evenodd" d="M616.275 755.62C616.275 743.59 635.445 736.892 640.668 752.829C642.937 759.756 644.138 761.746 647.326 767.763C642.01 767.763 630.441 768.393 625.859 767.63C620.939 766.81 616.275 761.668 616.275 755.62ZM587.925 753.596C587.925 767.763 590.64 774.77 600.237 784.467C614.255 798.633 629.327 796.099 648.675 796.099V770.463C650.908 772.097 665.746 796.099 693.224 796.099H768.15V716.489H739.125V767.763H694.574C681.992 767.763 673.778 758.142 669.682 748.118C665.285 737.356 663.551 730.088 651.258 722.003C622.647 703.188 587.925 726.137 587.925 753.596Z" fill="#044A6E"/>
<path fill-rule="evenodd" clip-rule="evenodd" d="M464.443 767.772C456.33 767.772 447.799 769.097 442.903 764.288C437.882 759.356 438.122 751.341 443.075 746.453C447.976 741.616 456.085 741.954 460.71 746.492C465.439 751.132 464.443 759.635 464.443 767.772ZM411.075 752.921C411.075 761.802 411.005 765.016 414.67 772.941C418.353 780.903 425.47 788.147 433.341 792.061C444.217 797.467 450.274 796.099 463.726 796.099C463.726 809.622 452.179 820.57 439.694 824.704C421.858 830.612 425.25 815.213 425.25 854.795C436.493 854.795 446.074 853.695 455.862 848.959C459.281 847.306 462.315 845.674 465.36 843.609C466.836 842.609 468.282 841.537 469.594 840.422C475.724 835.208 475.387 836.039 480.897 828.779C483.445 825.424 484.94 823.203 486.908 819.271C490.082 812.932 492.751 803.93 492.751 794.75V755.62C492.751 720.6 448.679 701.229 423.729 726.437C420.338 729.862 417.332 733.003 415.105 737.383C413.139 741.249 411.075 747.074 411.075 752.921Z" fill="#044A6E"/>
<path fill-rule="evenodd" clip-rule="evenodd" d="M885.686 742.802L885.583 744.825C900.62 744.825 917.4 744.113 932.196 744.805C942.225 745.274 956.655 755.419 959.175 764.89C960.049 765.773 959.655 765.186 960.377 766.518C960.685 767.088 960.766 767.537 960.914 768.268L855.901 768.284V796.099L983.479 796.102C991.377 796.164 989.995 796.835 990.994 794.75C989.856 778.462 992.497 768.792 985.84 753.954C976.445 733.011 955.261 717.931 931.529 716.661C919.184 716 897.911 715.727 885.758 716.686L885.686 742.802Z" fill="#A1DA19"/>
<path fill-rule="evenodd" clip-rule="evenodd" d="M887.404 681.281C887.404 686.519 887.313 690.001 891.631 693.924C897.241 699.023 905.855 697.472 915.754 697.472C915.754 688.331 917.18 678.968 911.875 673.688C906.403 668.24 898.243 667.685 892.306 672.686C890.371 674.314 887.404 678.087 887.404 681.281Z" fill="#044A6E"/>
<path fill-rule="evenodd" clip-rule="evenodd" d="M889.727 683.759C889.727 688.997 889.636 692.479 893.954 696.402C899.564 701.501 908.178 699.95 918.077 699.95C918.077 690.809 919.503 681.447 914.199 676.167C908.727 670.718 900.566 670.163 894.629 675.165C892.695 676.792 889.727 680.565 889.727 683.759Z" fill="#A1DA19"/>
<path fill-rule="evenodd" clip-rule="evenodd" d="M795.825 742.802C795.825 752.713 799.734 764.825 804.628 772.459C813.878 786.882 829.059 796.099 849.151 796.099V767.763C829.149 767.763 824.176 752.134 824.176 734.705V664.54H795.825V742.802Z" fill="#044A6E"/>
<path fill-rule="evenodd" clip-rule="evenodd" d="M519.75 796.099H548.101V664.54H519.75V796.099Z" fill="#044A6E"/>
<path fill-rule="evenodd" clip-rule="evenodd" d="M346.274 463.491H406.35V402.773H346.274V463.491Z" fill="#A1DA19"/>
<path fill-rule="evenodd" clip-rule="evenodd" d="M346.274 389.279H407.024V329.234C404.723 329.234 401.808 329.075 399.58 329.234C397.39 329.389 398.23 329.346 396.635 329.747C385.692 332.505 372.742 339.568 365.017 347.292C357.119 355.186 351.861 364.986 348.113 375.592C346.343 380.601 346.274 382.308 346.274 389.279Z" fill="#A1DA19"/>
<path fill-rule="evenodd" clip-rule="evenodd" d="M419.175 389.279H479.251C479.251 377.74 478.287 374.618 472.625 363.518C466.632 351.77 457.338 343.061 446.216 336.616L437.164 332.168C427.398 328.708 428.708 329.234 419.175 329.234V389.279Z" fill="#A1DA19"/>
<path fill-rule="evenodd" clip-rule="evenodd" d="M419.175 462.818C425.613 462.818 426.614 462.33 433.074 460.518C437.366 459.314 439.42 458.094 443.025 456.296C446.676 454.476 448.507 453.379 451.578 451.352C453.159 450.308 453.952 449.831 455.455 448.479C461.752 442.805 466.724 438.695 471.606 429.54C477.357 418.757 479.251 414.214 479.251 402.773H419.175V462.818Z" fill="#A1DA19"/>
<path fill-rule="evenodd" clip-rule="evenodd" d="M720.225 680.058C720.225 685.296 720.133 688.778 724.452 692.701C730.061 697.8 738.676 696.249 748.575 696.249C748.575 687.108 750.001 677.745 744.696 672.465C739.224 667.017 731.063 666.462 725.127 671.463C723.192 673.091 720.225 676.864 720.225 680.058Z" fill="#044A6E"/>
<path fill-rule="evenodd" clip-rule="evenodd" d="M885.686 742.802L885.757 716.686C897.911 715.727 919.184 716 931.528 716.661C955.261 717.931 976.444 733.011 985.84 753.954C992.496 768.792 989.856 778.463 990.994 794.75H993.601C993.601 776.729 994.625 764.495 988.668 751.779C978.503 730.088 954.851 714.409 930.151 714.465C913.952 714.502 897.75 714.467 881.551 714.467V742.802H885.686Z" fill="#044A6E"/>
<path fill-rule="evenodd" clip-rule="evenodd" d="M464.442 767.772C464.442 759.635 465.438 751.132 460.71 746.491C456.085 741.953 447.975 741.616 443.075 746.453C438.121 751.341 437.881 759.356 442.903 764.288C447.798 769.097 456.329 767.772 464.442 767.772Z" fill="#A1DA19"/>
<path fill-rule="evenodd" clip-rule="evenodd" d="M855.901 768.284L960.914 768.268C960.766 767.537 960.685 767.088 960.377 766.518C959.655 765.186 960.049 765.773 959.175 764.89C952.388 765.573 880.51 765.076 866.026 765.065C856.722 765.057 856.008 763.913 855.901 768.284Z" fill="#044A6E"/>
</svg>
