<svg width="144" height="96" viewBox="0 0 144 96" fill="none" xmlns="http://www.w3.org/2000/svg">
<rect x="0.75" y="0.75" width="142.5" height="94.5" rx="9.25" fill="white" stroke="url(#paint0_linear_15_63134)" stroke-width="1.5"/>
<path d="M49.2488 66.1534H40.7981V62.7297H42.77C45.3585 62.7297 47.4648 60.1407 47.4648 56.959C47.4648 55.0846 46.7339 53.3719 45.5155 52.298C45.6252 51.9435 45.6808 51.5695 45.6808 51.1882C45.6808 49.734 44.8898 48.494 43.7555 48.0388V47.0915C43.7555 44.7684 42.2178 42.8784 40.3279 42.8784C38.4379 42.8784 36.9003 44.7684 36.9003 47.0915V48.0388C36.7966 48.0803 36.6997 48.1348 36.6028 48.1893V36.0144L28.5885 28L28.1754 28.2161C28.1731 28.2161 28.1716 28.217 28.1701 28.2179L13.5666 35.8427V66.1534H10.7512C10.3358 66.1534 10 66.567 10 67.0767C10 67.5864 10.3358 68 10.7512 68H13.5673H36.6036H49.2488C49.6642 68 50 67.5864 50 67.0767C50 66.567 49.6642 66.1534 49.2488 66.1534ZM37.7183 49.7072L38.4034 49.6334V47.0915C38.4034 45.7868 39.2665 44.725 40.3286 44.725C41.3908 44.725 42.2539 45.7859 42.2539 47.0915V49.6334L42.939 49.7072C43.6458 49.7839 44.1784 50.42 44.1784 51.1882C44.1784 51.5723 44.0372 51.8687 43.9193 52.0506L43.3371 52.9471L44.1739 53.455C45.2774 54.1253 45.9624 55.4678 45.9624 56.959C45.9624 59.1223 44.5307 60.8831 42.77 60.8831H40.7981V57.6828L42.3147 56.8842C42.6963 56.6838 42.8729 56.1409 42.7091 55.6719C42.5461 55.2028 42.1014 54.9868 41.7228 55.1871L40.551 55.8039L39.8336 52.4532C39.7277 51.9601 39.3183 51.6674 38.9157 51.7948C38.5146 51.925 38.2749 52.4301 38.3808 52.9231L39.295 57.1926V60.8831H37.3239C35.5632 60.8831 34.1315 59.1223 34.1315 56.959C34.1315 55.3071 34.9923 53.8261 36.2723 53.274L37.1617 52.8908L36.6599 51.9112C36.5405 51.6776 36.4796 51.4347 36.4796 51.1882C36.4789 50.42 37.0115 49.7829 37.7183 49.7072ZM27.7149 47.3389L15.0697 50.95V47.5974L27.7149 42.7491V47.3389ZM15.0697 52.8447L27.7149 49.2336V53.1484L15.0697 55.9682V52.8447ZM27.7149 40.8147L15.0697 45.6631V42.1563L27.7149 36.9045V40.8147ZM15.0697 57.8453L27.7149 55.0255V58.9459L15.0697 60.7686V57.8453ZM27.7149 30.4625V34.9609C27.7074 34.9637 27.7007 34.9609 27.6939 34.9637L15.0697 40.2072V37.0651L27.7149 30.4625ZM15.0697 62.6281L27.7149 60.8055V66.1534H15.0697V62.6281ZM29.2173 66.1534V31.0091L35.1012 36.8934V50.227C35.0231 50.5327 34.9765 50.854 34.9765 51.1891C34.9765 51.4384 35.0013 51.6877 35.0516 51.9315C33.5763 52.9351 32.6291 54.8529 32.6291 56.9599C32.6291 59.1537 33.6312 61.065 35.1012 62.0409V66.1543L29.2173 66.1534ZM36.6036 62.654C36.8387 62.6992 37.0783 62.7297 37.3239 62.7297H39.2958V66.1534H36.6036V62.654Z" fill="#303030"/>
<path d="M73.5824 35.193C73.6067 35.2377 73.6473 35.3168 73.7041 35.4304C73.765 35.5441 73.8319 35.6841 73.905 35.8504C73.978 36.0168 74.0531 36.2035 74.1302 36.4104C74.2114 36.6174 74.2844 36.8345 74.3493 37.0617C74.4143 37.289 74.467 37.5243 74.5076 37.7678C74.5522 38.0072 74.5745 38.2426 74.5745 38.4739C74.5705 38.8472 74.5137 39.1983 74.4041 39.527C74.2986 39.8516 74.1403 40.1357 73.9293 40.3791C73.7224 40.6226 73.4667 40.8154 73.1624 40.9574C72.858 41.0954 72.505 41.1643 72.1032 41.1643C71.9085 41.1643 71.734 41.142 71.5798 41.0974C71.4256 41.0568 71.2876 40.998 71.1658 40.9209C71.0441 40.8438 70.9366 40.7545 70.8432 40.653C70.754 40.5516 70.6748 40.44 70.6058 40.3183C70.5166 40.4441 70.4253 40.5597 70.3319 40.6652C70.2386 40.7707 70.127 40.862 69.9972 40.9391C69.8714 41.0122 69.7192 41.069 69.5406 41.1096C69.3621 41.1501 69.145 41.1704 68.8893 41.1704C68.658 41.1704 68.4551 41.1481 68.2806 41.1035C68.1061 41.0588 67.9601 41.0081 67.8424 40.9513C67.8667 41.4383 67.818 41.8806 67.6963 42.2783C67.5786 42.68 67.4041 43.0371 67.1728 43.3496C66.9456 43.662 66.6737 43.9339 66.3572 44.1652C66.0447 44.4006 65.7018 44.5933 65.3285 44.7435C64.9592 44.8936 64.5716 45.0052 64.1658 45.0783C63.7641 45.1554 63.3624 45.1939 62.9606 45.1939C62.3641 45.1939 61.8143 45.0945 61.3111 44.8957C60.8079 44.7009 60.3716 44.4249 60.0024 44.0678C59.6372 43.7148 59.3511 43.2887 59.1441 42.7896C58.9372 42.2945 58.8337 41.7446 58.8337 41.14C58.8458 40.787 58.8905 40.4299 58.9676 40.0687C59.0487 39.7035 59.1502 39.3504 59.2719 39.0096C59.3937 38.6687 59.5316 38.3461 59.6858 38.0417C59.8401 37.7374 59.9963 37.4655 60.1545 37.2261L61.4145 38.1574C61.2725 38.3846 61.1345 38.62 61.0006 38.8635C60.8708 39.107 60.7551 39.3565 60.6537 39.6122C60.5522 39.8638 60.469 40.1214 60.4041 40.3852C60.3432 40.649 60.3128 40.9148 60.3128 41.1826C60.3006 41.5194 60.3554 41.8339 60.4772 42.1261C60.5989 42.4223 60.7754 42.68 61.0067 42.8991C61.2421 43.1223 61.5221 43.2968 61.8467 43.4226C62.1754 43.5525 62.5386 43.6174 62.9363 43.6174C63.3745 43.6174 63.7702 43.5768 64.1232 43.4957C64.4803 43.4145 64.7908 43.2988 65.0545 43.1487C65.3183 42.9986 65.5395 42.82 65.718 42.613C65.8966 42.4101 66.0285 42.1829 66.1137 41.9313C66.2273 41.5539 66.2801 41.1806 66.2719 40.8113C66.2638 40.442 66.2131 40.0728 66.1198 39.7035C66.0305 39.3342 65.9087 38.967 65.7545 38.6017C65.6003 38.2365 65.436 37.8713 65.2615 37.5061L66.6311 36.6661C66.6879 36.8122 66.7548 36.9907 66.8319 37.2017C66.909 37.4128 66.9963 37.6319 67.0937 37.8591C67.1951 38.0864 67.3047 38.3116 67.4224 38.5348C67.5441 38.758 67.676 38.9548 67.818 39.1252C67.9601 39.2916 68.1143 39.4194 68.2806 39.5087C68.447 39.598 68.6276 39.6243 68.8224 39.5878C69.0253 39.5838 69.1856 39.533 69.3032 39.4357C69.425 39.3383 69.5183 39.2125 69.5832 39.0583C69.6482 38.9 69.6887 38.7214 69.705 38.5226C69.7253 38.3197 69.7354 38.1107 69.7354 37.8957L69.705 36.867L71.1963 36.7148C71.2044 36.8122 71.2105 36.9055 71.2145 36.9948C71.2186 37.0719 71.2206 37.151 71.2206 37.2322C71.2247 37.3133 71.2287 37.3803 71.2328 37.433C71.2369 37.5264 71.247 37.6461 71.2632 37.7922C71.2795 37.9383 71.3038 38.0925 71.3363 38.2548C71.3687 38.4171 71.4093 38.5814 71.458 38.7478C71.5067 38.9142 71.5676 39.0643 71.6406 39.1983C71.7137 39.3281 71.7969 39.4357 71.8902 39.5209C71.9876 39.602 72.0992 39.6426 72.225 39.6426C72.5415 39.6426 72.7748 39.5371 72.925 39.3261C73.0751 39.111 73.1502 38.8006 73.1502 38.3948C73.1502 38.2406 73.1238 38.0701 73.0711 37.8835C73.0224 37.6928 72.9534 37.4919 72.8641 37.2809C72.7789 37.0699 72.6774 36.8507 72.5598 36.6235C72.4461 36.3922 72.3244 36.1588 72.1945 35.9235L73.5824 35.193ZM69.9119 34.0365L68.8772 35.0713L67.8302 34.0304L68.865 32.9896L69.9119 34.0365ZM72.2128 34.0426L71.178 35.0835L70.1311 34.0365L71.1658 33.0017L72.2128 34.0426ZM69.0719 32.2774L70.0215 31.3278L70.9772 32.2835L70.0276 33.233L69.0719 32.2774ZM77.9275 37.2261C77.822 37.2261 77.7083 37.2707 77.5866 37.36C77.4648 37.4493 77.3533 37.5649 77.2518 37.707C77.1504 37.8449 77.0651 37.9991 76.9962 38.1696C76.9312 38.34 76.8988 38.5064 76.8988 38.6687C76.8988 38.8391 76.9373 38.9812 77.0144 39.0948C77.0956 39.2043 77.197 39.2936 77.3188 39.3626C77.4446 39.4316 77.5846 39.4843 77.7388 39.5209C77.897 39.5533 78.0533 39.5777 78.2075 39.5939C78.2927 39.598 78.386 39.602 78.4875 39.6061C78.5889 39.6101 78.6924 39.6122 78.7979 39.6122C78.9075 39.6122 79.015 39.6122 79.1205 39.6122C79.226 39.6122 79.3254 39.6081 79.4188 39.6C79.3985 39.3728 79.3559 39.1577 79.2909 38.9548C79.226 38.7519 79.1489 38.5632 79.0596 38.3887C78.9744 38.2142 78.8791 38.058 78.7735 37.92C78.6721 37.778 78.5767 37.6562 78.4875 37.5548V37.5609C78.4185 37.4878 78.3333 37.4148 78.2318 37.3417C78.1344 37.2646 78.033 37.2261 77.9275 37.2261ZM75.164 43.9217C75.7605 43.8041 76.2982 43.6458 76.777 43.447C77.2599 43.2522 77.6779 43.033 78.0309 42.7896C78.384 42.5461 78.6701 42.2864 78.8892 42.0104C79.1124 41.7345 79.2605 41.4586 79.3335 41.1826C79.2321 41.1826 79.1266 41.1826 79.017 41.1826C78.9075 41.1826 78.7979 41.1806 78.6883 41.1765C78.5788 41.1725 78.4733 41.1684 78.3718 41.1643C78.2704 41.1643 78.1811 41.1603 78.104 41.1522C77.6535 41.1197 77.2477 41.0243 76.8866 40.8661C76.5254 40.7078 76.2353 40.4928 76.0162 40.2209C75.862 40.0261 75.7504 39.809 75.6814 39.5696C75.6164 39.3301 75.584 39.0786 75.584 38.8148C75.584 38.6078 75.6022 38.3988 75.6388 38.1878C75.6793 37.9768 75.7341 37.7719 75.8031 37.573C75.8762 37.3701 75.9593 37.1794 76.0527 37.0009C76.146 36.8223 76.2475 36.66 76.357 36.5139C76.5762 36.2339 76.8196 36.0229 77.0875 35.8809C77.3553 35.7348 77.6353 35.6617 77.9275 35.6617C78.5564 35.6617 79.1306 35.9417 79.6501 36.5017C79.8367 36.7087 80.0031 36.9441 80.1492 37.2078C80.2993 37.4675 80.4251 37.7475 80.5266 38.0478C80.6321 38.3441 80.7112 38.6545 80.764 38.9791C80.8208 39.3038 80.8492 39.6325 80.8492 39.9652C80.8492 40.0667 80.8451 40.1681 80.837 40.2696C80.833 40.371 80.8269 40.4684 80.8188 40.5617C80.7457 41.2516 80.555 41.8745 80.2466 42.4304C79.9382 42.9864 79.5446 43.4693 79.0657 43.8791C78.5909 44.293 78.0492 44.6319 77.4405 44.8957C76.8359 45.1594 76.1988 45.342 75.5292 45.4435L75.164 43.9217ZM86.1885 41.1826C86.1398 41.1826 86.0769 41.1806 85.9998 41.1765C85.9227 41.1765 85.8375 41.1684 85.7442 41.1522C85.6549 41.1359 85.5575 41.1096 85.452 41.073C85.3465 41.0406 85.243 40.9919 85.1415 40.927C85.0888 41.4383 84.9326 41.9272 84.6729 42.3939C84.4172 42.8646 84.0926 43.3049 83.6989 43.7148C83.3053 44.1246 82.863 44.5 82.372 44.8409C81.885 45.1817 81.3839 45.48 80.8685 45.7357L80.1868 44.3296C80.4708 44.1835 80.7569 44.0252 81.045 43.8548C81.3291 43.6843 81.601 43.5017 81.8607 43.307C82.1204 43.1162 82.3618 42.9133 82.585 42.6983C82.8123 42.4832 83.0071 42.26 83.1694 42.0287C83.3358 41.8014 83.4656 41.5661 83.5589 41.3226C83.6563 41.0791 83.705 40.8296 83.705 40.5739C83.705 40.5414 83.703 40.509 83.6989 40.4765C83.6989 40.44 83.6969 40.4055 83.6929 40.373V40.3791C83.6644 40.1519 83.6158 39.9226 83.5468 39.6913C83.4818 39.4559 83.4108 39.2287 83.3337 39.0096C83.2566 38.7904 83.1795 38.5814 83.1024 38.3826C83.0253 38.1797 82.9604 37.9971 82.9076 37.8348L84.3685 37.2261C84.5268 37.7009 84.6749 38.0945 84.8129 38.407C84.9549 38.7154 85.0969 38.9609 85.2389 39.1435C85.381 39.322 85.525 39.4478 85.6711 39.5209C85.8213 39.5899 85.9856 39.6243 86.1642 39.6243H86.1946C86.3042 39.6243 86.4056 39.6467 86.4989 39.6913C86.5963 39.7319 86.6795 39.7887 86.7485 39.8617C86.8215 39.9307 86.8784 40.0139 86.9189 40.1113C86.9595 40.2046 86.9798 40.3041 86.9798 40.4096C86.9798 40.5191 86.9595 40.6206 86.9189 40.7139C86.8784 40.8072 86.8215 40.8904 86.7485 40.9635C86.6795 41.0325 86.5963 41.0852 86.4989 41.1217C86.4015 41.1623 86.2981 41.1826 86.1885 41.1826ZM85.3384 40.4035C85.3384 40.2939 85.3586 40.1925 85.3992 40.0991C85.4398 40.0017 85.4966 39.9186 85.5697 39.8496C85.6427 39.7806 85.7279 39.7258 85.8253 39.6852C85.9186 39.6446 86.0201 39.6243 86.1297 39.6243C86.5192 39.6243 86.9068 39.6081 87.2923 39.5757C87.6818 39.5432 88.043 39.5006 88.3757 39.4478C88.7126 39.3951 89.0088 39.3362 89.2644 39.2713C89.5201 39.2023 89.7108 39.1333 89.8366 39.0643H89.2157C88.9844 39.0643 88.7572 39.0461 88.534 39.0096C88.3149 38.969 88.1079 38.9122 87.9131 38.8391C87.7184 38.762 87.5398 38.6687 87.3775 38.5591C87.2152 38.4455 87.0772 38.3157 86.9636 38.1696C86.8621 38.0397 86.7668 37.8693 86.6775 37.6583C86.5923 37.4472 86.5497 37.1855 86.5497 36.873C86.5497 36.7107 86.5618 36.5504 86.5862 36.3922C86.643 36.0635 86.7282 35.7632 86.8418 35.4913C86.9595 35.2154 87.1036 34.9719 87.274 34.7609V34.767C87.4769 34.5032 87.7021 34.3043 87.9497 34.1704C88.2012 34.0365 88.465 33.9696 88.741 33.9696C89.021 33.9696 89.2989 34.0406 89.5749 34.1826C89.8549 34.3246 90.1085 34.5113 90.3357 34.7426C90.5021 34.9333 90.6523 35.1504 90.7862 35.3939C90.9201 35.6333 91.0337 35.891 91.127 36.167C91.2244 36.4388 91.2995 36.7229 91.3523 37.0191C91.405 37.3154 91.4314 37.6116 91.4314 37.9078C91.4314 37.993 91.4294 38.0803 91.4253 38.1696C91.4212 38.2588 91.4152 38.3441 91.407 38.4252C91.3624 38.8188 91.2589 39.1617 91.0966 39.4539C90.9384 39.742 90.7355 39.9875 90.4879 40.1904C90.2404 40.3933 89.9543 40.5597 89.6297 40.6896C89.3091 40.8154 88.9641 40.9148 88.5949 40.9878C88.2256 41.0609 87.8401 41.1096 87.4384 41.1339C87.0366 41.1623 86.6308 41.1786 86.221 41.1826H86.1175C86.0079 41.1826 85.9065 41.1623 85.8131 41.1217C85.7198 41.0812 85.6386 41.0264 85.5697 40.9574C85.4966 40.8843 85.4398 40.8012 85.3992 40.7078C85.3586 40.6145 85.3384 40.513 85.3384 40.4035ZM88.741 35.54C88.6679 35.5359 88.5868 35.5583 88.4975 35.607C88.4082 35.6557 88.321 35.7246 88.2357 35.8139C88.1505 35.8991 88.0714 35.9986 87.9984 36.1122C87.9253 36.2258 87.8685 36.3455 87.8279 36.4713C87.7914 36.593 87.7731 36.7188 87.7731 36.8487C87.7772 36.9745 87.8117 37.0922 87.8766 37.2017C87.901 37.2464 87.9537 37.287 88.0349 37.3235C88.1201 37.3559 88.2175 37.3864 88.327 37.4148C88.4366 37.4391 88.5502 37.4594 88.6679 37.4757C88.7856 37.4919 88.8931 37.502 88.9905 37.5061C89.1528 37.5142 89.3233 37.5162 89.5018 37.5122C89.6844 37.5081 89.8386 37.502 89.9644 37.4939C89.9279 37.3478 89.8772 37.1672 89.8123 36.9522C89.7473 36.733 89.6641 36.522 89.5627 36.3191C89.4612 36.1122 89.3415 35.9336 89.2036 35.7835C89.0697 35.6333 88.9155 35.5522 88.741 35.54ZM89.7149 32.0522L88.5523 33.2148L87.3836 32.0461L88.5462 30.8835L89.7149 32.0522ZM98.7361 37.2261C98.6305 37.2261 98.5169 37.2707 98.3952 37.36C98.2734 37.4493 98.1618 37.5649 98.0604 37.707C97.9589 37.8449 97.8737 37.9991 97.8047 38.1696C97.7398 38.34 97.7074 38.5064 97.7074 38.6687C97.7074 38.8391 97.7459 38.9812 97.823 39.0948C97.9042 39.2043 98.0056 39.2936 98.1274 39.3626C98.2532 39.4316 98.3932 39.4843 98.5474 39.5209C98.7056 39.5533 98.8618 39.5777 99.0161 39.5939C99.1013 39.598 99.1946 39.602 99.2961 39.6061C99.3975 39.6101 99.501 39.6122 99.6065 39.6122C99.7161 39.6122 99.8236 39.6122 99.9291 39.6122C100.035 39.6122 100.134 39.6081 100.227 39.6C100.207 39.3728 100.164 39.1577 100.1 38.9548C100.035 38.7519 99.9575 38.5632 99.8682 38.3887C99.783 38.2142 99.6876 38.058 99.5821 37.92C99.4807 37.778 99.3853 37.6562 99.2961 37.5548V37.5609C99.2271 37.4878 99.1418 37.4148 99.0404 37.3417C98.943 37.2646 98.8416 37.2261 98.7361 37.2261ZM95.9726 43.9217C96.5691 43.8041 97.1068 43.6458 97.5856 43.447C98.0685 43.2522 98.4865 43.033 98.8395 42.7896C99.1926 42.5461 99.4787 42.2864 99.6978 42.0104C99.921 41.7345 100.069 41.4586 100.142 41.1826C100.041 41.1826 99.9352 41.1826 99.8256 41.1826C99.7161 41.1826 99.6065 41.1806 99.4969 41.1765C99.3874 41.1725 99.2818 41.1684 99.1804 41.1643C99.0789 41.1643 98.9897 41.1603 98.9126 41.1522C98.4621 41.1197 98.0563 41.0243 97.6952 40.8661C97.334 40.7078 97.0439 40.4928 96.8247 40.2209C96.6705 40.0261 96.5589 39.809 96.49 39.5696C96.425 39.3301 96.3926 39.0786 96.3926 38.8148C96.3926 38.6078 96.4108 38.3988 96.4474 38.1878C96.4879 37.9768 96.5427 37.7719 96.6117 37.573C96.6847 37.3701 96.7679 37.1794 96.8613 37.0009C96.9546 36.8223 97.0561 36.66 97.1656 36.5139C97.3847 36.2339 97.6282 36.0229 97.8961 35.8809C98.1639 35.7348 98.4439 35.6617 98.7361 35.6617C99.365 35.6617 99.9392 35.9417 100.459 36.5017C100.645 36.7087 100.812 36.9441 100.958 37.2078C101.108 37.4675 101.234 37.7475 101.335 38.0478C101.441 38.3441 101.52 38.6545 101.573 38.9791C101.629 39.3038 101.658 39.6325 101.658 39.9652C101.658 40.0667 101.654 40.1681 101.646 40.2696C101.642 40.371 101.635 40.4684 101.627 40.5617C101.554 41.2516 101.364 41.8745 101.055 42.4304C100.747 42.9864 100.353 43.4693 99.8743 43.8791C99.3995 44.293 98.8578 44.6319 98.2491 44.8957C97.6445 45.1594 97.0074 45.342 96.3378 45.4435L95.9726 43.9217ZM109.092 41.1826C108.589 41.1826 108.11 41.069 107.655 40.8417C107.205 40.6145 106.785 40.298 106.395 39.8922L107.29 38.6322C107.659 38.969 108.004 39.2145 108.325 39.3687C108.645 39.5229 108.952 39.6 109.244 39.6C109.313 39.6 109.39 39.598 109.475 39.5939C109.56 39.5858 109.648 39.5757 109.737 39.5635C109.826 39.5472 109.911 39.529 109.993 39.5087C110.078 39.4884 110.153 39.4661 110.218 39.4417C110.291 39.4133 110.366 39.3829 110.443 39.3504C110.524 39.318 110.599 39.2855 110.668 39.253C110.741 39.2165 110.806 39.182 110.863 39.1496C110.92 39.1171 110.967 39.0867 111.003 39.0583L109.061 34.3713L110.504 33.7687C110.646 34.1217 110.814 34.5316 111.009 34.9983C111.176 35.4 111.376 35.889 111.612 36.4652C111.851 37.0414 112.127 37.7009 112.44 38.4435L112.537 38.6809C112.59 38.8188 112.645 38.9467 112.701 39.0643C112.758 39.178 112.829 39.2774 112.914 39.3626C113.004 39.4438 113.115 39.5087 113.249 39.5574C113.387 39.602 113.562 39.6243 113.773 39.6243C113.878 39.6243 113.978 39.6446 114.071 39.6852C114.168 39.7258 114.251 39.7806 114.32 39.8496C114.393 39.9186 114.45 40.0017 114.491 40.0991C114.536 40.1925 114.558 40.2939 114.558 40.4035C114.558 40.513 114.536 40.6165 114.491 40.7139C114.45 40.8072 114.393 40.8884 114.32 40.9574C114.251 41.0264 114.168 41.0812 114.071 41.1217C113.978 41.1623 113.878 41.1826 113.773 41.1826C113.517 41.1826 113.288 41.1623 113.085 41.1217C112.882 41.0852 112.699 41.0345 112.537 40.9696C112.379 40.9006 112.237 40.8214 112.111 40.7322C111.989 40.6388 111.88 40.5394 111.782 40.4339C111.665 40.5151 111.514 40.5983 111.332 40.6835C111.149 40.7646 110.971 40.8397 110.796 40.9087C110.561 41.002 110.299 41.071 110.011 41.1157C109.723 41.1603 109.416 41.1826 109.092 41.1826ZM115.946 43.1L114.911 44.1348L113.864 43.0939L114.899 42.053L115.946 43.1ZM118.247 43.1061L117.212 44.147L116.165 43.1L117.2 42.0652L118.247 43.1061ZM112.677 40.4035C112.677 40.2939 112.697 40.1925 112.738 40.0991C112.778 40.0017 112.835 39.9186 112.908 39.8496C112.977 39.7806 113.058 39.7258 113.152 39.6852C113.245 39.6446 113.347 39.6243 113.456 39.6243H114.132H114.424C114.623 39.6243 114.834 39.6183 115.057 39.6061C115.28 39.5899 115.493 39.5614 115.696 39.5209C115.903 39.4762 116.09 39.4174 116.256 39.3443C116.423 39.2672 116.546 39.1699 116.627 39.0522C116.688 38.9629 116.719 38.8432 116.719 38.693C116.723 38.5429 116.703 38.3786 116.658 38.2C116.617 38.0214 116.561 37.8348 116.487 37.64C116.418 37.4412 116.343 37.2504 116.262 37.0678C116.181 36.8812 116.1 36.7067 116.019 36.5443C115.942 36.378 115.877 36.238 115.824 36.1243L117.242 35.4243C117.352 35.6191 117.459 35.8545 117.565 36.1304C117.674 36.4023 117.77 36.6843 117.851 36.9765C117.932 37.2687 117.997 37.5568 118.046 37.8409C118.098 38.1249 118.125 38.3765 118.125 38.5957C118.125 38.9893 118.058 39.3403 117.924 39.6487C117.77 40.0058 117.553 40.3 117.273 40.5313C116.993 40.7586 116.66 40.929 116.274 41.0426C116.157 41.0751 116.009 41.0994 115.83 41.1157C115.656 41.1359 115.477 41.1501 115.294 41.1583C115.112 41.1704 114.937 41.1765 114.771 41.1765C114.609 41.1806 114.483 41.1826 114.394 41.1826H113.511H113.456C113.347 41.1826 113.245 41.1623 113.152 41.1217C113.058 41.0812 112.977 41.0264 112.908 40.9574C112.835 40.8884 112.778 40.8072 112.738 40.7139C112.697 40.6165 112.677 40.513 112.677 40.4035ZM124.183 41.1826C124.134 41.1826 124.071 41.1806 123.994 41.1765C123.917 41.1765 123.832 41.1684 123.738 41.1522C123.649 41.1359 123.552 41.1096 123.446 41.073C123.341 41.0406 123.237 40.9919 123.136 40.927C123.083 41.4383 122.927 41.9272 122.667 42.3939C122.411 42.8646 122.087 43.3049 121.693 43.7148C121.299 44.1246 120.857 44.5 120.366 44.8409C119.879 45.1817 119.378 45.48 118.863 45.7357L118.181 44.3296C118.465 44.1835 118.751 44.0252 119.039 43.8548C119.323 43.6843 119.595 43.5017 119.855 43.307C120.115 43.1162 120.356 42.9133 120.579 42.6983C120.806 42.4832 121.001 42.26 121.164 42.0287C121.33 41.8014 121.46 41.5661 121.553 41.3226C121.65 41.0791 121.699 40.8296 121.699 40.5739C121.699 40.5414 121.697 40.509 121.693 40.4765C121.693 40.44 121.691 40.4055 121.687 40.373V40.3791C121.659 40.1519 121.61 39.9226 121.541 39.6913C121.476 39.4559 121.405 39.2287 121.328 39.0096C121.251 38.7904 121.174 38.5814 121.097 38.3826C121.019 38.1797 120.955 37.9971 120.902 37.8348L122.363 37.2261C122.521 37.7009 122.669 38.0945 122.807 38.407C122.949 38.7154 123.091 38.9609 123.233 39.1435C123.375 39.322 123.519 39.4478 123.665 39.5209C123.815 39.5899 123.98 39.6243 124.158 39.6243H124.189C124.298 39.6243 124.4 39.6467 124.493 39.6913C124.59 39.7319 124.674 39.7887 124.743 39.8617C124.816 39.9307 124.872 40.0139 124.913 40.1113C124.954 40.2046 124.974 40.3041 124.974 40.4096C124.974 40.5191 124.954 40.6206 124.913 40.7139C124.872 40.8072 124.816 40.8904 124.743 40.9635C124.674 41.0325 124.59 41.0852 124.493 41.1217C124.396 41.1623 124.292 41.1826 124.183 41.1826ZM123.332 40.4035C123.332 40.2939 123.353 40.1925 123.393 40.0991C123.434 40.0017 123.491 39.9186 123.564 39.8496C123.637 39.7806 123.722 39.7258 123.819 39.6852C123.913 39.6446 124.014 39.6243 124.124 39.6243H125.329C125.832 39.6243 126.344 39.5777 126.863 39.4843C127.386 39.387 127.906 39.2612 128.421 39.107C128.937 38.9487 129.44 38.7681 129.931 38.5652C130.422 38.3623 130.886 38.1533 131.325 37.9383C130.976 37.8612 130.651 37.7597 130.351 37.6339C130.05 37.5041 129.766 37.3783 129.499 37.2565C129.231 37.1348 128.973 37.0293 128.726 36.94C128.478 36.8507 128.232 36.8061 127.989 36.8061C127.847 36.8061 127.713 36.8325 127.587 36.8852C127.466 36.9339 127.352 36.9968 127.246 37.0739C127.141 37.151 127.046 37.2362 126.96 37.3296C126.879 37.4229 126.806 37.5142 126.741 37.6035C126.68 37.6887 126.63 37.7658 126.589 37.8348C126.548 37.9038 126.52 37.9525 126.504 37.9809L125.238 37.1591C125.376 36.9157 125.54 36.6803 125.731 36.453C125.921 36.2217 126.132 36.0168 126.364 35.8383C126.599 35.6557 126.853 35.5116 127.125 35.4061C127.397 35.2965 127.685 35.2417 127.989 35.2417C128.301 35.2417 128.612 35.2843 128.92 35.3696C129.229 35.4507 129.533 35.5542 129.833 35.68C130.138 35.8058 130.442 35.9438 130.746 36.0939C131.051 36.24 131.357 36.378 131.666 36.5078C131.978 36.6336 132.292 36.7412 132.609 36.8304C132.926 36.9157 133.25 36.9603 133.583 36.9643L133.455 38.5348C132.887 38.8067 132.295 39.0948 131.678 39.3991C131.061 39.7035 130.416 39.9855 129.742 40.2452C129.068 40.5049 128.364 40.722 127.63 40.8965C126.895 41.071 126.128 41.1664 125.329 41.1826H124.172H124.124C124.014 41.1826 123.913 41.1623 123.819 41.1217C123.722 41.0812 123.637 41.0264 123.564 40.9574C123.491 40.8843 123.434 40.8012 123.393 40.7078C123.353 40.6145 123.332 40.513 123.332 40.4035ZM128.896 33.1783L127.733 34.3409L126.565 33.1722L127.727 32.0096L128.896 33.1783ZM73.2755 68.3704C72.6627 68.342 72.119 68.2548 71.6442 68.1087C71.1735 67.9626 70.7596 67.7313 70.4025 67.4148C70.1833 67.22 69.9926 67.0049 69.8303 66.7696C69.672 66.5342 69.5381 66.2846 69.4285 66.0209C69.323 65.7571 69.2439 65.4812 69.1912 65.193C69.1425 64.909 69.1181 64.6168 69.1181 64.3165C69.1181 63.6754 69.2135 63.0362 69.4042 62.3991C69.5949 61.762 69.877 61.1614 70.2503 60.5974L71.4494 61.4678C71.3764 61.5693 71.2851 61.7194 71.1755 61.9183C71.07 62.1171 70.9665 62.3464 70.8651 62.6061C70.7677 62.8658 70.6845 63.1458 70.6155 63.4461C70.5465 63.7464 70.512 64.0487 70.512 64.353C70.512 64.7142 70.5871 65.0429 70.7372 65.3391C70.8914 65.6354 71.0984 65.889 71.3581 66.1C71.6178 66.3151 71.9181 66.4814 72.259 66.5991C72.6039 66.7209 72.9671 66.7858 73.3485 66.7939C73.803 66.802 74.2332 66.7391 74.639 66.6052C75.0488 66.4754 75.4039 66.2928 75.7042 66.0574C76.0045 65.822 76.2398 65.5441 76.4103 65.2235C76.5807 64.9029 76.6578 64.5559 76.6416 64.1826C76.6335 63.9959 76.601 63.789 76.5442 63.5617C76.4914 63.3304 76.4265 63.0971 76.3494 62.8617C76.2723 62.6264 76.1891 62.3971 76.0998 62.1739C76.0146 61.9467 75.9335 61.7458 75.8564 61.5713C75.7793 61.3968 75.7143 61.2568 75.6616 61.1513C75.6088 61.0458 75.5804 60.993 75.5764 60.993L77.0068 60.1957C77.019 60.2119 77.0514 60.2788 77.1042 60.3965C77.157 60.5142 77.2198 60.6684 77.2929 60.8591C77.3659 61.0499 77.4451 61.269 77.5303 61.5165C77.6155 61.7641 77.6946 62.0238 77.7677 62.2957C77.8448 62.5675 77.9097 62.8455 77.9625 63.1296C78.0193 63.4096 78.0538 63.6814 78.0659 63.9452C78.0862 64.3145 78.0598 64.6838 77.9868 65.053C77.9138 65.4264 77.7941 65.7794 77.6277 66.1122C77.4613 66.449 77.2462 66.7614 76.9825 67.0496C76.7227 67.3377 76.4123 67.5832 76.0512 67.7861C75.6941 67.993 75.2842 68.1493 74.8216 68.2548C74.359 68.3603 73.8436 68.3988 73.2755 68.3704ZM74.7972 60.0983L73.6346 61.2609L72.4659 60.0922L73.6285 58.9296L74.7972 60.0983ZM82.1532 64.1826C81.6825 64.1826 81.2787 64.1238 80.9419 64.0061C80.6051 63.8925 80.3149 63.718 80.0715 63.4826C79.9254 63.3365 79.8118 63.1803 79.7306 63.0139C79.6535 62.8435 79.5967 62.6791 79.5602 62.5209C79.5236 62.3586 79.5013 62.2064 79.4932 62.0643C79.4892 61.9183 79.4871 61.7925 79.4871 61.687C79.4912 61.5571 79.4952 61.342 79.4993 61.0417C79.5074 60.7414 79.5115 60.3783 79.5115 59.9522C79.5115 59.6965 79.5094 59.4246 79.5054 59.1365C79.5054 58.8443 79.5034 58.5481 79.4993 58.2478C79.4952 57.9475 79.4871 57.6472 79.4749 57.347C79.4668 57.0426 79.4526 56.7504 79.4323 56.4704C79.4161 56.1904 79.3938 55.9287 79.3654 55.6852C79.341 55.4377 79.3106 55.2186 79.2741 55.0278L80.8019 54.5713C80.8465 54.8067 80.8851 55.0907 80.9176 55.4235C80.95 55.7562 80.9764 56.1113 80.9967 56.4887C81.017 56.862 81.0332 57.2455 81.0454 57.6391C81.0576 58.0287 81.0636 58.4 81.0636 58.753C81.0636 58.8586 81.0636 58.9701 81.0636 59.0878C81.0677 59.2055 81.0697 59.3232 81.0697 59.4409C81.0738 59.5545 81.0758 59.6661 81.0758 59.7757C81.0758 59.8852 81.0758 59.9846 81.0758 60.0739C81.0758 60.2281 81.0738 60.3742 81.0697 60.5122C81.0697 60.6461 81.0677 60.7759 81.0636 60.9017C81.0636 61.0275 81.0616 61.1513 81.0576 61.273C81.0576 61.3948 81.0576 61.5186 81.0576 61.6443C81.0535 61.7986 81.0576 61.9446 81.0697 62.0826C81.0819 62.2165 81.1225 62.3159 81.1915 62.3809C81.3376 62.5351 81.6399 62.6142 82.0984 62.6183H82.1532C82.2587 62.6183 82.3581 62.6406 82.4515 62.6852C82.5489 62.7258 82.632 62.7826 82.701 62.8557C82.7741 62.9246 82.8309 63.0078 82.8715 63.1052C82.9161 63.1986 82.9384 63.298 82.9384 63.4035C82.9384 63.513 82.9161 63.6165 82.8715 63.7139C82.8309 63.8072 82.7741 63.8884 82.701 63.9574C82.632 64.0264 82.5489 64.0812 82.4515 64.1217C82.3581 64.1623 82.2587 64.1826 82.1532 64.1826ZM87.0496 62.7096C87.3459 62.6243 87.5021 62.3748 87.5183 61.9609C87.5346 61.6078 87.4656 61.2933 87.3114 61.0174C87.1775 60.778 87.005 60.5913 86.794 60.4574C86.5708 60.3194 86.3496 60.2728 86.1305 60.3174C85.9966 60.3458 85.8018 60.6136 85.5462 61.1209C85.4772 61.2588 85.4041 61.4049 85.327 61.5591C85.3027 61.6119 85.2804 61.6606 85.2601 61.7052C85.2398 61.7417 85.2296 61.762 85.2296 61.7661L85.1688 61.9122C86.1102 62.4519 86.7027 62.7217 86.9462 62.7217C86.9867 62.7217 87.0212 62.7177 87.0496 62.7096ZM89.6062 62.6122C89.8212 62.6122 90.0038 62.6893 90.154 62.8435C90.3082 62.9977 90.3853 63.1823 90.3853 63.3974C90.3853 63.6125 90.3082 63.7971 90.154 63.9513C90.0038 64.1014 89.8212 64.1786 89.6062 64.1826H89.6001C88.9751 64.1826 88.5227 64.0284 88.2427 63.72L88.1149 63.58L87.987 63.7139C87.6867 64.0101 87.3053 64.1583 86.8427 64.1583C86.5992 64.1583 86.3192 64.1055 86.0027 64C85.747 63.9188 85.4751 63.8052 85.187 63.6591C84.8583 63.4928 84.5723 63.3264 84.3288 63.16C84.2151 63.3304 84.0407 63.5029 83.8053 63.6774C83.3305 64.0223 82.7928 64.1948 82.1923 64.1948C81.9772 64.1948 81.7946 64.1177 81.6444 63.9635C81.4902 63.8133 81.4131 63.6307 81.4131 63.4157C81.4131 63.2006 81.4902 63.0159 81.6444 62.8617C81.7946 62.7075 81.9772 62.6304 82.1923 62.6304C82.663 62.6304 83.083 62.4113 83.4523 61.973C83.5943 61.8026 83.7383 61.5896 83.8844 61.3339C83.9737 61.1716 84.0894 60.9443 84.2314 60.6522C84.3004 60.5142 84.3511 60.4128 84.3836 60.3478C84.627 59.8649 84.8888 59.4997 85.1688 59.2522C85.4975 58.96 85.8931 58.8139 86.3557 58.8139C86.9117 58.8139 87.4007 58.9986 87.8227 59.3678C88.3015 59.7899 88.5754 60.3681 88.6444 61.1026V61.1574L88.6505 61.1757V61.1878C88.6546 61.2 88.6566 61.2142 88.6566 61.2304V61.2487V61.2609C88.6566 61.273 88.6586 61.2872 88.6627 61.3035C88.6667 61.3481 88.6708 61.3948 88.6749 61.4435C88.6911 61.6017 88.7154 61.7458 88.7479 61.8757C88.8656 62.3626 89.1476 62.6081 89.594 62.6122H89.6062ZM88.7988 63.4035C88.7988 63.2939 88.8212 63.1925 88.8658 63.0991C88.9104 63.0058 88.9693 62.9246 89.0423 62.8557C89.1154 62.7826 89.2006 62.7258 89.298 62.6852C89.3954 62.6446 89.4988 62.6243 89.6084 62.6243H95.1354C95.2409 62.6243 95.3403 62.6446 95.4336 62.6852C95.531 62.7258 95.6142 62.7826 95.6832 62.8557C95.7562 62.9246 95.813 63.0058 95.8536 63.0991C95.8983 63.1925 95.9206 63.2939 95.9206 63.4035C95.9206 63.513 95.8983 63.6165 95.8536 63.7139C95.813 63.8072 95.7562 63.8884 95.6832 63.9574C95.6142 64.0264 95.531 64.0812 95.4336 64.1217C95.3403 64.1623 95.2409 64.1826 95.1354 64.1826H89.6023C89.4968 64.1826 89.3954 64.1623 89.298 64.1217C89.2006 64.0812 89.1154 64.0264 89.0423 63.9574C88.9693 63.8884 88.9104 63.8072 88.8658 63.7139C88.8212 63.6165 88.7988 63.513 88.7988 63.4035ZM94.3223 63.4035C94.3223 63.2939 94.3446 63.1925 94.3892 63.0991C94.4339 63.0058 94.4927 62.9246 94.5657 62.8557C94.6388 62.7826 94.724 62.7258 94.8214 62.6852C94.9188 62.6446 95.0223 62.6243 95.1318 62.6243H100.659C100.764 62.6243 100.864 62.6446 100.957 62.6852C101.054 62.7258 101.138 62.7826 101.207 62.8557C101.28 62.9246 101.336 63.0058 101.377 63.0991C101.422 63.1925 101.444 63.2939 101.444 63.4035C101.444 63.513 101.422 63.6165 101.377 63.7139C101.336 63.8072 101.28 63.8884 101.207 63.9574C101.138 64.0264 101.054 64.0812 100.957 64.1217C100.864 64.1623 100.764 64.1826 100.659 64.1826H95.1257C95.0202 64.1826 94.9188 64.1623 94.8214 64.1217C94.724 64.0812 94.6388 64.0264 94.5657 63.9574C94.4927 63.8884 94.4339 63.8072 94.3892 63.7139C94.3446 63.6165 94.3223 63.513 94.3223 63.4035ZM103.127 56.4157L102.092 57.4504L101.045 56.4096L102.08 55.3687L103.127 56.4157ZM105.427 56.4217L104.393 57.4626L103.346 56.4157L104.38 55.3809L105.427 56.4217ZM99.6509 63.4035C99.6509 63.2939 99.6712 63.1925 99.7118 63.0991C99.7524 63.0017 99.8092 62.9186 99.8822 62.8496C99.9512 62.7806 100.032 62.7258 100.126 62.6852C100.219 62.6446 100.32 62.6243 100.43 62.6243H101.106H101.398C101.597 62.6243 101.808 62.6183 102.031 62.6061C102.254 62.5899 102.467 62.5614 102.67 62.5209C102.877 62.4762 103.064 62.4174 103.23 62.3443C103.396 62.2672 103.52 62.1699 103.601 62.0522C103.662 61.9629 103.693 61.8432 103.693 61.693C103.697 61.5429 103.676 61.3786 103.632 61.2C103.591 61.0214 103.534 60.8348 103.461 60.64C103.392 60.4412 103.317 60.2504 103.236 60.0678C103.155 59.8812 103.074 59.7067 102.993 59.5443C102.916 59.378 102.851 59.238 102.798 59.1243L104.216 58.4243C104.326 58.6191 104.433 58.8545 104.539 59.1304C104.648 59.4023 104.744 59.6843 104.825 59.9765C104.906 60.2687 104.971 60.5568 105.02 60.8409C105.072 61.1249 105.099 61.3765 105.099 61.5957C105.099 61.9893 105.032 62.3403 104.898 62.6487C104.744 63.0058 104.527 63.3 104.247 63.5313C103.967 63.7586 103.634 63.929 103.248 64.0426C103.131 64.0751 102.983 64.0994 102.804 64.1157C102.629 64.1359 102.451 64.1501 102.268 64.1583C102.086 64.1704 101.911 64.1765 101.745 64.1765C101.583 64.1806 101.457 64.1826 101.367 64.1826H100.485H100.43C100.32 64.1826 100.219 64.1623 100.126 64.1217C100.032 64.0812 99.9512 64.0264 99.8822 63.9574C99.8092 63.8884 99.7524 63.8072 99.7118 63.7139C99.6712 63.6165 99.6509 63.513 99.6509 63.4035ZM108.79 60.1348C108.928 60.5243 109.049 60.9159 109.155 61.3096C109.2 61.4759 109.244 61.6525 109.289 61.8391C109.334 62.0217 109.372 62.2064 109.405 62.393C109.441 62.5797 109.469 62.7643 109.49 62.947C109.51 63.1255 109.52 63.2939 109.52 63.4522C109.52 63.8174 109.463 64.1725 109.35 64.5174C109.24 64.8664 109.086 65.2012 108.887 65.5217C108.692 65.8464 108.459 66.1548 108.187 66.447C107.919 66.7391 107.627 67.0151 107.311 67.2748C106.994 67.5345 106.659 67.7759 106.306 67.9991C105.953 68.2223 105.596 68.4232 105.235 68.6017L104.541 67.2078C104.829 67.0658 105.113 66.9075 105.393 66.733C105.673 66.5626 105.939 66.38 106.191 66.1852C106.446 65.9904 106.682 65.7835 106.897 65.5643C107.116 65.3493 107.303 65.1261 107.457 64.8948C107.615 64.6675 107.739 64.4322 107.828 64.1887C107.917 63.9493 107.962 63.7038 107.962 63.4522C107.962 63.2209 107.936 62.9774 107.883 62.7217C107.83 62.4661 107.767 62.2125 107.694 61.9609C107.621 61.7093 107.544 61.4699 107.463 61.2426C107.382 61.0113 107.315 60.8064 107.262 60.6278L108.79 60.1348ZM113.626 64.1826C113.155 64.1826 112.751 64.1238 112.415 64.0061C112.078 63.8925 111.788 63.718 111.544 63.4826C111.398 63.3365 111.284 63.1803 111.203 63.0139C111.126 62.8435 111.069 62.6791 111.033 62.5209C110.996 62.3586 110.974 62.2064 110.966 62.0643C110.962 61.9183 110.96 61.7925 110.96 61.687C110.964 61.5571 110.968 61.342 110.972 61.0417C110.98 60.7414 110.984 60.3783 110.984 59.9522C110.984 59.6965 110.982 59.4246 110.978 59.1365C110.978 58.8443 110.976 58.5481 110.972 58.2478C110.968 57.9475 110.96 57.6472 110.948 57.347C110.939 57.0426 110.925 56.7504 110.905 56.4704C110.889 56.1904 110.866 55.9287 110.838 55.6852C110.814 55.4377 110.783 55.2186 110.747 55.0278L112.275 54.5713C112.319 54.8067 112.358 55.0907 112.39 55.4235C112.423 55.7562 112.449 56.1113 112.469 56.4887C112.49 56.862 112.506 57.2455 112.518 57.6391C112.53 58.0287 112.536 58.4 112.536 58.753C112.536 58.8586 112.536 58.9701 112.536 59.0878C112.54 59.2055 112.542 59.3232 112.542 59.4409C112.546 59.5545 112.548 59.6661 112.548 59.7757C112.548 59.8852 112.548 59.9846 112.548 60.0739C112.548 60.2281 112.546 60.3742 112.542 60.5122C112.542 60.6461 112.54 60.7759 112.536 60.9017C112.536 61.0275 112.534 61.1513 112.53 61.273C112.53 61.3948 112.53 61.5186 112.53 61.6443C112.526 61.7986 112.53 61.9446 112.542 62.0826C112.555 62.2165 112.595 62.3159 112.664 62.3809C112.81 62.5351 113.113 62.6142 113.571 62.6183H113.626C113.731 62.6183 113.831 62.6406 113.924 62.6852C114.022 62.7258 114.105 62.7826 114.174 62.8557C114.247 62.9246 114.304 63.0078 114.344 63.1052C114.389 63.1986 114.411 63.298 114.411 63.4035C114.411 63.513 114.389 63.6165 114.344 63.7139C114.304 63.8072 114.247 63.8884 114.174 63.9574C114.105 64.0264 114.022 64.0812 113.924 64.1217C113.831 64.1623 113.731 64.1826 113.626 64.1826ZM112.837 63.4035C112.837 63.2939 112.857 63.1925 112.898 63.0991C112.939 63.0017 112.995 62.9186 113.068 62.8496C113.137 62.7806 113.219 62.7258 113.312 62.6852C113.405 62.6446 113.507 62.6243 113.616 62.6243H114.292H114.584C114.783 62.6243 114.994 62.6183 115.217 62.6061C115.44 62.5899 115.653 62.5614 115.856 62.5209C116.063 62.4762 116.25 62.4174 116.416 62.3443C116.583 62.2672 116.706 62.1699 116.788 62.0522C116.848 61.9629 116.879 61.8432 116.879 61.693C116.883 61.5429 116.863 61.3786 116.818 61.2C116.777 61.0214 116.721 60.8348 116.648 60.64C116.579 60.4412 116.503 60.2504 116.422 60.0678C116.341 59.8812 116.26 59.7067 116.179 59.5443C116.102 59.378 116.037 59.238 115.984 59.1243L117.402 58.4243C117.512 58.6191 117.619 58.8545 117.725 59.1304C117.834 59.4023 117.93 59.6843 118.011 59.9765C118.092 60.2687 118.157 60.5568 118.206 60.8409C118.259 61.1249 118.285 61.3765 118.285 61.5957C118.285 61.9893 118.218 62.3403 118.084 62.6487C117.93 63.0058 117.713 63.3 117.433 63.5313C117.153 63.7586 116.82 63.929 116.434 64.0426C116.317 64.0751 116.169 64.0994 115.99 64.1157C115.816 64.1359 115.637 64.1501 115.454 64.1583C115.272 64.1704 115.097 64.1765 114.931 64.1765C114.769 64.1806 114.643 64.1826 114.554 64.1826H113.671H113.616C113.507 64.1826 113.405 64.1623 113.312 64.1217C113.219 64.0812 113.137 64.0264 113.068 63.9574C112.995 63.8884 112.939 63.8072 112.898 63.7139C112.857 63.6165 112.837 63.513 112.837 63.4035ZM114.724 67.22L113.689 66.1791L114.736 65.1383L115.771 66.173L114.724 67.22ZM117.025 67.2078L115.99 66.173L117.037 65.1261L118.072 66.167L117.025 67.2078ZM115.887 66.9765L116.836 67.9261L115.881 68.8817L114.931 67.9322L115.887 66.9765ZM121.688 55.3991C121.858 56.6003 121.947 57.8522 121.955 59.1548C121.964 61.2446 121.949 62.8272 121.913 63.9026L120.318 64.14C120.407 62.4803 120.428 61.0377 120.379 59.8122C120.314 58.1809 120.229 56.8742 120.123 55.8922L121.688 55.3991ZM118.522 55.0217C118.522 54.9609 118.528 54.9183 118.541 54.8939C118.549 54.8696 118.563 54.833 118.583 54.7843C118.599 54.7316 118.62 54.6768 118.644 54.62C118.668 54.5632 118.695 54.5043 118.723 54.4435C118.752 54.3786 118.78 54.3217 118.808 54.273C118.946 54.058 119.107 53.8855 119.289 53.7557C119.476 53.6217 119.663 53.5345 119.849 53.4939C119.89 53.4858 119.937 53.4817 119.989 53.4817C120.046 53.4777 120.093 53.4757 120.129 53.4757C120.316 53.4757 120.484 53.498 120.635 53.5426C120.785 53.5872 120.925 53.638 121.055 53.6948H121.048C121.154 53.7394 121.257 53.7881 121.359 53.8409C121.464 53.8936 121.576 53.922 121.694 53.9261C121.779 53.9301 121.866 53.9038 121.955 53.847C122.045 53.7901 122.128 53.7232 122.205 53.6461C122.286 53.5649 122.355 53.4878 122.412 53.4148C122.473 53.3377 122.515 53.2829 122.54 53.2504L123.361 53.78C123.357 53.7922 123.335 53.8287 123.295 53.8896C123.254 53.9464 123.197 54.0174 123.124 54.1026C123.055 54.1838 122.97 54.273 122.868 54.3704C122.767 54.4638 122.653 54.551 122.528 54.6322C122.406 54.7093 122.272 54.7742 122.126 54.827C121.98 54.8757 121.826 54.898 121.663 54.8939C121.489 54.8899 121.328 54.8675 121.182 54.827C121.036 54.7823 120.9 54.7377 120.775 54.693L120.677 54.6565H120.683C120.622 54.6322 120.564 54.6058 120.507 54.5774C120.454 54.549 120.399 54.5226 120.342 54.4983C120.29 54.4739 120.235 54.4557 120.178 54.4435C120.125 54.4313 120.07 54.4293 120.014 54.4374C119.904 54.4455 119.817 54.4881 119.752 54.5652C119.691 54.6383 119.642 54.7235 119.606 54.8209C119.569 54.9142 119.541 55.0075 119.521 55.1009C119.504 55.1942 119.488 55.2652 119.472 55.3139L118.522 55.0217Z" fill="#303030"/>
<defs>
<linearGradient id="paint0_linear_15_63134" x1="4.9805" y1="6.56842" x2="151.488" y2="63.1681" gradientUnits="userSpaceOnUse">
<stop stop-color="#EAEAEA"/>
<stop offset="1" stop-color="#BDBDBD"/>
</linearGradient>
</defs>
</svg>
