<svg width="144" height="96" viewBox="0 0 144 96" fill="none" xmlns="http://www.w3.org/2000/svg">
<rect x="0.75" y="0.75" width="142.5" height="94.5" rx="9.25" fill="white" stroke="url(#paint0_linear_15_61671)" stroke-width="1.5"/>
<path d="M24.3339 56.0342H20.5545C20.2962 56.0342 20.082 56.3146 20.082 56.6527V63.2507C20.082 63.5888 20.2962 63.8692 20.5545 63.8692H24.3339C24.5922 63.8692 24.8063 63.5888 24.8063 63.2507V56.6527C24.8063 56.3146 24.5922 56.0342 24.3339 56.0342ZM23.8615 62.6321H21.0269V57.2713H23.8615V62.6321ZM35.6722 63.8692H39.4517C39.7099 63.8692 39.9241 63.5888 39.9241 63.2507V56.6527C39.9241 56.3146 39.7099 56.0342 39.4517 56.0342H35.6722C35.414 56.0342 35.1998 56.3146 35.1998 56.6527V63.2507C35.1998 63.5888 35.414 63.8692 35.6722 63.8692ZM36.1446 57.2713H38.9792V62.6321H36.1446V57.2713Z" fill="#303030"/>
<path d="M49.9235 60.4289L48.6637 57.9546C48.4873 57.6082 48.0526 57.6082 47.8763 57.9546L47.0133 59.6619L46.144 57.9629C45.9677 57.6165 45.533 57.6165 45.3566 57.9629L44.4937 59.6619L43.6244 57.9629C43.448 57.6165 43.0134 57.6165 42.837 57.9629L42.4402 58.7381V46.5485H44.4937C44.6511 46.5485 44.796 46.4412 44.8842 46.2763C44.9724 46.1113 44.985 45.8887 44.9283 45.699L41.7788 35.8021C41.7032 35.5711 41.5331 35.4227 41.3441 35.4227H34.2325C33.9994 32.6433 32.1916 30.4742 30.0058 30.4742C27.8201 30.4742 26.0185 32.6433 25.7792 35.4227H23.5493V31.7113H24.3367C24.5949 31.7113 24.8091 31.4309 24.8091 31.0928V28.6186C24.8091 28.2804 24.5949 28 24.3367 28H19.2974C19.0392 28 18.825 28.2804 18.825 28.6186V31.0928C18.825 31.4309 19.0392 31.7113 19.2974 31.7113H20.0848V35.4227H18.6675C18.4785 35.4227 18.3022 35.5711 18.2329 35.8021L15.0833 45.699C15.0204 45.8887 15.0393 46.1113 15.1274 46.2763C15.2156 46.4412 15.3605 46.5485 15.518 46.5485H17.5652V58.7299L17.1683 57.9546C16.992 57.6082 16.5573 57.6082 16.381 57.9546L15.518 59.6619L14.6487 57.9629C14.4723 57.6165 14.0377 57.6165 13.8613 57.9629L12.9984 59.6619L12.1291 57.9629C11.9527 57.6165 11.5181 57.6165 11.3417 57.9629L10.0819 60.4371C10.0315 60.5361 10 60.6598 10 60.7835V67.3814C10 67.7196 10.2142 68 10.4724 68H49.5266C49.7849 68 49.9991 67.7196 49.9991 67.3814V60.7835C50.0054 60.6515 49.9802 60.5361 49.9235 60.4289ZM26.6988 36.033C26.6988 33.6412 28.1791 31.7031 30.0058 31.7031C31.8326 31.7031 33.3128 33.6412 33.3128 36.033V40.3629H26.6988V36.033ZM19.7698 29.2289H23.8642V30.466H19.7698V29.2289ZM21.0297 31.7031H22.6044V35.4144H21.0297V31.7031ZM18.9825 36.6515H25.754V40.9814C25.754 41.3196 25.9681 41.6 26.2264 41.6H33.7853C34.0435 41.6 34.2577 41.3196 34.2577 40.9814V36.6515H41.0292L43.7882 45.3113H16.2298L18.9825 36.6515ZM10.9512 60.965L11.7385 59.4144L12.5259 60.965V66.7546H10.9512V60.965ZM13.4708 60.965L14.2582 59.4144L15.0456 60.965V66.7546H13.4708V60.965ZM15.9904 60.965L16.7778 59.4144L17.5652 60.965V66.7546H15.9904V60.965ZM18.51 60.7753V46.5485H41.5016V60.7753V66.7546H33.6278V52.5278C33.6278 52.1897 33.4136 51.9093 33.1554 51.9093H26.8563C26.598 51.9093 26.3839 52.1897 26.3839 52.5278V66.7546H18.51V60.7753ZM27.3287 66.7546V53.1464H32.6829V66.7546H27.3287ZM42.4465 60.965L43.2339 59.4144L44.0212 60.965V66.7546H42.4465V60.965ZM44.9661 60.965L45.7535 59.4144L46.5409 60.965V66.7546H44.9661V60.965ZM49.0605 66.7546H47.4857V60.965L48.2731 59.4144L49.0605 60.965V66.7546Z" fill="#303030"/>
<line y1="-0.5" x2="6.42515" y2="-0.5" transform="matrix(0.639838 0.768509 -0.655494 0.7552 17.9531 38)" stroke="#303030"/>
<line y1="-0.5" x2="2.9863" y2="-0.5" transform="matrix(-0.396182 0.918172 -0.858592 -0.51266 20.7812 41.2256)" stroke="#303030"/>
<line y1="-0.5" x2="2.64723" y2="-0.5" transform="matrix(0.959373 -0.282139 0.207879 0.978154 22.0625 42.9375)" stroke="#303030"/>
<path d="M40.2217 46L39 49.0425" stroke="#303030" stroke-linecap="square"/>
<path d="M38.793 49.4517L39.0672 51.3871" stroke="#303030" stroke-linecap="square"/>
<path d="M39.0703 51.7095L37.5621 53.9675" stroke="#303030" stroke-linecap="square"/>
<path d="M38.5195 49.4517L36.3258 50.5807" stroke="#303030" stroke-linecap="square"/>
<path d="M74.0824 35.193C74.1067 35.2377 74.1473 35.3168 74.2041 35.4304C74.265 35.5441 74.3319 35.6841 74.405 35.8504C74.478 36.0168 74.5531 36.2035 74.6302 36.4104C74.7114 36.6174 74.7844 36.8345 74.8493 37.0617C74.9143 37.289 74.967 37.5243 75.0076 37.7678C75.0522 38.0072 75.0745 38.2426 75.0745 38.4739C75.0705 38.8472 75.0137 39.1983 74.9041 39.527C74.7986 39.8516 74.6403 40.1357 74.4293 40.3791C74.2224 40.6226 73.9667 40.8154 73.6624 40.9574C73.358 41.0954 73.005 41.1643 72.6032 41.1643C72.4085 41.1643 72.234 41.142 72.0798 41.0974C71.9256 41.0568 71.7876 40.998 71.6658 40.9209C71.5441 40.8438 71.4366 40.7545 71.3432 40.653C71.254 40.5516 71.1748 40.44 71.1058 40.3183C71.0166 40.4441 70.9253 40.5597 70.8319 40.6652C70.7386 40.7707 70.627 40.862 70.4972 40.9391C70.3714 41.0122 70.2192 41.069 70.0406 41.1096C69.8621 41.1501 69.645 41.1704 69.3893 41.1704C69.158 41.1704 68.9551 41.1481 68.7806 41.1035C68.6061 41.0588 68.4601 41.0081 68.3424 40.9513C68.3667 41.4383 68.318 41.8806 68.1963 42.2783C68.0786 42.68 67.9041 43.0371 67.6728 43.3496C67.4456 43.662 67.1737 43.9339 66.8572 44.1652C66.5447 44.4006 66.2018 44.5933 65.8285 44.7435C65.4592 44.8936 65.0716 45.0052 64.6658 45.0783C64.2641 45.1554 63.8624 45.1939 63.4606 45.1939C62.8641 45.1939 62.3143 45.0945 61.8111 44.8957C61.3079 44.7009 60.8716 44.4249 60.5024 44.0678C60.1372 43.7148 59.8511 43.2887 59.6441 42.7896C59.4372 42.2945 59.3337 41.7446 59.3337 41.14C59.3458 40.787 59.3905 40.4299 59.4676 40.0687C59.5487 39.7035 59.6502 39.3504 59.7719 39.0096C59.8937 38.6687 60.0316 38.3461 60.1858 38.0417C60.3401 37.7374 60.4963 37.4655 60.6545 37.2261L61.9145 38.1574C61.7725 38.3846 61.6345 38.62 61.5006 38.8635C61.3708 39.107 61.2551 39.3565 61.1537 39.6122C61.0522 39.8638 60.969 40.1214 60.9041 40.3852C60.8432 40.649 60.8128 40.9148 60.8128 41.1826C60.8006 41.5194 60.8554 41.8339 60.9772 42.1261C61.0989 42.4223 61.2754 42.68 61.5067 42.8991C61.7421 43.1223 62.0221 43.2968 62.3467 43.4226C62.6754 43.5525 63.0386 43.6174 63.4363 43.6174C63.8745 43.6174 64.2702 43.5768 64.6232 43.4957C64.9803 43.4145 65.2908 43.2988 65.5545 43.1487C65.8183 42.9986 66.0395 42.82 66.218 42.613C66.3966 42.4101 66.5285 42.1829 66.6137 41.9313C66.7273 41.5539 66.7801 41.1806 66.7719 40.8113C66.7638 40.442 66.7131 40.0728 66.6198 39.7035C66.5305 39.3342 66.4087 38.967 66.2545 38.6017C66.1003 38.2365 65.936 37.8713 65.7615 37.5061L67.1311 36.6661C67.1879 36.8122 67.2548 36.9907 67.3319 37.2017C67.409 37.4128 67.4963 37.6319 67.5937 37.8591C67.6951 38.0864 67.8047 38.3116 67.9224 38.5348C68.0441 38.758 68.176 38.9548 68.318 39.1252C68.4601 39.2916 68.6143 39.4194 68.7806 39.5087C68.947 39.598 69.1276 39.6243 69.3224 39.5878C69.5253 39.5838 69.6856 39.533 69.8032 39.4357C69.925 39.3383 70.0183 39.2125 70.0832 39.0583C70.1482 38.9 70.1887 38.7214 70.205 38.5226C70.2253 38.3197 70.2354 38.1107 70.2354 37.8957L70.205 36.867L71.6963 36.7148C71.7044 36.8122 71.7105 36.9055 71.7145 36.9948C71.7186 37.0719 71.7206 37.151 71.7206 37.2322C71.7247 37.3133 71.7287 37.3803 71.7328 37.433C71.7369 37.5264 71.747 37.6461 71.7632 37.7922C71.7795 37.9383 71.8038 38.0925 71.8363 38.2548C71.8687 38.4171 71.9093 38.5814 71.958 38.7478C72.0067 38.9142 72.0676 39.0643 72.1406 39.1983C72.2137 39.3281 72.2969 39.4357 72.3902 39.5209C72.4876 39.602 72.5992 39.6426 72.725 39.6426C73.0415 39.6426 73.2748 39.5371 73.425 39.3261C73.5751 39.111 73.6502 38.8006 73.6502 38.3948C73.6502 38.2406 73.6238 38.0701 73.5711 37.8835C73.5224 37.6928 73.4534 37.4919 73.3641 37.2809C73.2789 37.0699 73.1774 36.8507 73.0598 36.6235C72.9461 36.3922 72.8244 36.1588 72.6945 35.9235L74.0824 35.193ZM70.4119 34.0365L69.3772 35.0713L68.3302 34.0304L69.365 32.9896L70.4119 34.0365ZM72.7128 34.0426L71.678 35.0835L70.6311 34.0365L71.6658 33.0017L72.7128 34.0426ZM69.5719 32.2774L70.5215 31.3278L71.4772 32.2835L70.5276 33.233L69.5719 32.2774ZM78.4275 37.2261C78.322 37.2261 78.2083 37.2707 78.0866 37.36C77.9648 37.4493 77.8533 37.5649 77.7518 37.707C77.6504 37.8449 77.5651 37.9991 77.4962 38.1696C77.4312 38.34 77.3988 38.5064 77.3988 38.6687C77.3988 38.8391 77.4373 38.9812 77.5144 39.0948C77.5956 39.2043 77.697 39.2936 77.8188 39.3626C77.9446 39.4316 78.0846 39.4843 78.2388 39.5209C78.397 39.5533 78.5533 39.5777 78.7075 39.5939C78.7927 39.598 78.886 39.602 78.9875 39.6061C79.0889 39.6101 79.1924 39.6122 79.2979 39.6122C79.4075 39.6122 79.515 39.6122 79.6205 39.6122C79.726 39.6122 79.8254 39.6081 79.9188 39.6C79.8985 39.3728 79.8559 39.1577 79.7909 38.9548C79.726 38.7519 79.6489 38.5632 79.5596 38.3887C79.4744 38.2142 79.3791 38.058 79.2735 37.92C79.1721 37.778 79.0767 37.6562 78.9875 37.5548V37.5609C78.9185 37.4878 78.8333 37.4148 78.7318 37.3417C78.6344 37.2646 78.533 37.2261 78.4275 37.2261ZM75.664 43.9217C76.2605 43.8041 76.7982 43.6458 77.277 43.447C77.7599 43.2522 78.1779 43.033 78.5309 42.7896C78.884 42.5461 79.1701 42.2864 79.3892 42.0104C79.6124 41.7345 79.7605 41.4586 79.8335 41.1826C79.7321 41.1826 79.6266 41.1826 79.517 41.1826C79.4075 41.1826 79.2979 41.1806 79.1883 41.1765C79.0788 41.1725 78.9733 41.1684 78.8718 41.1643C78.7704 41.1643 78.6811 41.1603 78.604 41.1522C78.1535 41.1197 77.7477 41.0243 77.3866 40.8661C77.0254 40.7078 76.7353 40.4928 76.5162 40.2209C76.362 40.0261 76.2504 39.809 76.1814 39.5696C76.1164 39.3301 76.084 39.0786 76.084 38.8148C76.084 38.6078 76.1022 38.3988 76.1388 38.1878C76.1793 37.9768 76.2341 37.7719 76.3031 37.573C76.3762 37.3701 76.4593 37.1794 76.5527 37.0009C76.646 36.8223 76.7475 36.66 76.857 36.5139C77.0762 36.2339 77.3196 36.0229 77.5875 35.8809C77.8553 35.7348 78.1353 35.6617 78.4275 35.6617C79.0564 35.6617 79.6306 35.9417 80.1501 36.5017C80.3367 36.7087 80.5031 36.9441 80.6492 37.2078C80.7993 37.4675 80.9251 37.7475 81.0266 38.0478C81.1321 38.3441 81.2112 38.6545 81.264 38.9791C81.3208 39.3038 81.3492 39.6325 81.3492 39.9652C81.3492 40.0667 81.3451 40.1681 81.337 40.2696C81.333 40.371 81.3269 40.4684 81.3188 40.5617C81.2457 41.2516 81.055 41.8745 80.7466 42.4304C80.4382 42.9864 80.0446 43.4693 79.5657 43.8791C79.0909 44.293 78.5492 44.6319 77.9405 44.8957C77.3359 45.1594 76.6988 45.342 76.0292 45.4435L75.664 43.9217ZM86.6885 41.1826C86.6398 41.1826 86.5769 41.1806 86.4998 41.1765C86.4227 41.1765 86.3375 41.1684 86.2442 41.1522C86.1549 41.1359 86.0575 41.1096 85.952 41.073C85.8465 41.0406 85.743 40.9919 85.6415 40.927C85.5888 41.4383 85.4326 41.9272 85.1729 42.3939C84.9172 42.8646 84.5926 43.3049 84.1989 43.7148C83.8053 44.1246 83.363 44.5 82.872 44.8409C82.385 45.1817 81.8839 45.48 81.3685 45.7357L80.6868 44.3296C80.9708 44.1835 81.2569 44.0252 81.545 43.8548C81.8291 43.6843 82.101 43.5017 82.3607 43.307C82.6204 43.1162 82.8618 42.9133 83.085 42.6983C83.3123 42.4832 83.5071 42.26 83.6694 42.0287C83.8358 41.8014 83.9656 41.5661 84.0589 41.3226C84.1563 41.0791 84.205 40.8296 84.205 40.5739C84.205 40.5414 84.203 40.509 84.1989 40.4765C84.1989 40.44 84.1969 40.4055 84.1929 40.373V40.3791C84.1644 40.1519 84.1158 39.9226 84.0468 39.6913C83.9818 39.4559 83.9108 39.2287 83.8337 39.0096C83.7566 38.7904 83.6795 38.5814 83.6024 38.3826C83.5253 38.1797 83.4604 37.9971 83.4076 37.8348L84.8685 37.2261C85.0268 37.7009 85.1749 38.0945 85.3129 38.407C85.4549 38.7154 85.5969 38.9609 85.7389 39.1435C85.881 39.322 86.025 39.4478 86.1711 39.5209C86.3213 39.5899 86.4856 39.6243 86.6642 39.6243H86.6946C86.8042 39.6243 86.9056 39.6467 86.9989 39.6913C87.0963 39.7319 87.1795 39.7887 87.2485 39.8617C87.3215 39.9307 87.3784 40.0139 87.4189 40.1113C87.4595 40.2046 87.4798 40.3041 87.4798 40.4096C87.4798 40.5191 87.4595 40.6206 87.4189 40.7139C87.3784 40.8072 87.3215 40.8904 87.2485 40.9635C87.1795 41.0325 87.0963 41.0852 86.9989 41.1217C86.9015 41.1623 86.7981 41.1826 86.6885 41.1826ZM85.8384 40.4035C85.8384 40.2939 85.8586 40.1925 85.8992 40.0991C85.9398 40.0017 85.9966 39.9186 86.0697 39.8496C86.1427 39.7806 86.2279 39.7258 86.3253 39.6852C86.4186 39.6446 86.5201 39.6243 86.6297 39.6243C87.0192 39.6243 87.4068 39.6081 87.7923 39.5757C88.1818 39.5432 88.543 39.5006 88.8757 39.4478C89.2126 39.3951 89.5088 39.3362 89.7644 39.2713C90.0201 39.2023 90.2108 39.1333 90.3366 39.0643H89.7157C89.4844 39.0643 89.2572 39.0461 89.034 39.0096C88.8149 38.969 88.6079 38.9122 88.4131 38.8391C88.2184 38.762 88.0398 38.6687 87.8775 38.5591C87.7152 38.4455 87.5772 38.3157 87.4636 38.1696C87.3621 38.0397 87.2668 37.8693 87.1775 37.6583C87.0923 37.4472 87.0497 37.1855 87.0497 36.873C87.0497 36.7107 87.0618 36.5504 87.0862 36.3922C87.143 36.0635 87.2282 35.7632 87.3418 35.4913C87.4595 35.2154 87.6036 34.9719 87.774 34.7609V34.767C87.9769 34.5032 88.2021 34.3043 88.4497 34.1704C88.7012 34.0365 88.965 33.9696 89.241 33.9696C89.521 33.9696 89.7989 34.0406 90.0749 34.1826C90.3549 34.3246 90.6085 34.5113 90.8357 34.7426C91.0021 34.9333 91.1523 35.1504 91.2862 35.3939C91.4201 35.6333 91.5337 35.891 91.627 36.167C91.7244 36.4388 91.7995 36.7229 91.8523 37.0191C91.905 37.3154 91.9314 37.6116 91.9314 37.9078C91.9314 37.993 91.9294 38.0803 91.9253 38.1696C91.9212 38.2588 91.9152 38.3441 91.907 38.4252C91.8624 38.8188 91.7589 39.1617 91.5966 39.4539C91.4384 39.742 91.2355 39.9875 90.9879 40.1904C90.7404 40.3933 90.4543 40.5597 90.1297 40.6896C89.8091 40.8154 89.4641 40.9148 89.0949 40.9878C88.7256 41.0609 88.3401 41.1096 87.9384 41.1339C87.5366 41.1623 87.1308 41.1786 86.721 41.1826H86.6175C86.5079 41.1826 86.4065 41.1623 86.3131 41.1217C86.2198 41.0812 86.1386 41.0264 86.0697 40.9574C85.9966 40.8843 85.9398 40.8012 85.8992 40.7078C85.8586 40.6145 85.8384 40.513 85.8384 40.4035ZM89.241 35.54C89.1679 35.5359 89.0868 35.5583 88.9975 35.607C88.9082 35.6557 88.821 35.7246 88.7357 35.8139C88.6505 35.8991 88.5714 35.9986 88.4984 36.1122C88.4253 36.2258 88.3685 36.3455 88.3279 36.4713C88.2914 36.593 88.2731 36.7188 88.2731 36.8487C88.2772 36.9745 88.3117 37.0922 88.3766 37.2017C88.401 37.2464 88.4537 37.287 88.5349 37.3235C88.6201 37.3559 88.7175 37.3864 88.827 37.4148C88.9366 37.4391 89.0502 37.4594 89.1679 37.4757C89.2856 37.4919 89.3931 37.502 89.4905 37.5061C89.6528 37.5142 89.8233 37.5162 90.0018 37.5122C90.1844 37.5081 90.3386 37.502 90.4644 37.4939C90.4279 37.3478 90.3772 37.1672 90.3123 36.9522C90.2473 36.733 90.1641 36.522 90.0627 36.3191C89.9612 36.1122 89.8415 35.9336 89.7036 35.7835C89.5697 35.6333 89.4155 35.5522 89.241 35.54ZM90.2149 32.0522L89.0523 33.2148L87.8836 32.0461L89.0462 30.8835L90.2149 32.0522ZM99.2361 37.2261C99.1305 37.2261 99.0169 37.2707 98.8952 37.36C98.7734 37.4493 98.6618 37.5649 98.5604 37.707C98.4589 37.8449 98.3737 37.9991 98.3047 38.1696C98.2398 38.34 98.2074 38.5064 98.2074 38.6687C98.2074 38.8391 98.2459 38.9812 98.323 39.0948C98.4042 39.2043 98.5056 39.2936 98.6274 39.3626C98.7532 39.4316 98.8932 39.4843 99.0474 39.5209C99.2056 39.5533 99.3618 39.5777 99.5161 39.5939C99.6013 39.598 99.6946 39.602 99.7961 39.6061C99.8975 39.6101 100.001 39.6122 100.106 39.6122C100.216 39.6122 100.324 39.6122 100.429 39.6122C100.535 39.6122 100.634 39.6081 100.727 39.6C100.707 39.3728 100.664 39.1577 100.6 38.9548C100.535 38.7519 100.458 38.5632 100.368 38.3887C100.283 38.2142 100.188 38.058 100.082 37.92C99.9807 37.778 99.8853 37.6562 99.7961 37.5548V37.5609C99.7271 37.4878 99.6418 37.4148 99.5404 37.3417C99.443 37.2646 99.3416 37.2261 99.2361 37.2261ZM96.4726 43.9217C97.0691 43.8041 97.6068 43.6458 98.0856 43.447C98.5685 43.2522 98.9865 43.033 99.3395 42.7896C99.6926 42.5461 99.9787 42.2864 100.198 42.0104C100.421 41.7345 100.569 41.4586 100.642 41.1826C100.541 41.1826 100.435 41.1826 100.326 41.1826C100.216 41.1826 100.106 41.1806 99.9969 41.1765C99.8874 41.1725 99.7818 41.1684 99.6804 41.1643C99.5789 41.1643 99.4897 41.1603 99.4126 41.1522C98.9621 41.1197 98.5563 41.0243 98.1952 40.8661C97.834 40.7078 97.5439 40.4928 97.3247 40.2209C97.1705 40.0261 97.0589 39.809 96.99 39.5696C96.925 39.3301 96.8926 39.0786 96.8926 38.8148C96.8926 38.6078 96.9108 38.3988 96.9474 38.1878C96.9879 37.9768 97.0427 37.7719 97.1117 37.573C97.1847 37.3701 97.2679 37.1794 97.3613 37.0009C97.4546 36.8223 97.5561 36.66 97.6656 36.5139C97.8847 36.2339 98.1282 36.0229 98.3961 35.8809C98.6639 35.7348 98.9439 35.6617 99.2361 35.6617C99.865 35.6617 100.439 35.9417 100.959 36.5017C101.145 36.7087 101.312 36.9441 101.458 37.2078C101.608 37.4675 101.734 37.7475 101.835 38.0478C101.941 38.3441 102.02 38.6545 102.073 38.9791C102.129 39.3038 102.158 39.6325 102.158 39.9652C102.158 40.0667 102.154 40.1681 102.146 40.2696C102.142 40.371 102.135 40.4684 102.127 40.5617C102.054 41.2516 101.864 41.8745 101.555 42.4304C101.247 42.9864 100.853 43.4693 100.374 43.8791C99.8995 44.293 99.3578 44.6319 98.7491 44.8957C98.1445 45.1594 97.5074 45.342 96.8378 45.4435L96.4726 43.9217ZM109.592 41.1826C109.089 41.1826 108.61 41.069 108.155 40.8417C107.705 40.6145 107.285 40.298 106.895 39.8922L107.79 38.6322C108.159 38.969 108.504 39.2145 108.825 39.3687C109.145 39.5229 109.452 39.6 109.744 39.6C109.813 39.6 109.89 39.598 109.975 39.5939C110.06 39.5858 110.148 39.5757 110.237 39.5635C110.326 39.5472 110.411 39.529 110.493 39.5087C110.578 39.4884 110.653 39.4661 110.718 39.4417C110.791 39.4133 110.866 39.3829 110.943 39.3504C111.024 39.318 111.099 39.2855 111.168 39.253C111.241 39.2165 111.306 39.182 111.363 39.1496C111.42 39.1171 111.467 39.0867 111.503 39.0583L109.561 34.3713L111.004 33.7687C111.146 34.1217 111.314 34.5316 111.509 34.9983C111.676 35.4 111.876 35.889 112.112 36.4652C112.351 37.0414 112.627 37.7009 112.94 38.4435L113.037 38.6809C113.09 38.8188 113.145 38.9467 113.201 39.0643C113.258 39.178 113.329 39.2774 113.414 39.3626C113.504 39.4438 113.615 39.5087 113.749 39.5574C113.887 39.602 114.062 39.6243 114.273 39.6243C114.378 39.6243 114.478 39.6446 114.571 39.6852C114.668 39.7258 114.751 39.7806 114.82 39.8496C114.893 39.9186 114.95 40.0017 114.991 40.0991C115.036 40.1925 115.058 40.2939 115.058 40.4035C115.058 40.513 115.036 40.6165 114.991 40.7139C114.95 40.8072 114.893 40.8884 114.82 40.9574C114.751 41.0264 114.668 41.0812 114.571 41.1217C114.478 41.1623 114.378 41.1826 114.273 41.1826C114.017 41.1826 113.788 41.1623 113.585 41.1217C113.382 41.0852 113.199 41.0345 113.037 40.9696C112.879 40.9006 112.737 40.8214 112.611 40.7322C112.489 40.6388 112.38 40.5394 112.282 40.4339C112.165 40.5151 112.014 40.5983 111.832 40.6835C111.649 40.7646 111.471 40.8397 111.296 40.9087C111.061 41.002 110.799 41.071 110.511 41.1157C110.223 41.1603 109.916 41.1826 109.592 41.1826ZM116.446 43.1L115.411 44.1348L114.364 43.0939L115.399 42.053L116.446 43.1ZM118.747 43.1061L117.712 44.147L116.665 43.1L117.7 42.0652L118.747 43.1061ZM113.177 40.4035C113.177 40.2939 113.197 40.1925 113.238 40.0991C113.278 40.0017 113.335 39.9186 113.408 39.8496C113.477 39.7806 113.558 39.7258 113.652 39.6852C113.745 39.6446 113.847 39.6243 113.956 39.6243H114.632H114.924C115.123 39.6243 115.334 39.6183 115.557 39.6061C115.78 39.5899 115.993 39.5614 116.196 39.5209C116.403 39.4762 116.59 39.4174 116.756 39.3443C116.923 39.2672 117.046 39.1699 117.127 39.0522C117.188 38.9629 117.219 38.8432 117.219 38.693C117.223 38.5429 117.203 38.3786 117.158 38.2C117.117 38.0214 117.061 37.8348 116.987 37.64C116.918 37.4412 116.843 37.2504 116.762 37.0678C116.681 36.8812 116.6 36.7067 116.519 36.5443C116.442 36.378 116.377 36.238 116.324 36.1243L117.742 35.4243C117.852 35.6191 117.959 35.8545 118.065 36.1304C118.174 36.4023 118.27 36.6843 118.351 36.9765C118.432 37.2687 118.497 37.5568 118.546 37.8409C118.598 38.1249 118.625 38.3765 118.625 38.5957C118.625 38.9893 118.558 39.3403 118.424 39.6487C118.27 40.0058 118.053 40.3 117.773 40.5313C117.493 40.7586 117.16 40.929 116.774 41.0426C116.657 41.0751 116.509 41.0994 116.33 41.1157C116.156 41.1359 115.977 41.1501 115.794 41.1583C115.612 41.1704 115.437 41.1765 115.271 41.1765C115.109 41.1806 114.983 41.1826 114.894 41.1826H114.011H113.956C113.847 41.1826 113.745 41.1623 113.652 41.1217C113.558 41.0812 113.477 41.0264 113.408 40.9574C113.335 40.8884 113.278 40.8072 113.238 40.7139C113.197 40.6165 113.177 40.513 113.177 40.4035ZM124.683 41.1826C124.634 41.1826 124.571 41.1806 124.494 41.1765C124.417 41.1765 124.332 41.1684 124.238 41.1522C124.149 41.1359 124.052 41.1096 123.946 41.073C123.841 41.0406 123.737 40.9919 123.636 40.927C123.583 41.4383 123.427 41.9272 123.167 42.3939C122.911 42.8646 122.587 43.3049 122.193 43.7148C121.799 44.1246 121.357 44.5 120.866 44.8409C120.379 45.1817 119.878 45.48 119.363 45.7357L118.681 44.3296C118.965 44.1835 119.251 44.0252 119.539 43.8548C119.823 43.6843 120.095 43.5017 120.355 43.307C120.615 43.1162 120.856 42.9133 121.079 42.6983C121.306 42.4832 121.501 42.26 121.664 42.0287C121.83 41.8014 121.96 41.5661 122.053 41.3226C122.15 41.0791 122.199 40.8296 122.199 40.5739C122.199 40.5414 122.197 40.509 122.193 40.4765C122.193 40.44 122.191 40.4055 122.187 40.373V40.3791C122.159 40.1519 122.11 39.9226 122.041 39.6913C121.976 39.4559 121.905 39.2287 121.828 39.0096C121.751 38.7904 121.674 38.5814 121.597 38.3826C121.519 38.1797 121.455 37.9971 121.402 37.8348L122.863 37.2261C123.021 37.7009 123.169 38.0945 123.307 38.407C123.449 38.7154 123.591 38.9609 123.733 39.1435C123.875 39.322 124.019 39.4478 124.165 39.5209C124.315 39.5899 124.48 39.6243 124.658 39.6243H124.689C124.798 39.6243 124.9 39.6467 124.993 39.6913C125.09 39.7319 125.174 39.7887 125.243 39.8617C125.316 39.9307 125.372 40.0139 125.413 40.1113C125.454 40.2046 125.474 40.3041 125.474 40.4096C125.474 40.5191 125.454 40.6206 125.413 40.7139C125.372 40.8072 125.316 40.8904 125.243 40.9635C125.174 41.0325 125.09 41.0852 124.993 41.1217C124.896 41.1623 124.792 41.1826 124.683 41.1826ZM123.832 40.4035C123.832 40.2939 123.853 40.1925 123.893 40.0991C123.934 40.0017 123.991 39.9186 124.064 39.8496C124.137 39.7806 124.222 39.7258 124.319 39.6852C124.413 39.6446 124.514 39.6243 124.624 39.6243H125.829C126.332 39.6243 126.844 39.5777 127.363 39.4843C127.886 39.387 128.406 39.2612 128.921 39.107C129.437 38.9487 129.94 38.7681 130.431 38.5652C130.922 38.3623 131.386 38.1533 131.825 37.9383C131.476 37.8612 131.151 37.7597 130.851 37.6339C130.55 37.5041 130.266 37.3783 129.999 37.2565C129.731 37.1348 129.473 37.0293 129.226 36.94C128.978 36.8507 128.732 36.8061 128.489 36.8061C128.347 36.8061 128.213 36.8325 128.087 36.8852C127.966 36.9339 127.852 36.9968 127.746 37.0739C127.641 37.151 127.546 37.2362 127.46 37.3296C127.379 37.4229 127.306 37.5142 127.241 37.6035C127.18 37.6887 127.13 37.7658 127.089 37.8348C127.048 37.9038 127.02 37.9525 127.004 37.9809L125.738 37.1591C125.876 36.9157 126.04 36.6803 126.231 36.453C126.421 36.2217 126.632 36.0168 126.864 35.8383C127.099 35.6557 127.353 35.5116 127.625 35.4061C127.897 35.2965 128.185 35.2417 128.489 35.2417C128.801 35.2417 129.112 35.2843 129.42 35.3696C129.729 35.4507 130.033 35.5542 130.333 35.68C130.638 35.8058 130.942 35.9438 131.246 36.0939C131.551 36.24 131.857 36.378 132.166 36.5078C132.478 36.6336 132.792 36.7412 133.109 36.8304C133.426 36.9157 133.75 36.9603 134.083 36.9643L133.955 38.5348C133.387 38.8067 132.795 39.0948 132.178 39.3991C131.561 39.7035 130.916 39.9855 130.242 40.2452C129.568 40.5049 128.864 40.722 128.13 40.8965C127.395 41.071 126.628 41.1664 125.829 41.1826H124.672H124.624C124.514 41.1826 124.413 41.1623 124.319 41.1217C124.222 41.0812 124.137 41.0264 124.064 40.9574C123.991 40.8843 123.934 40.8012 123.893 40.7078C123.853 40.6145 123.832 40.513 123.832 40.4035ZM129.396 33.1783L128.233 34.3409L127.065 33.1722L128.227 32.0096L129.396 33.1783ZM71.7612 68.1513C71.3959 68.1513 71.0165 68.133 70.6229 68.0965C70.2333 68.06 69.858 67.9849 69.4968 67.8713C69.1357 67.7617 68.8009 67.6035 68.4925 67.3965C68.1881 67.1936 67.9365 66.9238 67.7377 66.587L67.7438 66.5991C67.3299 65.9986 67.1229 65.2316 67.1229 64.2983C67.1229 64.2496 67.1229 64.1988 67.1229 64.1461C67.1229 64.0933 67.1249 64.0406 67.129 63.9878V63.9939C67.1412 63.7139 67.1675 63.4278 67.2081 63.1357C67.2528 62.8435 67.3136 62.5371 67.3907 62.2165C67.4719 61.8919 67.5713 61.549 67.689 61.1878C67.8107 60.8226 67.9588 60.431 68.1333 60.013L69.3872 60.5913C69.2209 61.0052 69.0829 61.3867 68.9733 61.7357C68.8638 62.0846 68.7765 62.4113 68.7116 62.7157C68.6507 63.0159 68.6081 63.298 68.5838 63.5617C68.5594 63.8255 68.5472 64.0791 68.5472 64.3226C68.5472 64.6148 68.5838 64.8765 68.6568 65.1078C68.7339 65.3432 68.8313 65.5501 68.949 65.7287C69.1072 65.9438 69.3061 66.1081 69.5455 66.2217C69.7849 66.3394 70.0365 66.4246 70.3003 66.4774C70.5681 66.5301 70.8299 66.5606 71.0855 66.5687C71.3452 66.5809 71.5704 66.587 71.7612 66.587C71.8748 66.587 72.0391 66.5788 72.2542 66.5626C72.4733 66.5464 72.7107 66.518 72.9664 66.4774C73.2261 66.4368 73.4919 66.3841 73.7638 66.3191C74.0357 66.2542 74.2812 66.173 74.5003 66.0757C74.7235 65.9783 74.9041 65.8646 75.042 65.7348C75.1841 65.6049 75.2551 65.4528 75.2551 65.2783C75.2551 65.2458 75.2185 65.2012 75.1455 65.1443C75.0765 65.0875 74.9791 65.0226 74.8533 64.9496C74.7316 64.8765 74.5875 64.7994 74.4212 64.7183C74.2548 64.6412 74.0762 64.5661 73.8855 64.493C73.6055 64.3997 73.3275 64.3307 73.0516 64.2861C72.7757 64.2414 72.5017 64.1948 72.2299 64.1461L72.4368 62.6243H77.1542C77.2597 62.6243 77.3591 62.6446 77.4525 62.6852C77.5499 62.7258 77.633 62.7806 77.702 62.8496C77.7751 62.9186 77.8319 63.0017 77.8725 63.0991C77.9171 63.1925 77.9394 63.2939 77.9394 63.4035C77.9394 63.513 77.9171 63.6165 77.8725 63.7139C77.8319 63.8072 77.7751 63.8884 77.702 63.9574C77.633 64.0264 77.5499 64.0812 77.4525 64.1217C77.3591 64.1623 77.2597 64.1826 77.1542 64.1826H76.1316C76.2939 64.3814 76.4014 64.5762 76.4542 64.767C76.511 64.9617 76.5414 65.1322 76.5455 65.2783C76.5293 65.6354 76.438 65.9539 76.2716 66.2339C76.1052 66.518 75.8901 66.7655 75.6264 66.9765C75.3667 67.1916 75.0704 67.3722 74.7377 67.5183C74.4049 67.6684 74.0641 67.7901 73.7151 67.8835C73.3661 67.9768 73.0212 68.0438 72.6803 68.0843C72.3435 68.129 72.0371 68.1513 71.7612 68.1513ZM76.1974 63.4035C76.1974 63.2939 76.2198 63.1925 76.2644 63.0991C76.305 63.0058 76.3618 62.9246 76.4348 62.8557C76.5038 62.7826 76.587 62.7258 76.6844 62.6852C76.7777 62.6446 76.8771 62.6243 76.9826 62.6243H77.0374H79.0461C79.1882 62.6243 79.3302 62.5959 79.4722 62.5391C79.6142 62.4823 79.7421 62.4093 79.8557 62.32C79.9734 62.2267 80.0687 62.1212 80.1418 62.0035C80.2189 61.8817 80.2635 61.758 80.2757 61.6322C80.2919 61.413 80.2676 61.1858 80.2026 60.9504C80.1377 60.711 80.0424 60.4696 79.9166 60.2261C79.7908 59.9826 79.6426 59.7412 79.4722 59.5017C79.3018 59.2623 79.1192 59.0351 78.9244 58.82C78.7337 58.6049 78.5369 58.4041 78.334 58.2174C78.1311 58.0307 77.9383 57.8664 77.7557 57.7243L77.9018 56.0078L83.2279 53.7557L83.794 55.1496L79.1983 57.0365C79.5108 57.3084 79.7826 57.5803 80.014 57.8522C80.2493 58.12 80.4603 58.3899 80.647 58.6617C80.8337 58.9296 81.0021 59.1994 81.1522 59.4713C81.3024 59.7432 81.4484 60.0151 81.5905 60.287H81.5844C81.6858 60.4777 81.7873 60.6684 81.8887 60.8591C81.9902 61.0458 82.0998 61.2365 82.2174 61.4313V61.4252C82.327 61.6078 82.4426 61.7722 82.5644 61.9183C82.6902 62.0643 82.8261 62.1881 82.9722 62.2896C83.1183 62.391 83.2766 62.4722 83.447 62.533C83.6215 62.5899 83.8122 62.6203 84.0192 62.6243H84.0131H84.2687C84.3783 62.6243 84.4798 62.6446 84.5731 62.6852C84.6705 62.7258 84.7537 62.7826 84.8226 62.8557C84.8916 62.9246 84.9464 63.0058 84.987 63.0991C85.0276 63.1925 85.0479 63.2939 85.0479 63.4035C85.0479 63.513 85.0276 63.6165 84.987 63.7139C84.9464 63.8072 84.8916 63.8884 84.8226 63.9574C84.7537 64.0264 84.6705 64.0812 84.5731 64.1217C84.4798 64.1623 84.3783 64.1826 84.2687 64.1826H84.22C83.9198 64.1826 83.654 64.1623 83.4226 64.1217C83.1913 64.0852 82.9641 64.0304 82.7409 63.9574C82.4771 63.8641 82.2316 63.7301 82.0044 63.5557C81.7771 63.3771 81.5722 63.1843 81.3896 62.9774C81.2719 63.1559 81.1299 63.3243 80.9635 63.4826C80.8215 63.6125 80.6713 63.72 80.5131 63.8052C80.3548 63.8904 80.1905 63.9594 80.02 64.0122C79.8496 64.0649 79.6751 64.1035 79.4966 64.1278C79.318 64.1562 79.1415 64.1745 78.967 64.1826H76.9826C76.8771 64.1826 76.7777 64.1623 76.6844 64.1217C76.587 64.0812 76.5038 64.0264 76.4348 63.9574C76.3618 63.8884 76.305 63.8072 76.2644 63.7139C76.2198 63.6165 76.1974 63.513 76.1974 63.4035ZM82.7835 53.1104L77.8896 55.18L77.9322 54.4009L82.4974 52.4957L82.7835 53.1104ZM83.4162 63.4035C83.4162 63.2939 83.4365 63.1925 83.4771 63.0991C83.5176 63.0058 83.5724 62.9246 83.6414 62.8557C83.7104 62.7826 83.7936 62.7258 83.891 62.6852C83.9843 62.6446 84.0857 62.6243 84.1953 62.6243H84.2988C84.9197 62.6243 85.3904 62.5188 85.711 62.3078C86.0315 62.0928 86.1918 61.7722 86.1918 61.3461C86.1918 61.2325 86.1837 61.127 86.1675 61.0296C86.1513 60.9281 86.1269 60.8226 86.0944 60.713C86.066 60.5994 86.0295 60.4757 85.9849 60.3417C85.9443 60.2078 85.8997 60.0516 85.851 59.873L87.3484 59.453C87.4214 59.7412 87.4884 60.0435 87.5492 60.36C87.6142 60.6725 87.6466 61.0012 87.6466 61.3461C87.6466 61.4841 87.6568 61.6281 87.6771 61.7783C87.7014 61.9284 87.744 62.0664 87.8049 62.1922C87.8698 62.318 87.955 62.4214 88.0605 62.5026C88.1701 62.5838 88.3101 62.6243 88.4805 62.6243C88.586 62.6243 88.6855 62.6446 88.7788 62.6852C88.8762 62.7258 88.9594 62.7826 89.0284 62.8557C89.1014 62.9246 89.1582 63.0058 89.1988 63.0991C89.2434 63.1925 89.2657 63.2939 89.2657 63.4035C89.2657 63.513 89.2434 63.6165 89.1988 63.7139C89.1582 63.8072 89.1014 63.8884 89.0284 63.9574C88.9594 64.0264 88.8782 64.0812 88.7849 64.1217C88.6915 64.1623 88.5921 64.1826 88.4866 64.1826C88.093 64.1826 87.7582 64.1217 87.4823 64C87.2104 63.8742 86.9811 63.7099 86.7944 63.507C86.2466 63.9574 85.4147 64.1826 84.2988 64.1826H84.1953C84.0857 64.1826 83.9843 64.1623 83.891 64.1217C83.7936 64.0812 83.7104 64.0264 83.6414 63.9574C83.5724 63.8884 83.5176 63.8072 83.4771 63.7139C83.4365 63.6165 83.4162 63.513 83.4162 63.4035ZM87.7562 57.1461L86.5936 58.3087L85.4249 57.14L86.5875 55.9774L87.7562 57.1461ZM87.6544 63.4035C87.6544 63.2939 87.6747 63.1925 87.7152 63.0991C87.7558 63.0058 87.8126 62.9246 87.8857 62.8557C87.9547 62.7826 88.0358 62.7258 88.1292 62.6852C88.2225 62.6446 88.3239 62.6243 88.4335 62.6243H88.4883H89.0118H89.0057C89.1152 62.6203 89.2065 62.6162 89.2796 62.6122C89.3567 62.6081 89.4196 62.602 89.4683 62.5939C89.521 62.5817 89.5636 62.5696 89.5961 62.5574C89.6286 62.5452 89.6549 62.529 89.6752 62.5087C89.7199 62.4722 89.7564 62.4235 89.7848 62.3626C89.8173 62.2977 89.8416 62.2246 89.8578 62.1435C89.8781 62.0583 89.8923 61.969 89.9005 61.8757C89.9126 61.7823 89.9228 61.689 89.9309 61.5957V61.6078C89.9309 61.4942 89.9329 61.3177 89.937 61.0783C89.941 60.8388 89.9451 60.5609 89.9492 60.2443C89.9532 59.9238 89.9573 59.5748 89.9613 59.1974C89.9654 58.82 89.9674 58.4365 89.9674 58.047C89.9674 57.3896 89.9593 56.791 89.9431 56.2513C89.9268 55.7075 89.8964 55.2348 89.8518 54.833L91.3978 54.6322C91.4547 55.0826 91.4932 55.6122 91.5135 56.2209C91.5378 56.8255 91.55 57.4809 91.55 58.187C91.55 58.7551 91.5419 59.3212 91.5257 59.8852C91.5135 60.4452 91.5074 61.0275 91.5074 61.6322C91.5074 61.7133 91.5155 61.8148 91.5318 61.9365C91.552 62.0542 91.5967 62.1678 91.6657 62.2774C91.7306 62.3748 91.8219 62.458 91.9396 62.527C92.0573 62.5919 92.2318 62.6243 92.4631 62.6243C92.5726 62.6243 92.6741 62.6446 92.7674 62.6852C92.8648 62.7258 92.948 62.7826 93.017 62.8557C93.09 62.9246 93.1468 63.0058 93.1874 63.0991C93.232 63.1925 93.2544 63.2939 93.2544 63.4035C93.2544 63.513 93.232 63.6165 93.1874 63.7139C93.1468 63.8072 93.09 63.8884 93.017 63.9574C92.948 64.0264 92.8648 64.0812 92.7674 64.1217C92.6741 64.1623 92.5726 64.1826 92.4631 64.1826C92.0776 64.1907 91.7448 64.1461 91.4648 64.0487C91.1848 63.9554 90.9535 63.7991 90.7709 63.58C90.6573 63.7099 90.5376 63.8133 90.4118 63.8904C90.286 63.9675 90.1541 64.0264 90.0161 64.067C89.8822 64.1116 89.7422 64.14 89.5961 64.1522C89.45 64.1684 89.3019 64.1786 89.1518 64.1826H88.4883H88.4335C88.3239 64.1826 88.2225 64.1623 88.1292 64.1217C88.0358 64.0812 87.9547 64.0264 87.8857 63.9574C87.8126 63.8884 87.7558 63.8072 87.7152 63.7139C87.6747 63.6165 87.6544 63.513 87.6544 63.4035ZM91.5811 63.4096C91.5811 63.3 91.6014 63.1965 91.642 63.0991C91.6825 63.0017 91.7394 62.9186 91.8124 62.8496C91.8854 62.7806 91.9747 62.7258 92.0802 62.6852C92.1817 62.6446 92.2953 62.6243 92.4211 62.6243H92.762H93.0602C93.2915 62.6243 93.533 62.6223 93.7846 62.6183C94.0362 62.6101 94.2756 62.5878 94.5028 62.5513C94.7341 62.5148 94.9411 62.4559 95.1237 62.3748C95.3104 62.2936 95.4524 62.178 95.5498 62.0278V62.0339C95.6918 61.8229 95.7628 61.5754 95.7628 61.2913C95.7628 61.2061 95.7547 61.1168 95.7385 61.0235C95.7263 60.9301 95.7081 60.8328 95.6837 60.7313V60.7374C95.6391 60.5791 95.5376 60.3742 95.3794 60.1226C95.2252 59.871 95.0283 59.6012 94.7889 59.313C94.5495 59.0209 94.2776 58.7226 93.9733 58.4183C93.6689 58.1099 93.3483 57.8197 93.0115 57.5478L93.1759 56.093L98.0211 53.9383L98.6359 55.387L94.6246 57.0609C94.8031 57.2151 94.9898 57.3855 95.1846 57.5722C95.3834 57.7548 95.5762 57.9496 95.7628 58.1565C96.0428 58.469 96.2802 58.7733 96.475 59.0696C96.6698 59.3658 96.826 59.6499 96.9437 59.9217C97.0654 60.1936 97.1527 60.4533 97.2054 60.7009C97.2623 60.9443 97.2907 61.1736 97.2907 61.3887C97.2907 61.6809 97.2521 61.9487 97.175 62.1922C97.102 62.4357 97.0127 62.6548 96.9072 62.8496C96.5095 63.5516 95.8562 63.9838 94.9472 64.1461V64.14C94.8539 64.1603 94.7605 64.1725 94.6672 64.1765C94.5739 64.1846 94.4805 64.1887 94.3872 64.1887L92.4211 64.1826C92.2994 64.1826 92.1878 64.1623 92.0863 64.1217C91.9808 64.0812 91.8915 64.0264 91.8185 63.9574C91.7414 63.8884 91.6825 63.8072 91.642 63.7139C91.6014 63.6206 91.5811 63.5191 91.5811 63.4096ZM105.458 63.3304C104.914 63.3304 104.447 63.2594 104.058 63.1174C103.668 62.9713 103.36 62.7664 103.133 62.5026C103.003 62.3362 102.909 62.1577 102.853 61.967C102.796 61.7722 102.767 61.5875 102.767 61.413C102.767 61.2588 102.78 61.1188 102.804 60.993C102.832 60.8672 102.865 60.7597 102.901 60.6704C103.064 60.3296 103.266 60.0333 103.51 59.7817C103.757 59.5261 104.013 59.307 104.277 59.1243C104.541 58.9377 104.8 58.7835 105.056 58.6617C105.312 58.54 105.533 58.4426 105.72 58.3696C105.699 58.2154 105.683 58.0612 105.671 57.907C105.663 57.7528 105.653 57.5986 105.64 57.4443L107.18 57.1157C107.184 57.1522 107.193 57.2333 107.205 57.3591C107.217 57.4809 107.231 57.627 107.247 57.7974C107.268 57.9678 107.288 58.1504 107.308 58.3452C107.329 58.5359 107.347 58.7165 107.363 58.887C107.379 59.0533 107.393 59.1994 107.406 59.3252C107.422 59.447 107.432 59.522 107.436 59.5504C107.497 60.0699 107.552 60.4939 107.6 60.8226C107.653 61.1513 107.698 61.411 107.734 61.6017C107.775 61.7925 107.807 61.9284 107.832 62.0096C107.856 62.0907 107.874 62.1435 107.886 62.1678C107.927 62.2571 107.972 62.3322 108.02 62.393C108.073 62.4499 108.134 62.4965 108.203 62.533C108.276 62.5655 108.359 62.5899 108.453 62.6061C108.55 62.6183 108.66 62.6243 108.781 62.6243C108.887 62.6243 108.986 62.6446 109.08 62.6852C109.177 62.7258 109.26 62.7806 109.329 62.8496C109.402 62.9186 109.459 63.0017 109.5 63.0991C109.544 63.1925 109.566 63.2939 109.566 63.4035C109.566 63.513 109.544 63.6145 109.5 63.7078C109.459 63.8012 109.402 63.8843 109.329 63.9574C109.26 64.0264 109.177 64.0812 109.08 64.1217C108.986 64.1623 108.887 64.1826 108.781 64.1826C108.615 64.1826 108.418 64.1684 108.191 64.14C107.968 64.1116 107.742 64.0446 107.515 63.9391C107.353 63.862 107.205 63.7687 107.071 63.6591C106.941 63.5455 106.819 63.4035 106.706 63.233C106.478 63.2655 106.261 63.2899 106.054 63.3061C105.847 63.3223 105.649 63.3304 105.458 63.3304ZM106.164 61.7296C106.144 61.62 106.123 61.4901 106.103 61.34C106.083 61.1899 106.062 61.0275 106.042 60.853C106.022 60.6745 106 60.4899 105.975 60.2991C105.955 60.1084 105.933 59.9177 105.908 59.727C105.803 59.7716 105.685 59.8284 105.555 59.8974C105.425 59.9664 105.291 60.0455 105.153 60.1348C105.015 60.22 104.88 60.3113 104.746 60.4087C104.616 60.5061 104.5 60.6075 104.399 60.713C104.297 60.8145 104.214 60.918 104.149 61.0235C104.088 61.129 104.058 61.2304 104.058 61.3278C104.058 61.4171 104.102 61.4922 104.192 61.553C104.281 61.6099 104.393 61.6565 104.526 61.693C104.664 61.7255 104.813 61.7499 104.971 61.7661C105.133 61.7783 105.283 61.7843 105.421 61.7843C105.551 61.7843 105.681 61.7803 105.811 61.7722C105.941 61.76 106.058 61.7458 106.164 61.7296ZM107.956 63.4035C107.956 63.2939 107.976 63.1925 108.016 63.0991C108.057 63.0017 108.114 62.9186 108.187 62.8496C108.256 62.7806 108.337 62.7258 108.43 62.6852C108.524 62.6446 108.625 62.6243 108.735 62.6243H109.362H109.636C109.806 62.6243 109.974 62.6183 110.141 62.6061C110.307 62.5899 110.463 62.5594 110.61 62.5148C110.756 62.4701 110.883 62.4072 110.993 62.3261C111.107 62.2449 111.194 62.1394 111.255 62.0096C111.299 61.9203 111.322 61.7864 111.322 61.6078C111.322 61.5023 111.299 61.3542 111.255 61.1635C111.214 60.9728 111.155 60.7617 111.078 60.5304C111.005 60.2991 110.918 60.0597 110.816 59.8122C110.719 59.5646 110.616 59.3333 110.506 59.1183L111.912 58.4243C112.014 58.6557 112.115 58.9012 112.216 59.1609C112.318 59.4206 112.407 59.6884 112.484 59.9643C112.565 60.2362 112.63 60.5101 112.679 60.7861C112.728 61.062 112.752 61.3319 112.752 61.5957C112.752 61.9893 112.685 62.3403 112.551 62.6487C112.397 63.0058 112.18 63.3 111.9 63.5313C111.62 63.7586 111.287 63.929 110.902 64.0426C110.67 64.1075 110.445 64.1461 110.226 64.1583C110.011 64.1745 109.81 64.1826 109.623 64.1826H108.79H108.735C108.625 64.1826 108.524 64.1623 108.43 64.1217C108.337 64.0812 108.256 64.0264 108.187 63.9574C108.114 63.8884 108.057 63.8072 108.016 63.7139C107.976 63.6165 107.956 63.513 107.956 63.4035ZM111.949 56.4035L110.786 57.5661L109.617 56.3974L110.78 55.2348L111.949 56.4035ZM116.881 64.1826C116.41 64.1826 116.006 64.1238 115.669 64.0061C115.333 63.8925 115.042 63.718 114.799 63.4826C114.653 63.3365 114.539 63.1803 114.458 63.0139C114.381 62.8435 114.324 62.6791 114.288 62.5209C114.251 62.3586 114.229 62.2064 114.221 62.0643C114.217 61.9183 114.215 61.7925 114.215 61.687C114.219 61.5571 114.223 61.342 114.227 61.0417C114.235 60.7414 114.239 60.3783 114.239 59.9522C114.239 59.6965 114.237 59.4246 114.233 59.1365C114.233 58.8443 114.231 58.5481 114.227 58.2478C114.223 57.9475 114.215 57.6472 114.202 57.347C114.194 57.0426 114.18 56.7504 114.16 56.4704C114.144 56.1904 114.121 55.9287 114.093 55.6852C114.069 55.4377 114.038 55.2186 114.002 55.0278L115.529 54.5713C115.574 54.8067 115.613 55.0907 115.645 55.4235C115.678 55.7562 115.704 56.1113 115.724 56.4887C115.745 56.862 115.761 57.2455 115.773 57.6391C115.785 58.0287 115.791 58.4 115.791 58.753C115.791 58.8586 115.791 58.9701 115.791 59.0878C115.795 59.2055 115.797 59.3232 115.797 59.4409C115.801 59.5545 115.803 59.6661 115.803 59.7757C115.803 59.8852 115.803 59.9846 115.803 60.0739C115.803 60.2281 115.801 60.3742 115.797 60.5122C115.797 60.6461 115.795 60.7759 115.791 60.9017C115.791 61.0275 115.789 61.1513 115.785 61.273C115.785 61.3948 115.785 61.5186 115.785 61.6443C115.781 61.7986 115.785 61.9446 115.797 62.0826C115.809 62.2165 115.85 62.3159 115.919 62.3809C116.065 62.5351 116.367 62.6142 116.826 62.6183H116.881C116.986 62.6183 117.086 62.6406 117.179 62.6852C117.276 62.7258 117.36 62.7826 117.429 62.8557C117.502 62.9246 117.558 63.0078 117.599 63.1052C117.644 63.1986 117.666 63.298 117.666 63.4035C117.666 63.513 117.644 63.6165 117.599 63.7139C117.558 63.8072 117.502 63.8884 117.429 63.9574C117.36 64.0264 117.276 64.0812 117.179 64.1217C117.086 64.1623 116.986 64.1826 116.881 64.1826ZM116.074 63.4035C116.074 63.2939 116.094 63.1925 116.135 63.0991C116.175 63.0017 116.232 62.9186 116.305 62.8496C116.378 62.7806 116.463 62.7258 116.561 62.6852C116.654 62.6446 116.755 62.6243 116.865 62.6243H118.07C118.573 62.6243 119.085 62.5777 119.604 62.4843C120.128 62.387 120.647 62.2612 121.162 62.107C121.678 61.9487 122.181 61.7681 122.672 61.5652C123.163 61.3623 123.628 61.1533 124.066 60.9383C123.717 60.8612 123.392 60.7597 123.092 60.6339C122.792 60.5041 122.508 60.3783 122.24 60.2565C121.972 60.1348 121.714 60.0293 121.467 59.94C121.219 59.8507 120.974 59.8061 120.73 59.8061C120.588 59.8061 120.454 59.8325 120.328 59.8852C120.207 59.9339 120.093 59.9968 119.988 60.0739C119.882 60.151 119.787 60.2362 119.702 60.3296C119.62 60.4229 119.547 60.5142 119.482 60.6035C119.422 60.6887 119.371 60.7658 119.33 60.8348C119.29 60.9038 119.261 60.9525 119.245 60.9809L117.979 60.1591C118.117 59.9157 118.281 59.6803 118.472 59.453C118.663 59.2217 118.874 59.0168 119.105 58.8383C119.34 58.6557 119.594 58.5116 119.866 58.4061C120.138 58.2965 120.426 58.2417 120.73 58.2417C121.043 58.2417 121.353 58.2843 121.662 58.3696C121.97 58.4507 122.274 58.5542 122.575 58.68C122.879 58.8058 123.183 58.9438 123.488 59.0939C123.792 59.24 124.098 59.378 124.407 59.5078C124.719 59.6336 125.034 59.7412 125.35 59.8304C125.667 59.9157 125.991 59.9603 126.324 59.9643L126.196 61.5348C125.628 61.8067 125.036 62.0948 124.419 62.3991C123.802 62.7035 123.157 62.9855 122.483 63.2452C121.81 63.5049 121.106 63.722 120.371 63.8965C119.637 64.071 118.87 64.1664 118.07 64.1826H116.914H116.865C116.755 64.1826 116.654 64.1623 116.561 64.1217C116.463 64.0812 116.378 64.0264 116.305 63.9574C116.232 63.8843 116.175 63.8012 116.135 63.7078C116.094 63.6145 116.074 63.513 116.074 63.4035ZM121.637 56.1783L120.475 57.3409L119.306 56.1722L120.468 55.0096L121.637 56.1783Z" fill="#303030"/>
<defs>
<linearGradient id="paint0_linear_15_61671" x1="4.9805" y1="6.56842" x2="151.488" y2="63.1681" gradientUnits="userSpaceOnUse">
<stop stop-color="#EAEAEA"/>
<stop offset="1" stop-color="#BDBDBD"/>
</linearGradient>
</defs>
</svg>
