<svg width="144" height="96" viewBox="0 0 144 96" fill="none" xmlns="http://www.w3.org/2000/svg">
<rect x="0.75" y="0.75" width="142.5" height="94.5" rx="9.25" fill="white" stroke="url(#paint0_linear_15_61670)" stroke-width="1.5"/>
<path fill-rule="evenodd" clip-rule="evenodd" d="M29.9923 34.627H21.125C20.7224 34.627 20.3372 34.8027 20.0559 35.1138C19.0189 36.2623 15.0564 40.6494 12.8922 43.0457C12.472 43.5107 12.3507 44.203 12.584 44.8023C12.8172 45.4016 13.36 45.7914 13.9612 45.7914H24.7477C25.0963 45.7914 25.3793 45.485 25.3793 45.1083C25.3793 44.7312 25.0963 44.4252 24.7477 44.4252H13.9612C13.8682 44.4252 13.7844 44.3646 13.7482 44.2722C13.712 44.1793 13.7309 44.0723 13.7957 44.0003L20.9595 36.0688C21.0029 36.0205 21.0627 35.9932 21.125 35.9932H29.9923C30.3409 35.9932 30.6239 35.6872 30.6239 35.3101C30.6239 34.933 30.3409 34.627 29.9923 34.627Z" fill="#303030"/>
<path fill-rule="evenodd" clip-rule="evenodd" d="M14.3738 67.9998H27.2731C27.6217 67.9998 27.9046 67.6938 27.9046 67.3167C27.9046 66.9396 27.6217 66.6336 27.2731 66.6336H14.3738C14.0256 66.6336 13.7422 66.9396 13.7422 67.3167C13.7422 67.6938 14.0256 67.9998 14.3738 67.9998ZM13.7422 45.1084V61.7752C13.7422 62.1523 14.0256 62.4583 14.3738 62.4583C14.7224 62.4583 15.0053 62.1523 15.0053 61.7752V45.1084C15.0053 44.7313 14.7224 44.4253 14.3738 44.4253C14.0256 44.4253 13.7422 44.7313 13.7422 45.1084ZM24.2836 53.1073C24.2836 52.1632 23.9367 51.2583 23.3198 50.5907C22.7026 49.9235 21.8659 49.5483 20.9931 49.5483C20.9628 49.5483 20.9325 49.5483 20.9017 49.5483C20.0293 49.5483 19.1923 49.9235 18.5754 50.5907C17.9582 51.2583 17.6116 52.1632 17.6116 53.1073C17.6116 54.9294 17.6116 57.1682 17.6116 58.4056C17.6116 59.2982 18.2807 60.0219 19.1059 60.0219H22.7893C23.6146 60.0219 24.2836 59.2982 24.2836 58.4056V53.1073ZM23.0205 53.1073V58.4056C23.0205 58.5436 22.9169 58.6556 22.7893 58.6556H19.1059C18.9784 58.6556 18.8748 58.5436 18.8748 58.4056V53.1073C18.8748 52.5258 19.0883 51.9679 19.4685 51.5566C19.8487 51.1454 20.364 50.9145 20.9017 50.9145H20.9931C21.5308 50.9145 22.0466 51.1454 22.4268 51.5566C22.8066 51.9679 23.0205 52.5258 23.0205 53.1073Z" fill="#303030"/>
<path fill-rule="evenodd" clip-rule="evenodd" d="M18.2429 55.9912H23.6517C24.0003 55.9912 24.2833 55.6852 24.2833 55.3081C24.2833 54.931 24.0003 54.625 23.6517 54.625H18.2429C17.8943 54.625 17.6113 54.931 17.6113 55.3081C17.6113 55.6852 17.8943 55.9912 18.2429 55.9912Z" fill="#303030"/>
<path fill-rule="evenodd" clip-rule="evenodd" d="M21.5796 58.6916V50.2314C21.5796 49.8543 21.2966 49.5482 20.948 49.5482C20.5994 49.5482 20.3164 49.8543 20.3164 50.2314V58.6916C20.3164 59.0687 20.5994 59.3747 20.948 59.3747C21.2966 59.3747 21.5796 59.0687 21.5796 58.6916ZM27.2734 67.9998H46.2139C46.5626 67.9998 46.8455 67.6938 46.8455 67.3167C46.8455 66.9396 46.5626 66.6336 46.2139 66.6336H27.2734C26.9248 66.6336 26.6418 66.9396 26.6418 67.3167C26.6418 67.6938 26.9248 67.9998 27.2734 67.9998ZM26.6418 42.3682V60.2323C26.6418 60.6094 26.9248 60.9154 27.2734 60.9154C27.622 60.9154 27.905 60.6094 27.905 60.2323V42.3682C27.905 41.9911 27.622 41.6851 27.2734 41.6851C26.9248 41.6851 26.6418 41.9911 26.6418 42.3682ZM46.8455 50.8257V42.3682C46.8455 41.9911 46.5626 41.6851 46.2139 41.6851C45.8657 41.6851 45.5824 41.9911 45.5824 42.3682V50.8257C45.5824 51.2028 45.8657 51.5088 46.2139 51.5088C46.5626 51.5088 46.8455 51.2028 46.8455 50.8257Z" fill="#303030"/>
<path fill-rule="evenodd" clip-rule="evenodd" d="M43.0962 56.6143C42.6785 57.444 42.4297 58.4601 42.4297 59.5576C42.4297 62.4604 44.1787 64.7366 46.2149 64.7366C48.2516 64.7366 50.0006 62.4604 50.0006 59.5576C50.0006 58.4605 49.7518 57.445 49.3358 56.6143C49.3358 56.6138 49.3353 56.6134 49.3349 56.6129C49.0802 56.107 48.9817 55.4757 49.0537 54.8614C49.0537 54.8605 49.0541 54.8596 49.0541 54.8591C49.076 54.6642 49.0878 54.4643 49.0878 54.2607C49.0878 52.0761 47.7476 50.3833 46.2149 50.3833C44.6823 50.3833 43.3425 52.0761 43.3425 54.2607C43.3425 54.4652 43.3543 54.666 43.3779 54.8609C43.4499 55.4762 43.3514 56.1079 43.0962 56.6143ZM44.2057 57.2678C44.5813 56.5223 44.737 55.5946 44.6309 54.6892C44.6309 54.6879 44.6305 54.687 44.6305 54.6861C44.6137 54.5476 44.6057 54.4055 44.6057 54.2607C44.6057 53.4073 44.8819 52.6435 45.3307 52.1744C45.58 51.9139 45.8827 51.7495 46.2149 51.7495C46.5476 51.7495 46.8503 51.9139 47.0996 52.1744C47.5484 52.6435 47.8246 53.4073 47.8246 54.2607C47.8246 54.4073 47.8162 54.5517 47.8002 54.692C47.6945 55.5946 47.8503 56.5214 48.2259 57.2669C48.5492 57.9118 48.7374 58.7037 48.7374 59.5576C48.7374 60.8424 48.3139 61.9882 47.6385 62.6945C47.2381 63.1126 46.7488 63.3704 46.2149 63.3704C45.6815 63.3704 45.1922 63.1126 44.7918 62.6945C44.1164 61.9882 43.6928 60.8424 43.6928 59.5576C43.6928 58.7042 43.881 57.9127 44.2057 57.2678Z" fill="#303030"/>
<path fill-rule="evenodd" clip-rule="evenodd" d="M45.5838 56.9637V67.3167C45.5838 67.6937 45.8672 67.9998 46.2154 67.9998C46.564 67.9998 46.847 67.6937 46.847 67.3167V56.9637C46.847 56.5866 46.564 56.2806 46.2154 56.2806C45.8672 56.2806 45.5838 56.5866 45.5838 56.9637ZM40.8188 67.3167V56.281C40.8188 53.9329 39.0588 52.0293 36.8883 52.0293C36.7931 52.0293 36.6975 52.0293 36.6024 52.0293C34.4314 52.0293 32.6719 53.9329 32.6719 56.281C32.6719 60.3383 32.6719 62.4305 32.6719 62.4305C32.6719 62.8076 32.9548 63.1136 33.3035 63.1136C33.6517 63.1136 33.935 62.8076 33.935 62.4305V56.281C33.935 54.6876 35.1291 53.396 36.6024 53.3955H36.8879C38.3615 53.396 39.5556 54.6876 39.5556 56.281V67.3167C39.5556 67.6937 39.8386 67.9998 40.1872 67.9998C40.5358 67.9998 40.8188 67.6937 40.8188 67.3167Z" fill="#303030"/>
<path fill-rule="evenodd" clip-rule="evenodd" d="M34.9143 58.388V59.481C34.9143 59.8581 35.1972 60.1641 35.5459 60.1641C35.8945 60.1641 36.1774 59.8581 36.1774 59.481V58.388C36.1774 58.0109 35.8945 57.7049 35.5459 57.7049C35.1972 57.7049 34.9143 58.0109 34.9143 58.388ZM27.4499 43.0515C27.8348 43.0515 28.2049 42.8911 28.4827 42.6033L36.5846 34.2214C36.6739 34.129 36.8149 34.129 36.9042 34.2214L45.006 42.6033C45.2839 42.8911 45.654 43.0515 46.0389 43.0515H48.1681C48.7786 43.0515 49.3277 42.6498 49.5551 42.0372C49.7824 41.4243 49.6422 40.7238 49.2009 40.2675C46.2085 37.1711 39.7652 30.5048 37.7774 28.4481C37.1993 27.8506 36.289 27.8506 35.7113 28.4481L24.2874 40.2675C23.8466 40.7238 23.7064 41.4243 23.9337 42.0372C24.1611 42.6498 24.7101 43.0515 25.3202 43.0515H27.4499ZM27.4499 41.6852H25.3202C25.2259 41.6852 25.1409 41.6233 25.1059 41.5285C25.0706 41.4338 25.0925 41.3254 25.1607 41.2544L36.5846 29.4355C36.6739 29.343 36.8149 29.343 36.9042 29.4355L48.3281 41.2544C48.3963 41.3254 48.4178 41.4338 48.3828 41.5285C48.3475 41.6233 48.2628 41.6852 48.1681 41.6852H46.0389C45.9791 41.6852 45.9218 41.6606 45.8789 41.616L37.7774 33.2341C37.1993 32.6361 36.289 32.6361 35.7113 33.2341L27.6095 41.616C27.5665 41.6606 27.5093 41.6852 27.4499 41.6852Z" fill="#303030"/>
<path fill-rule="evenodd" clip-rule="evenodd" d="M36.7438 42.6387C35.3548 42.6387 34.2268 43.8587 34.2268 45.3611C34.2268 46.864 35.3548 48.0841 36.7438 48.0841C38.1333 48.0841 39.2613 46.864 39.2613 45.3611C39.2613 43.8587 38.1333 42.6387 36.7438 42.6387ZM36.7438 44.0049C37.4361 44.0049 37.9982 44.6129 37.9982 45.3611C37.9982 46.1098 37.4361 46.7178 36.7438 46.7178C36.0516 46.7178 35.49 46.1098 35.49 45.3611C35.49 44.6129 36.0516 44.0049 36.7438 44.0049ZM11.52 67.8796C11.6253 67.9579 11.7503 67.9998 11.8779 67.9998H20.709C20.9313 67.9998 21.1376 67.8732 21.2513 67.6664C21.4597 67.2884 21.5797 66.8471 21.5797 66.3758C21.5797 64.9818 20.5334 63.8501 19.245 63.8501C19.1983 63.8501 19.1519 63.8519 19.1056 63.8546C18.7793 62.886 17.92 62.1933 16.9115 62.1933C16.6576 62.1933 16.413 62.237 16.184 62.3185C15.5414 61.4924 14.5785 60.9673 13.5031 60.9673C11.5697 60.9673 10 62.6651 10 64.7563C10 66.0515 10.6021 67.1964 11.52 67.8796ZM12.0876 66.6336C11.5844 66.1886 11.2632 65.5128 11.2632 64.7563C11.2632 63.4192 12.2669 62.3335 13.5031 62.3335C14.3242 62.3335 15.0429 62.8131 15.4328 63.5267C15.5208 63.6875 15.6661 63.8022 15.8345 63.8446C16.0029 63.8865 16.1798 63.8523 16.3242 63.7494C16.4926 63.6292 16.6947 63.5595 16.9115 63.5595C17.4922 63.5595 17.9658 64.06 17.9827 64.6839C17.9886 64.9071 18.0951 65.1129 18.2673 65.235C18.44 65.3575 18.6568 65.3812 18.8484 65.2983C18.9709 65.2455 19.1048 65.2163 19.245 65.2163C19.8362 65.2163 20.3166 65.7359 20.3166 66.3758C20.3166 66.4641 20.3073 66.5507 20.2896 66.6336H12.0876ZM25.7085 67.8796C25.8138 67.9579 25.9384 67.9998 26.0664 67.9998H33.5161C33.7384 67.9998 33.9447 67.8732 34.0584 67.6664C34.2432 67.3317 34.3493 66.9405 34.3493 66.5229C34.3493 65.2883 33.4226 64.2854 32.2811 64.2854C32.2639 64.2854 32.247 64.2859 32.2302 64.2864C31.9237 63.4666 31.1801 62.8878 30.3127 62.8878C30.111 62.8878 29.9161 62.9192 29.7317 62.9775C29.1717 62.2884 28.3511 61.8535 27.4374 61.8535C25.7519 61.8535 24.3835 63.3336 24.3835 65.1571C24.3835 66.2861 24.9081 67.2839 25.7085 67.8796ZM26.2791 66.6336C25.8921 66.2779 25.6466 65.7482 25.6466 65.1571C25.6466 64.0878 26.4487 63.2198 27.4374 63.2198C28.0938 63.2198 28.6685 63.6032 28.9805 64.1739C29.0681 64.3346 29.2134 64.4494 29.3818 64.4917C29.5502 64.5336 29.727 64.4995 29.8715 64.3966C29.9982 64.3064 30.1498 64.254 30.3127 64.254C30.7489 64.254 31.1047 64.6302 31.1174 65.0988C31.1237 65.322 31.2298 65.5278 31.4024 65.6503C31.5746 65.7724 31.7915 65.7961 31.983 65.7136C32.0752 65.6735 32.1759 65.6517 32.2811 65.6517C32.7253 65.6517 33.0862 66.042 33.0862 66.5229C33.0862 66.5602 33.0841 66.5971 33.0799 66.6336H26.2791ZM40.7708 67.9998H49.3682C49.7168 67.9998 49.9998 67.6938 49.9998 67.3167C49.9998 66.9396 49.7168 66.6336 49.3682 66.6336H40.7708C40.4221 66.6336 40.1392 66.9396 40.1392 67.3167C40.1392 67.6938 40.4221 67.9998 40.7708 67.9998Z" fill="#303030"/>
<path d="M73.5833 35.193C73.6077 35.2377 73.6483 35.3168 73.7051 35.4304C73.766 35.5441 73.8329 35.6841 73.906 35.8504C73.979 36.0168 74.0541 36.2035 74.1312 36.4104C74.2123 36.6174 74.2854 36.8345 74.3503 37.0617C74.4152 37.289 74.468 37.5243 74.5086 37.7678C74.5532 38.0072 74.5755 38.2426 74.5755 38.4739C74.5715 38.8472 74.5147 39.1983 74.4051 39.527C74.2996 39.8516 74.1413 40.1357 73.9303 40.3791C73.7233 40.6226 73.4677 40.8154 73.1633 40.9574C72.859 41.0954 72.506 41.1643 72.1042 41.1643C71.9094 41.1643 71.7349 41.142 71.5807 41.0974C71.4265 41.0568 71.2886 40.998 71.1668 40.9209C71.0451 40.8438 70.9375 40.7545 70.8442 40.653C70.7549 40.5516 70.6758 40.44 70.6068 40.3183C70.5175 40.4441 70.4262 40.5597 70.3329 40.6652C70.2396 40.7707 70.128 40.862 69.9981 40.9391C69.8723 41.0122 69.7202 41.069 69.5416 41.1096C69.3631 41.1501 69.146 41.1704 68.8903 41.1704C68.659 41.1704 68.4561 41.1481 68.2816 41.1035C68.1071 41.0588 67.961 41.0081 67.8433 40.9513C67.8677 41.4383 67.819 41.8806 67.6973 42.2783C67.5796 42.68 67.4051 43.0371 67.1738 43.3496C66.9465 43.662 66.6747 43.9339 66.3581 44.1652C66.0457 44.4006 65.7028 44.5933 65.3294 44.7435C64.9602 44.8936 64.5726 45.0052 64.1668 45.0783C63.7651 45.1554 63.3633 45.1939 62.9616 45.1939C62.3651 45.1939 61.8152 45.0945 61.312 44.8957C60.8089 44.7009 60.3726 44.4249 60.0033 44.0678C59.6381 43.7148 59.352 43.2887 59.1451 42.7896C58.9381 42.2945 58.8347 41.7446 58.8347 41.14C58.8468 40.787 58.8915 40.4299 58.9686 40.0687C59.0497 39.7035 59.1512 39.3504 59.2729 39.0096C59.3947 38.6687 59.5326 38.3461 59.6868 38.0417C59.841 37.7374 59.9973 37.4655 60.1555 37.2261L61.4155 38.1574C61.2735 38.3846 61.1355 38.62 61.0016 38.8635C60.8718 39.107 60.7561 39.3565 60.6547 39.6122C60.5532 39.8638 60.47 40.1214 60.4051 40.3852C60.3442 40.649 60.3138 40.9148 60.3138 41.1826C60.3016 41.5194 60.3564 41.8339 60.4781 42.1261C60.5999 42.4223 60.7764 42.68 61.0077 42.8991C61.2431 43.1223 61.5231 43.2968 61.8477 43.4226C62.1764 43.5525 62.5396 43.6174 62.9373 43.6174C63.3755 43.6174 63.7712 43.5768 64.1242 43.4957C64.4813 43.4145 64.7918 43.2988 65.0555 43.1487C65.3193 42.9986 65.5404 42.82 65.719 42.613C65.8975 42.4101 66.0294 42.1829 66.1147 41.9313C66.2283 41.5539 66.281 41.1806 66.2729 40.8113C66.2648 40.442 66.2141 40.0728 66.1207 39.7035C66.0315 39.3342 65.9097 38.967 65.7555 38.6017C65.6013 38.2365 65.437 37.8713 65.2625 37.5061L66.632 36.6661C66.6889 36.8122 66.7558 36.9907 66.8329 37.2017C66.91 37.4128 66.9973 37.6319 67.0946 37.8591C67.1961 38.0864 67.3057 38.3116 67.4233 38.5348C67.5451 38.758 67.677 38.9548 67.819 39.1252C67.961 39.2916 68.1152 39.4194 68.2816 39.5087C68.448 39.598 68.6286 39.6243 68.8233 39.5878C69.0262 39.5838 69.1865 39.533 69.3042 39.4357C69.426 39.3383 69.5193 39.2125 69.5842 39.0583C69.6491 38.9 69.6897 38.7214 69.706 38.5226C69.7262 38.3197 69.7364 38.1107 69.7364 37.8957L69.706 36.867L71.1973 36.7148C71.2054 36.8122 71.2115 36.9055 71.2155 36.9948C71.2196 37.0719 71.2216 37.151 71.2216 37.2322C71.2257 37.3133 71.2297 37.3803 71.2338 37.433C71.2378 37.5264 71.248 37.6461 71.2642 37.7922C71.2804 37.9383 71.3048 38.0925 71.3373 38.2548C71.3697 38.4171 71.4103 38.5814 71.459 38.7478C71.5077 38.9142 71.5686 39.0643 71.6416 39.1983C71.7147 39.3281 71.7978 39.4357 71.8912 39.5209C71.9886 39.602 72.1002 39.6426 72.226 39.6426C72.5425 39.6426 72.7758 39.5371 72.926 39.3261C73.0761 39.111 73.1512 38.8006 73.1512 38.3948C73.1512 38.2406 73.1248 38.0701 73.072 37.8835C73.0233 37.6928 72.9544 37.4919 72.8651 37.2809C72.7799 37.0699 72.6784 36.8507 72.5607 36.6235C72.4471 36.3922 72.3254 36.1588 72.1955 35.9235L73.5833 35.193ZM69.9129 34.0365L68.8781 35.0713L67.8312 34.0304L68.866 32.9896L69.9129 34.0365ZM72.2138 34.0426L71.179 35.0835L70.132 34.0365L71.1668 33.0017L72.2138 34.0426ZM69.0729 32.2774L70.0225 31.3278L70.9781 32.2835L70.0286 33.233L69.0729 32.2774ZM77.9284 37.2261C77.8229 37.2261 77.7093 37.2707 77.5876 37.36C77.4658 37.4493 77.3542 37.5649 77.2528 37.707C77.1513 37.8449 77.0661 37.9991 76.9971 38.1696C76.9322 38.34 76.8997 38.5064 76.8997 38.6687C76.8997 38.8391 76.9383 38.9812 77.0154 39.0948C77.0966 39.2043 77.198 39.2936 77.3197 39.3626C77.4455 39.4316 77.5855 39.4843 77.7397 39.5209C77.898 39.5533 78.0542 39.5777 78.2084 39.5939C78.2937 39.598 78.387 39.602 78.4884 39.6061C78.5899 39.6101 78.6934 39.6122 78.7989 39.6122C78.9084 39.6122 79.016 39.6122 79.1215 39.6122C79.227 39.6122 79.3264 39.6081 79.4197 39.6C79.3994 39.3728 79.3568 39.1577 79.2919 38.9548C79.227 38.7519 79.1499 38.5632 79.0606 38.3887C78.9754 38.2142 78.88 38.058 78.7745 37.92C78.6731 37.778 78.5777 37.6562 78.4884 37.5548V37.5609C78.4194 37.4878 78.3342 37.4148 78.2328 37.3417C78.1354 37.2646 78.0339 37.2261 77.9284 37.2261ZM75.165 43.9217C75.7615 43.8041 76.2992 43.6458 76.778 43.447C77.2609 43.2522 77.6789 43.033 78.0319 42.7896C78.385 42.5461 78.671 42.2864 78.8902 42.0104C79.1134 41.7345 79.2615 41.4586 79.3345 41.1826C79.2331 41.1826 79.1276 41.1826 79.018 41.1826C78.9084 41.1826 78.7989 41.1806 78.6893 41.1765C78.5797 41.1725 78.4742 41.1684 78.3728 41.1643C78.2713 41.1643 78.1821 41.1603 78.105 41.1522C77.6545 41.1197 77.2487 41.0243 76.8876 40.8661C76.5264 40.7078 76.2363 40.4928 76.0171 40.2209C75.8629 40.0261 75.7513 39.809 75.6823 39.5696C75.6174 39.3301 75.585 39.0786 75.585 38.8148C75.585 38.6078 75.6032 38.3988 75.6397 38.1878C75.6803 37.9768 75.7351 37.7719 75.8041 37.573C75.8771 37.3701 75.9603 37.1794 76.0537 37.0009C76.147 36.8223 76.2484 36.66 76.358 36.5139C76.5771 36.2339 76.8206 36.0229 77.0884 35.8809C77.3563 35.7348 77.6363 35.6617 77.9284 35.6617C78.5574 35.6617 79.1316 35.9417 79.651 36.5017C79.8377 36.7087 80.0041 36.9441 80.1502 37.2078C80.3003 37.4675 80.4261 37.7475 80.5276 38.0478C80.6331 38.3441 80.7122 38.6545 80.765 38.9791C80.8218 39.3038 80.8502 39.6325 80.8502 39.9652C80.8502 40.0667 80.8461 40.1681 80.838 40.2696C80.8339 40.371 80.8279 40.4684 80.8197 40.5617C80.7467 41.2516 80.556 41.8745 80.2476 42.4304C79.9392 42.9864 79.5455 43.4693 79.0667 43.8791C78.5919 44.293 78.0502 44.6319 77.4415 44.8957C76.8368 45.1594 76.1997 45.342 75.5302 45.4435L75.165 43.9217ZM86.1895 41.1826C86.1408 41.1826 86.0779 41.1806 86.0008 41.1765C85.9237 41.1765 85.8385 41.1684 85.7451 41.1522C85.6559 41.1359 85.5585 41.1096 85.453 41.073C85.3475 41.0406 85.244 40.9919 85.1425 40.927C85.0898 41.4383 84.9335 41.9272 84.6738 42.3939C84.4182 42.8646 84.0935 43.3049 83.6999 43.7148C83.3063 44.1246 82.864 44.5 82.373 44.8409C81.886 45.1817 81.3848 45.48 80.8695 45.7357L80.1877 44.3296C80.4718 44.1835 80.7579 44.0252 81.046 43.8548C81.3301 43.6843 81.6019 43.5017 81.8617 43.307C82.1214 43.1162 82.3628 42.9133 82.586 42.6983C82.8132 42.4832 83.008 42.26 83.1703 42.0287C83.3367 41.8014 83.4666 41.5661 83.5599 41.3226C83.6573 41.0791 83.706 40.8296 83.706 40.5739C83.706 40.5414 83.704 40.509 83.6999 40.4765C83.6999 40.44 83.6979 40.4055 83.6938 40.373V40.3791C83.6654 40.1519 83.6167 39.9226 83.5477 39.6913C83.4828 39.4559 83.4118 39.2287 83.3347 39.0096C83.2576 38.7904 83.1805 38.5814 83.1034 38.3826C83.0263 38.1797 82.9614 37.9971 82.9086 37.8348L84.3695 37.2261C84.5277 37.7009 84.6759 38.0945 84.8138 38.407C84.9559 38.7154 85.0979 38.9609 85.2399 39.1435C85.3819 39.322 85.526 39.4478 85.6721 39.5209C85.8222 39.5899 85.9866 39.6243 86.1651 39.6243H86.1956C86.3051 39.6243 86.4066 39.6467 86.4999 39.6913C86.5973 39.7319 86.6805 39.7887 86.7495 39.8617C86.8225 39.9307 86.8793 40.0139 86.9199 40.1113C86.9605 40.2046 86.9808 40.3041 86.9808 40.4096C86.9808 40.5191 86.9605 40.6206 86.9199 40.7139C86.8793 40.8072 86.8225 40.8904 86.7495 40.9635C86.6805 41.0325 86.5973 41.0852 86.4999 41.1217C86.4025 41.1623 86.299 41.1826 86.1895 41.1826ZM85.3393 40.4035C85.3393 40.2939 85.3596 40.1925 85.4002 40.0991C85.4408 40.0017 85.4976 39.9186 85.5706 39.8496C85.6437 39.7806 85.7289 39.7258 85.8263 39.6852C85.9196 39.6446 86.0211 39.6243 86.1306 39.6243C86.5202 39.6243 86.9077 39.6081 87.2932 39.5757C87.6828 39.5432 88.044 39.5006 88.3767 39.4478C88.7135 39.3951 89.0098 39.3362 89.2654 39.2713C89.5211 39.2023 89.7118 39.1333 89.8376 39.0643H89.2167C88.9854 39.0643 88.7582 39.0461 88.535 39.0096C88.3158 38.969 88.1089 38.9122 87.9141 38.8391C87.7193 38.762 87.5408 38.6687 87.3785 38.5591C87.2161 38.4455 87.0782 38.3157 86.9645 38.1696C86.8631 38.0397 86.7677 37.8693 86.6785 37.6583C86.5932 37.4472 86.5506 37.1855 86.5506 36.873C86.5506 36.7107 86.5628 36.5504 86.5872 36.3922C86.644 36.0635 86.7292 35.7632 86.8428 35.4913C86.9605 35.2154 87.1045 34.9719 87.275 34.7609V34.767C87.4779 34.5032 87.7031 34.3043 87.9506 34.1704C88.2022 34.0365 88.466 33.9696 88.7419 33.9696C89.0219 33.9696 89.2999 34.0406 89.5758 34.1826C89.8558 34.3246 90.1095 34.5113 90.3367 34.7426C90.5031 34.9333 90.6532 35.1504 90.7872 35.3939C90.9211 35.6333 91.0347 35.891 91.128 36.167C91.2254 36.4388 91.3005 36.7229 91.3532 37.0191C91.406 37.3154 91.4324 37.6116 91.4324 37.9078C91.4324 37.993 91.4303 38.0803 91.4263 38.1696C91.4222 38.2588 91.4161 38.3441 91.408 38.4252C91.3634 38.8188 91.2599 39.1617 91.0976 39.4539C90.9393 39.742 90.7364 39.9875 90.4889 40.1904C90.2414 40.3933 89.9553 40.5597 89.6306 40.6896C89.3101 40.8154 88.9651 40.9148 88.5958 40.9878C88.2266 41.0609 87.8411 41.1096 87.4393 41.1339C87.0376 41.1623 86.6318 41.1786 86.2219 41.1826H86.1185C86.0089 41.1826 85.9074 41.1623 85.8141 41.1217C85.7208 41.0812 85.6396 41.0264 85.5706 40.9574C85.4976 40.8843 85.4408 40.8012 85.4002 40.7078C85.3596 40.6145 85.3393 40.513 85.3393 40.4035ZM88.7419 35.54C88.6689 35.5359 88.5877 35.5583 88.4985 35.607C88.4092 35.6557 88.3219 35.7246 88.2367 35.8139C88.1515 35.8991 88.0724 35.9986 87.9993 36.1122C87.9263 36.2258 87.8695 36.3455 87.8289 36.4713C87.7924 36.593 87.7741 36.7188 87.7741 36.8487C87.7782 36.9745 87.8127 37.0922 87.8776 37.2017C87.9019 37.2464 87.9547 37.287 88.0358 37.3235C88.1211 37.3559 88.2185 37.3864 88.328 37.4148C88.4376 37.4391 88.5512 37.4594 88.6689 37.4757C88.7866 37.4919 88.8941 37.502 88.9915 37.5061C89.1538 37.5142 89.3243 37.5162 89.5028 37.5122C89.6854 37.5081 89.8396 37.502 89.9654 37.4939C89.9289 37.3478 89.8782 37.1672 89.8132 36.9522C89.7483 36.733 89.6651 36.522 89.5637 36.3191C89.4622 36.1122 89.3425 35.9336 89.2045 35.7835C89.0706 35.6333 88.9164 35.5522 88.7419 35.54ZM89.7158 32.0522L88.5532 33.2148L87.3845 32.0461L88.5472 30.8835L89.7158 32.0522ZM98.737 37.2261C98.6315 37.2261 98.5179 37.2707 98.3962 37.36C98.2744 37.4493 98.1628 37.5649 98.0614 37.707C97.9599 37.8449 97.8747 37.9991 97.8057 38.1696C97.7408 38.34 97.7083 38.5064 97.7083 38.6687C97.7083 38.8391 97.7469 38.9812 97.824 39.0948C97.9051 39.2043 98.0066 39.2936 98.1283 39.3626C98.2541 39.4316 98.3941 39.4843 98.5483 39.5209C98.7066 39.5533 98.8628 39.5777 99.017 39.5939C99.1022 39.598 99.1956 39.602 99.297 39.6061C99.3985 39.6101 99.502 39.6122 99.6075 39.6122C99.717 39.6122 99.8246 39.6122 99.9301 39.6122C100.036 39.6122 100.135 39.6081 100.228 39.6C100.208 39.3728 100.165 39.1577 100.101 38.9548C100.036 38.7519 99.9585 38.5632 99.8692 38.3887C99.784 38.2142 99.6886 38.058 99.5831 37.92C99.4817 37.778 99.3863 37.6562 99.297 37.5548V37.5609C99.228 37.4878 99.1428 37.4148 99.0414 37.3417C98.944 37.2646 98.8425 37.2261 98.737 37.2261ZM95.9735 43.9217C96.5701 43.8041 97.1078 43.6458 97.5866 43.447C98.0695 43.2522 98.4875 43.033 98.8405 42.7896C99.1935 42.5461 99.4796 42.2864 99.6988 42.0104C99.922 41.7345 100.07 41.4586 100.143 41.1826C100.042 41.1826 99.9362 41.1826 99.8266 41.1826C99.717 41.1826 99.6075 41.1806 99.4979 41.1765C99.3883 41.1725 99.2828 41.1684 99.1814 41.1643C99.0799 41.1643 98.9907 41.1603 98.9135 41.1522C98.4631 41.1197 98.0573 41.0243 97.6962 40.8661C97.335 40.7078 97.0449 40.4928 96.8257 40.2209C96.6715 40.0261 96.5599 39.809 96.4909 39.5696C96.426 39.3301 96.3935 39.0786 96.3935 38.8148C96.3935 38.6078 96.4118 38.3988 96.4483 38.1878C96.4889 37.9768 96.5437 37.7719 96.6127 37.573C96.6857 37.3701 96.7689 37.1794 96.8622 37.0009C96.9556 36.8223 97.057 36.66 97.1666 36.5139C97.3857 36.2339 97.6292 36.0229 97.897 35.8809C98.1649 35.7348 98.4449 35.6617 98.737 35.6617C99.366 35.6617 99.9402 35.9417 100.46 36.5017C100.646 36.7087 100.813 36.9441 100.959 37.2078C101.109 37.4675 101.235 37.7475 101.336 38.0478C101.442 38.3441 101.521 38.6545 101.574 38.9791C101.63 39.3038 101.659 39.6325 101.659 39.9652C101.659 40.0667 101.655 40.1681 101.647 40.2696C101.643 40.371 101.636 40.4684 101.628 40.5617C101.555 41.2516 101.365 41.8745 101.056 42.4304C100.748 42.9864 100.354 43.4693 99.8753 43.8791C99.4005 44.293 98.8588 44.6319 98.2501 44.8957C97.6454 45.1594 97.0083 45.342 96.3388 45.4435L95.9735 43.9217ZM109.093 41.1826C108.59 41.1826 108.111 41.069 107.656 40.8417C107.206 40.6145 106.786 40.298 106.396 39.8922L107.291 38.6322C107.66 38.969 108.005 39.2145 108.326 39.3687C108.646 39.5229 108.953 39.6 109.245 39.6C109.314 39.6 109.391 39.598 109.476 39.5939C109.561 39.5858 109.649 39.5757 109.738 39.5635C109.827 39.5472 109.912 39.529 109.994 39.5087C110.079 39.4884 110.154 39.4661 110.219 39.4417C110.292 39.4133 110.367 39.3829 110.444 39.3504C110.525 39.318 110.6 39.2855 110.669 39.253C110.742 39.2165 110.807 39.182 110.864 39.1496C110.921 39.1171 110.968 39.0867 111.004 39.0583L109.062 34.3713L110.505 33.7687C110.647 34.1217 110.815 34.5316 111.01 34.9983C111.176 35.4 111.377 35.889 111.613 36.4652C111.852 37.0414 112.128 37.7009 112.441 38.4435L112.538 38.6809C112.591 38.8188 112.645 38.9467 112.702 39.0643C112.759 39.178 112.83 39.2774 112.915 39.3626C113.005 39.4438 113.116 39.5087 113.25 39.5574C113.388 39.602 113.563 39.6243 113.774 39.6243C113.879 39.6243 113.979 39.6446 114.072 39.6852C114.169 39.7258 114.252 39.7806 114.321 39.8496C114.394 39.9186 114.451 40.0017 114.492 40.0991C114.536 40.1925 114.559 40.2939 114.559 40.4035C114.559 40.513 114.536 40.6165 114.492 40.7139C114.451 40.8072 114.394 40.8884 114.321 40.9574C114.252 41.0264 114.169 41.0812 114.072 41.1217C113.979 41.1623 113.879 41.1826 113.774 41.1826C113.518 41.1826 113.289 41.1623 113.086 41.1217C112.883 41.0852 112.7 41.0345 112.538 40.9696C112.38 40.9006 112.238 40.8214 112.112 40.7322C111.99 40.6388 111.881 40.5394 111.783 40.4339C111.665 40.5151 111.515 40.5983 111.333 40.6835C111.15 40.7646 110.972 40.8397 110.797 40.9087C110.562 41.002 110.3 41.071 110.012 41.1157C109.724 41.1603 109.417 41.1826 109.093 41.1826ZM115.947 43.1L114.912 44.1348L113.865 43.0939L114.9 42.053L115.947 43.1ZM118.248 43.1061L117.213 44.147L116.166 43.1L117.201 42.0652L118.248 43.1061ZM112.678 40.4035C112.678 40.2939 112.698 40.1925 112.739 40.0991C112.779 40.0017 112.836 39.9186 112.909 39.8496C112.978 39.7806 113.059 39.7258 113.153 39.6852C113.246 39.6446 113.348 39.6243 113.457 39.6243H114.133H114.425C114.624 39.6243 114.835 39.6183 115.058 39.6061C115.281 39.5899 115.494 39.5614 115.697 39.5209C115.904 39.4762 116.091 39.4174 116.257 39.3443C116.424 39.2672 116.547 39.1699 116.628 39.0522C116.689 38.9629 116.72 38.8432 116.72 38.693C116.724 38.5429 116.704 38.3786 116.659 38.2C116.618 38.0214 116.561 37.8348 116.488 37.64C116.419 37.4412 116.344 37.2504 116.263 37.0678C116.182 36.8812 116.101 36.7067 116.02 36.5443C115.943 36.378 115.878 36.238 115.825 36.1243L117.243 35.4243C117.353 35.6191 117.46 35.8545 117.566 36.1304C117.675 36.4023 117.771 36.6843 117.852 36.9765C117.933 37.2687 117.998 37.5568 118.047 37.8409C118.099 38.1249 118.126 38.3765 118.126 38.5957C118.126 38.9893 118.059 39.3403 117.925 39.6487C117.771 40.0058 117.554 40.3 117.274 40.5313C116.994 40.7586 116.661 40.929 116.275 41.0426C116.158 41.0751 116.01 41.0994 115.831 41.1157C115.657 41.1359 115.478 41.1501 115.295 41.1583C115.113 41.1704 114.938 41.1765 114.772 41.1765C114.61 41.1806 114.484 41.1826 114.395 41.1826H113.512H113.457C113.348 41.1826 113.246 41.1623 113.153 41.1217C113.059 41.0812 112.978 41.0264 112.909 40.9574C112.836 40.8884 112.779 40.8072 112.739 40.7139C112.698 40.6165 112.678 40.513 112.678 40.4035ZM124.184 41.1826C124.135 41.1826 124.072 41.1806 123.995 41.1765C123.918 41.1765 123.833 41.1684 123.739 41.1522C123.65 41.1359 123.553 41.1096 123.447 41.073C123.342 41.0406 123.238 40.9919 123.137 40.927C123.084 41.4383 122.928 41.9272 122.668 42.3939C122.412 42.8646 122.088 43.3049 121.694 43.7148C121.3 44.1246 120.858 44.5 120.367 44.8409C119.88 45.1817 119.379 45.48 118.864 45.7357L118.182 44.3296C118.466 44.1835 118.752 44.0252 119.04 43.8548C119.324 43.6843 119.596 43.5017 119.856 43.307C120.116 43.1162 120.357 42.9133 120.58 42.6983C120.807 42.4832 121.002 42.26 121.164 42.0287C121.331 41.8014 121.461 41.5661 121.554 41.3226C121.651 41.0791 121.7 40.8296 121.7 40.5739C121.7 40.5414 121.698 40.509 121.694 40.4765C121.694 40.44 121.692 40.4055 121.688 40.373V40.3791C121.66 40.1519 121.611 39.9226 121.542 39.6913C121.477 39.4559 121.406 39.2287 121.329 39.0096C121.252 38.7904 121.175 38.5814 121.098 38.3826C121.02 38.1797 120.956 37.9971 120.903 37.8348L122.364 37.2261C122.522 37.7009 122.67 38.0945 122.808 38.407C122.95 38.7154 123.092 38.9609 123.234 39.1435C123.376 39.322 123.52 39.4478 123.666 39.5209C123.816 39.5899 123.981 39.6243 124.159 39.6243H124.19C124.299 39.6243 124.401 39.6467 124.494 39.6913C124.591 39.7319 124.675 39.7887 124.744 39.8617C124.817 39.9307 124.873 40.0139 124.914 40.1113C124.955 40.2046 124.975 40.3041 124.975 40.4096C124.975 40.5191 124.955 40.6206 124.914 40.7139C124.873 40.8072 124.817 40.8904 124.744 40.9635C124.675 41.0325 124.591 41.0852 124.494 41.1217C124.397 41.1623 124.293 41.1826 124.184 41.1826ZM123.333 40.4035C123.333 40.2939 123.354 40.1925 123.394 40.0991C123.435 40.0017 123.492 39.9186 123.565 39.8496C123.638 39.7806 123.723 39.7258 123.82 39.6852C123.914 39.6446 124.015 39.6243 124.125 39.6243H125.33C125.833 39.6243 126.344 39.5777 126.864 39.4843C127.387 39.387 127.907 39.2612 128.422 39.107C128.938 38.9487 129.441 38.7681 129.932 38.5652C130.423 38.3623 130.887 38.1533 131.326 37.9383C130.977 37.8612 130.652 37.7597 130.352 37.6339C130.051 37.5041 129.767 37.3783 129.5 37.2565C129.232 37.1348 128.974 37.0293 128.727 36.94C128.479 36.8507 128.233 36.8061 127.99 36.8061C127.848 36.8061 127.714 36.8325 127.588 36.8852C127.467 36.9339 127.353 36.9968 127.247 37.0739C127.142 37.151 127.047 37.2362 126.961 37.3296C126.88 37.4229 126.807 37.5142 126.742 37.6035C126.681 37.6887 126.631 37.7658 126.59 37.8348C126.549 37.9038 126.521 37.9525 126.505 37.9809L125.239 37.1591C125.377 36.9157 125.541 36.6803 125.732 36.453C125.922 36.2217 126.133 36.0168 126.365 35.8383C126.6 35.6557 126.854 35.5116 127.126 35.4061C127.398 35.2965 127.686 35.2417 127.99 35.2417C128.302 35.2417 128.613 35.2843 128.921 35.3696C129.23 35.4507 129.534 35.5542 129.834 35.68C130.139 35.8058 130.443 35.9438 130.747 36.0939C131.052 36.24 131.358 36.378 131.667 36.5078C131.979 36.6336 132.293 36.7412 132.61 36.8304C132.927 36.9157 133.251 36.9603 133.584 36.9643L133.456 38.5348C132.888 38.8067 132.295 39.0948 131.679 39.3991C131.062 39.7035 130.417 39.9855 129.743 40.2452C129.069 40.5049 128.365 40.722 127.631 40.8965C126.896 41.071 126.129 41.1664 125.33 41.1826H124.173H124.125C124.015 41.1826 123.914 41.1623 123.82 41.1217C123.723 41.0812 123.638 41.0264 123.565 40.9574C123.492 40.8843 123.435 40.8012 123.394 40.7078C123.354 40.6145 123.333 40.513 123.333 40.4035ZM128.897 33.1783L127.734 34.3409L126.566 33.1722L127.728 32.0096L128.897 33.1783ZM85.5357 62.4296C85.6655 62.4986 85.7933 62.5472 85.9191 62.5757C86.0449 62.6 86.1646 62.6162 86.2783 62.6243H86.2661H86.3209C86.4264 62.6243 86.5258 62.6446 86.6191 62.6852C86.7165 62.7258 86.7997 62.7826 86.8687 62.8557C86.9417 62.9246 86.9986 63.0058 87.0391 63.0991C87.0838 63.1925 87.1061 63.2939 87.1061 63.4035C87.1061 63.513 87.0838 63.6165 87.0391 63.7139C86.9986 63.8072 86.9417 63.8884 86.8687 63.9574C86.7997 64.0264 86.7165 64.0812 86.6191 64.1217C86.5258 64.1623 86.4264 64.1826 86.3209 64.1826H86.2661C86.1606 64.1826 86.0246 64.1765 85.8583 64.1643C85.6919 64.1522 85.5133 64.1157 85.3226 64.0548C85.1319 63.998 84.9391 63.9087 84.7444 63.787C84.5496 63.6652 84.369 63.4968 84.2026 63.2817C83.9145 63.5699 83.5757 63.8113 83.1861 64.0061C82.8006 64.2049 82.3907 64.3551 81.9565 64.4565C81.5264 64.562 81.0861 64.6209 80.6357 64.633C80.1893 64.6452 79.7632 64.6107 79.3574 64.5296L79.8017 63.0504C79.9519 63.0707 80.1041 63.087 80.2583 63.0991C80.4165 63.1113 80.5728 63.1174 80.727 63.1174C80.8852 63.1133 81.0415 63.1012 81.1957 63.0809C81.3539 63.0565 81.5101 63.018 81.6644 62.9652C81.5467 62.5107 81.4026 62.0664 81.2322 61.6322C81.0617 61.1939 80.8771 60.7739 80.6783 60.3722C80.4835 59.9704 80.2806 59.589 80.0696 59.2278C79.8586 58.8667 79.6496 58.5319 79.4426 58.2235C79.2397 57.9151 79.047 57.6371 78.8644 57.3896C78.6817 57.138 78.5194 56.9229 78.3774 56.7443L79.473 55.6122C79.6272 55.8597 79.8383 56.1823 80.1061 56.58C80.3739 56.9777 80.6762 57.4809 81.013 58.0896C81.2281 58.4751 81.429 58.8626 81.6157 59.2522C81.8023 59.6377 81.9728 60.0151 82.127 60.3843C82.2812 60.7536 82.4171 61.1107 82.5348 61.4557C82.6525 61.8006 82.7478 62.1212 82.8209 62.4174C82.9304 62.3443 83.04 62.2632 83.1496 62.1739C83.2591 62.0806 83.3565 61.9812 83.4417 61.8757C83.531 61.7661 83.6 61.6525 83.6487 61.5348C83.7015 61.4171 83.7238 61.2933 83.7157 61.1635C83.671 60.5264 83.6162 59.9136 83.5513 59.3252C83.4904 58.7368 83.4255 58.1788 83.3565 57.6513C83.2875 57.1197 83.2186 56.6226 83.1496 56.16C83.0806 55.6933 83.0157 55.2632 82.9548 54.8696L84.5009 54.5774C84.5009 54.5855 84.513 54.6991 84.5374 54.9183C84.5617 55.1374 84.5922 55.4296 84.6287 55.7948C84.6693 56.1559 84.7119 56.5719 84.7565 57.0426C84.8012 57.5133 84.8458 58.0043 84.8904 58.5157C84.9391 59.027 84.9838 59.5403 85.0244 60.0557C85.0649 60.571 85.0994 61.0559 85.1278 61.5104C85.1441 61.7255 85.1786 61.9101 85.2313 62.0643C85.2841 62.2145 85.3875 62.3362 85.5417 62.4296H85.5357ZM85.4502 63.4035C85.4502 63.2939 85.4725 63.1925 85.5172 63.0991C85.5618 63.0058 85.6206 62.9246 85.6937 62.8557C85.7667 62.7826 85.8519 62.7258 85.9493 62.6852C86.0467 62.6446 86.1502 62.6243 86.2598 62.6243H91.7867C91.8922 62.6243 91.9916 62.6446 92.085 62.6852C92.1824 62.7258 92.2656 62.7826 92.3345 62.8557C92.4076 62.9246 92.4644 63.0058 92.505 63.0991C92.5496 63.1925 92.5719 63.2939 92.5719 63.4035C92.5719 63.513 92.5496 63.6165 92.505 63.7139C92.4644 63.8072 92.4076 63.8884 92.3345 63.9574C92.2656 64.0264 92.1824 64.0812 92.085 64.1217C91.9916 64.1623 91.8922 64.1826 91.7867 64.1826H86.2537C86.1482 64.1826 86.0467 64.1623 85.9493 64.1217C85.8519 64.0812 85.7667 64.0264 85.6937 63.9574C85.6206 63.8884 85.5618 63.8072 85.5172 63.7139C85.4725 63.6165 85.4502 63.513 85.4502 63.4035ZM90.9736 63.4035C90.9736 63.2939 90.996 63.1925 91.0406 63.0991C91.0852 63.0058 91.1441 62.9246 91.2171 62.8557C91.2902 62.7826 91.3754 62.7258 91.4728 62.6852C91.5702 62.6446 91.6736 62.6243 91.7832 62.6243H97.3102C97.4157 62.6243 97.5151 62.6446 97.6084 62.6852C97.7058 62.7258 97.789 62.7826 97.858 62.8557C97.931 62.9246 97.9878 63.0058 98.0284 63.0991C98.0731 63.1925 98.0954 63.2939 98.0954 63.4035C98.0954 63.513 98.0731 63.6165 98.0284 63.7139C97.9878 63.8072 97.931 63.8884 97.858 63.9574C97.789 64.0264 97.7058 64.0812 97.6084 64.1217C97.5151 64.1623 97.4157 64.1826 97.3102 64.1826H91.7771C91.6716 64.1826 91.5702 64.1623 91.4728 64.1217C91.3754 64.0812 91.2902 64.0264 91.2171 63.9574C91.1441 63.8884 91.0852 63.8072 91.0406 63.7139C90.996 63.6165 90.9736 63.513 90.9736 63.4035ZM96.4971 63.4035C96.4971 63.2939 96.5194 63.1925 96.564 63.0991C96.6087 63.0058 96.6675 62.9246 96.7406 62.8557C96.8136 62.7826 96.8988 62.7258 96.9962 62.6852C97.0936 62.6446 97.1971 62.6243 97.3066 62.6243H102.834C102.939 62.6243 103.039 62.6446 103.132 62.6852C103.229 62.7258 103.312 62.7826 103.381 62.8557C103.454 62.9246 103.511 63.0058 103.552 63.0991C103.596 63.1925 103.619 63.2939 103.619 63.4035C103.619 63.513 103.596 63.6165 103.552 63.7139C103.511 63.8072 103.454 63.8884 103.381 63.9574C103.312 64.0264 103.229 64.0812 103.132 64.1217C103.039 64.1623 102.939 64.1826 102.834 64.1826H97.3006C97.195 64.1826 97.0936 64.1623 96.9962 64.1217C96.8988 64.0812 96.8136 64.0264 96.7406 63.9574C96.6675 63.8884 96.6087 63.8072 96.564 63.7139C96.5194 63.6165 96.4971 63.513 96.4971 63.4035ZM105.009 66.1L103.974 67.1348L102.927 66.0939L103.962 65.053L105.009 66.1ZM107.31 66.1061L106.275 67.147L105.228 66.1L106.263 65.0652L107.31 66.1061ZM101.741 63.4035C101.741 63.2939 101.761 63.1925 101.801 63.0991C101.842 63.0017 101.899 62.9186 101.972 62.8496C102.041 62.7806 102.122 62.7258 102.215 62.6852C102.309 62.6446 102.41 62.6243 102.52 62.6243H103.195H103.487C103.686 62.6243 103.897 62.6183 104.121 62.6061C104.344 62.5899 104.557 62.5614 104.76 62.5209C104.967 62.4762 105.153 62.4174 105.32 62.3443C105.486 62.2672 105.61 62.1699 105.691 62.0522C105.752 61.9629 105.782 61.8432 105.782 61.693C105.786 61.5429 105.766 61.3786 105.721 61.2C105.681 61.0214 105.624 60.8348 105.551 60.64C105.482 60.4412 105.407 60.2504 105.326 60.0678C105.245 59.8812 105.163 59.7067 105.082 59.5443C105.005 59.378 104.94 59.238 104.887 59.1243L106.306 58.4243C106.415 58.6191 106.523 58.8545 106.628 59.1304C106.738 59.4023 106.833 59.6843 106.914 59.9765C106.996 60.2687 107.061 60.5568 107.109 60.8409C107.162 61.1249 107.188 61.3765 107.188 61.5957C107.188 61.9893 107.121 62.3403 106.987 62.6487C106.833 63.0058 106.616 63.3 106.336 63.5313C106.056 63.7586 105.723 63.929 105.338 64.0426C105.22 64.0751 105.072 64.0994 104.894 64.1157C104.719 64.1359 104.541 64.1501 104.358 64.1583C104.175 64.1704 104.001 64.1765 103.834 64.1765C103.672 64.1806 103.546 64.1826 103.457 64.1826H102.574H102.52C102.41 64.1826 102.309 64.1623 102.215 64.1217C102.122 64.0812 102.041 64.0264 101.972 63.9574C101.899 63.8884 101.842 63.8072 101.801 63.7139C101.761 63.6165 101.741 63.513 101.741 63.4035ZM111.384 60.2261C111.278 60.2261 111.164 60.2707 111.043 60.36C110.921 60.4493 110.809 60.5649 110.708 60.707C110.606 60.8449 110.521 60.9991 110.452 61.1696C110.387 61.34 110.355 61.5064 110.355 61.6687C110.355 61.8391 110.393 61.9812 110.47 62.0948C110.552 62.2043 110.653 62.2936 110.775 62.3626C110.901 62.4316 111.041 62.4843 111.195 62.5209C111.353 62.5533 111.509 62.5777 111.664 62.5939C111.749 62.598 111.842 62.602 111.944 62.6061C112.045 62.6101 112.148 62.6122 112.254 62.6122C112.364 62.6122 112.471 62.6122 112.577 62.6122C112.682 62.6122 112.781 62.6081 112.875 62.6C112.855 62.3728 112.812 62.1577 112.747 61.9548C112.682 61.7519 112.605 61.5632 112.516 61.3887C112.43 61.2142 112.335 61.058 112.23 60.92C112.128 60.778 112.033 60.6562 111.944 60.5548V60.5609C111.875 60.4878 111.789 60.4148 111.688 60.3417C111.59 60.2646 111.489 60.2261 111.384 60.2261ZM108.62 66.9217C109.217 66.8041 109.754 66.6458 110.233 66.447C110.716 66.2522 111.134 66.033 111.487 65.7896C111.84 65.5461 112.126 65.2864 112.345 65.0104C112.568 64.7345 112.717 64.4586 112.79 64.1826C112.688 64.1826 112.583 64.1826 112.473 64.1826C112.364 64.1826 112.254 64.1806 112.144 64.1765C112.035 64.1725 111.929 64.1684 111.828 64.1643C111.726 64.1643 111.637 64.1603 111.56 64.1522C111.11 64.1197 110.704 64.0243 110.343 63.8661C109.981 63.7078 109.691 63.4928 109.472 63.2209C109.318 63.0261 109.206 62.809 109.137 62.5696C109.072 62.3301 109.04 62.0786 109.04 61.8148C109.04 61.6078 109.058 61.3988 109.095 61.1878C109.135 60.9768 109.19 60.7719 109.259 60.573C109.332 60.3701 109.415 60.1794 109.509 60.0009C109.602 59.8223 109.704 59.66 109.813 59.5139C110.032 59.2339 110.276 59.0229 110.544 58.8809C110.811 58.7348 111.091 58.6617 111.384 58.6617C112.012 58.6617 112.587 58.9417 113.106 59.5017C113.293 59.7087 113.459 59.9441 113.605 60.2078C113.755 60.4675 113.881 60.7475 113.983 61.0478C114.088 61.3441 114.167 61.6545 114.22 61.9791C114.277 62.3038 114.305 62.6325 114.305 62.9652C114.305 63.0667 114.301 63.1681 114.293 63.2696C114.289 63.371 114.283 63.4684 114.275 63.5617C114.202 64.2516 114.011 64.8745 113.703 65.4304C113.394 65.9864 113.001 66.4693 112.522 66.8791C112.047 67.293 111.505 67.6319 110.897 67.8957C110.292 68.1594 109.655 68.342 108.985 68.4435L108.62 66.9217Z" fill="#303030"/>
<defs>
<linearGradient id="paint0_linear_15_61670" x1="4.9805" y1="6.56842" x2="151.488" y2="63.1681" gradientUnits="userSpaceOnUse">
<stop stop-color="#EAEAEA"/>
<stop offset="1" stop-color="#BDBDBD"/>
</linearGradient>
</defs>
</svg>
