<svg width="20" height="21" viewBox="0 0 20 21" fill="none" xmlns="http://www.w3.org/2000/svg">
<g id="Vector">
<path id="Vector-8" fill-rule="evenodd" clip-rule="evenodd" d="M16.4599 1.16167L18.4443 2.74188C18.636 2.92225 18.744 3.17417 18.7426 3.43733C18.7411 3.7005 18.6303 3.95122 18.4367 4.12947L16.9288 5.93398L11.7978 12.0533C11.7081 12.1561 11.5885 12.2283 11.4557 12.2599L8.79455 12.8631C8.44542 12.8805 8.14147 12.6268 8.09631 12.2802V9.54552C8.10537 9.41369 8.15848 9.28872 8.24711 9.1907L13.283 3.49714L15.0115 1.43286C15.3534 0.984619 15.9789 0.867508 16.4599 1.16167Z" stroke="#0F203C" stroke-width="1.5" stroke-linecap="round" stroke-linejoin="round"/>
<path id="Vector-9" d="M9.27868 4.11789C9.69289 4.11789 10.0287 3.7821 10.0287 3.36789C10.0287 2.95368 9.69289 2.61789 9.27868 2.61789V4.11789ZM5.7305 3.36789V2.61789L5.7287 2.61789L5.7305 3.36789ZM1.00001 8.11992H1.75001L1.75001 8.11831L1.00001 8.11992ZM1.00001 15.248L1.75001 15.2496V15.248H1.00001ZM5.7305 20L5.7287 20.75H5.7305V20ZM12.8269 20V20.75L12.8287 20.75L12.8269 20ZM17.5574 15.248L16.8073 15.248L16.8074 15.2496L17.5574 15.248ZM18.3074 10.4959C18.3074 10.0817 17.9716 9.74593 17.5574 9.74593C17.1431 9.74593 16.8074 10.0817 16.8074 10.4959H18.3074ZM13.9763 3.21097C13.8182 2.8281 13.3797 2.64585 12.9969 2.8039C12.614 2.96196 12.4317 3.40047 12.5898 3.78334L13.9763 3.21097ZM17.0907 6.66125C17.4951 6.57184 17.7505 6.17149 17.6611 5.76704C17.5717 5.36259 17.1714 5.1072 16.7669 5.19661L17.0907 6.66125ZM4.54824 15.6866C4.13403 15.6866 3.79824 16.0224 3.79824 16.4366C3.79824 16.8508 4.13403 17.1866 4.54824 17.1866V15.6866ZM14.0105 17.1866C14.4247 17.1866 14.7605 16.8508 14.7605 16.4366C14.7605 16.0224 14.4247 15.6866 14.0105 15.6866V17.1866ZM9.27868 2.61789H5.7305V4.11789H9.27868V2.61789ZM5.7287 2.61789C2.69618 2.62518 0.243521 5.08901 0.250013 8.12153L1.75001 8.11831C1.74529 5.91407 3.52805 4.12318 5.7323 4.11789L5.7287 2.61789ZM0.250011 8.11992V15.248H1.75001V8.11992H0.250011ZM0.250013 15.2464C0.243521 18.2789 2.69618 20.7427 5.7287 20.75L5.7323 19.25C3.52805 19.2447 1.74529 17.4538 1.75001 15.2496L0.250013 15.2464ZM5.7305 20.75H12.8269V19.25H5.7305V20.75ZM12.8287 20.75C15.8612 20.7427 18.3138 18.2789 18.3073 15.2464L16.8074 15.2496C16.8121 17.4538 15.0293 19.2447 12.8251 19.25L12.8287 20.75ZM18.3074 15.248V10.4959H16.8074V15.248H18.3074ZM12.5898 3.78334C12.8277 4.35969 13.3154 5.17964 14.04 5.81012C14.7783 6.45246 15.8224 6.94162 17.0907 6.66125L16.7669 5.19661C16.0976 5.34456 15.5229 5.11204 15.0247 4.67851C14.5128 4.23314 14.1464 3.62304 13.9763 3.21097L12.5898 3.78334ZM4.54824 17.1866H14.0105V15.6866H4.54824V17.1866Z" fill="#0F203C"/>
</g>
</svg>
